<svg xmlns="http://www.w3.org/2000/svg" width="65.206" height="74.866" viewBox="0 0 65.206 74.866">
  <g id="Grupo_7744" data-name="Grupo 7744" transform="translate(-4159.287 -2456.033)">
    <path id="Trazado_16851" data-name="Trazado 16851" d="M4218.845,2534.627a4.834,4.834,0,0,0,4.83-4.83h-2.415a2.415,2.415,0,1,1-4.83,0h-2.415A4.835,4.835,0,0,0,4218.845,2534.627Z" transform="translate(-26.955 -36.331)" fill="#023c7d"/>
    <path id="Trazado_16852" data-name="Trazado 16852" d="M4219.627,2516.908a10.712,10.712,0,0,0-2.175-5.538,5.958,5.958,0,0,1-1.411-3.414,4.241,4.241,0,0,1,.424-1.885,9.57,9.57,0,0,0,.784-4.153c0-2.674-1.244-4.376-2.445-6.021-1.227-1.677-2.385-3.262-2.385-6.054a10.256,10.256,0,0,1,.88-4.186,22.24,22.24,0,0,0,1.535-9.1c0-3.428-1.106-20.528-22.943-20.528s-22.942,17.1-22.942,20.528a22.242,22.242,0,0,0,1.534,9.1,10.264,10.264,0,0,1,.88,4.186c0,2.792-1.158,4.377-2.385,6.054-1.2,1.645-2.445,3.346-2.445,6.021a9.572,9.572,0,0,0,.783,4.153,4.234,4.234,0,0,1,.424,1.885,5.95,5.95,0,0,1-1.412,3.412,10.72,10.72,0,0,0-2.175,5.538,19.14,19.14,0,0,0-4.866,12.785v1.207h65.206v-1.207a19.135,19.135,0,0,0-4.866-12.784Zm-51.294-4.191a8.108,8.108,0,0,0,1.822-4.76,6.6,6.6,0,0,0-.6-2.8,7.186,7.186,0,0,1-.6-3.241c0-1.886.874-3.082,1.981-4.6,1.334-1.827,2.849-3.9,2.849-7.479a12.561,12.561,0,0,0-1.035-5.039,19.87,19.87,0,0,1-1.38-8.244c0-4.249,1.48-18.113,20.528-18.113s20.528,13.864,20.528,18.113a19.878,19.878,0,0,1-1.38,8.244,12.561,12.561,0,0,0-1.035,5.039c0,3.581,1.515,5.652,2.849,7.479,1.107,1.513,1.982,2.71,1.982,4.6a7.183,7.183,0,0,1-.605,3.241,6.6,6.6,0,0,0-.6,2.8,8.107,8.107,0,0,0,1.822,4.76c.263.39.518.776.753,1.177a19.258,19.258,0,0,0-3.633-1.967l-12.388-5.068a3.607,3.607,0,0,1-2.252-3.353v-.867a22.357,22.357,0,0,0,9.66-18.41V2478.3a4.815,4.815,0,0,0-2.415-8.989h-2.415v2.415h2.415a2.415,2.415,0,1,1,0,4.83h-3.622a8.464,8.464,0,0,1-8.453-8.452v-7.244h-2.415v7.245a8.463,8.463,0,0,1-8.452,8.453h-3.623a2.415,2.415,0,0,1,0-4.83h2.415v-2.415h-2.415a4.815,4.815,0,0,0-2.415,8.989v5.925a22.357,22.357,0,0,0,9.661,18.41v.867a3.607,3.607,0,0,1-2.251,3.352l-12.388,5.068a19.36,19.36,0,0,0-3.634,1.967c.234-.4.491-.786.752-1.177Zm37.9,3.341-4.161,4.161,4.08,2.72-1.848,5.545h-2.753v-18.455l3.35,1.371Zm-28.6,6.882,4.081-2.72-4.162-4.161,1.332-4.657,3.35-1.371v18.455h-2.753Zm4.6-43.963a10.849,10.849,0,0,1,19.32,0h3.622v5.254c0,.19-.017.377-.021.565a6.027,6.027,0,0,0-11.931-.989h-2.659a6.028,6.028,0,0,0-11.932.989c0-.19-.021-.375-.021-.565v-5.254Zm20.528,6.038a3.623,3.623,0,1,1-3.623-3.623A3.627,3.627,0,0,1,4202.758,2485.014Zm-14.49,0a3.623,3.623,0,1,1-3.623-3.623A3.627,3.627,0,0,1,4188.268,2485.014Zm-3.623,6.037a6.049,6.049,0,0,0,5.916-4.83h2.659a6.021,6.021,0,0,0,11.9-.713,13.764,13.764,0,1,1-26.466,0A6.027,6.027,0,0,0,4184.645,2491.051Zm3.579,13.036a22.384,22.384,0,0,0,3.283,1.391l.383.128.382-.126a22.536,22.536,0,0,0,3.283-1.391,6,6,0,0,0,3.579,4.943v.132c0,3.33-3.25,6.038-7.245,6.038s-7.246-2.708-7.246-6.038v-.134a5.993,5.993,0,0,0,3.581-4.942Zm-3.579,10.648a10.549,10.549,0,0,0,14.49,0v13.749h-14.49Zm-12.516-.572,3.906-1.6-1.2,4.2,3.083,3.084-3.165,2.109,2.177,6.53h-15.188A16.712,16.712,0,0,1,4172.129,2514.163Zm34.719,14.321,2.177-6.53-3.165-2.109,3.084-3.084-1.2-4.2,3.906,1.6a16.713,16.713,0,0,1,10.385,14.321Z" fill="#023c7d"/>
  </g>
</svg>
