<svg xmlns="http://www.w3.org/2000/svg" width="82.976" height="75.359" viewBox="0 0 82.976 75.359">
  <g id="Grupo_7743" data-name="Grupo 7743" transform="translate(-3967.343 -2460.835)">
    <path id="Trazado_16848" data-name="Trazado 16848" d="M4038.147,2530.578a9.7,9.7,0,0,0-12.028-.1,6.211,6.211,0,0,1-.069-.922,6.055,6.055,0,0,1,1.785-4.309,1.621,1.621,0,0,0-2.292-2.292,18.576,18.576,0,0,1-10.409,19.078,1.621,1.621,0,1,0,3.227.3,6.1,6.1,0,0,1,4.027-5.173,9.719,9.719,0,0,0,6.269,10.122,6.081,6.081,0,0,1-4.8,1.686,1.621,1.621,0,1,0-.3,3.227q.44.04.875.041a9.313,9.313,0,0,1,15.415,0c.288,0,.58-.013.872-.041a1.621,1.621,0,0,0-.3-3.228,6.08,6.08,0,0,1-4.837-1.727,9.7,9.7,0,0,0,6.155-10.136,6.1,6.1,0,0,1,4.186,5.23,1.62,1.62,0,0,0,3.227-.3,18.563,18.563,0,0,1-10.408-19.082,1.621,1.621,0,0,0-2.292,2.292,6.088,6.088,0,0,1,1.695,5.334Zm-6.079,1.1a6.472,6.472,0,0,1,4.619,1.936c-.076.084-.153.168-.234.249a6.094,6.094,0,0,1-8.619,0c-.106-.106-.207-.217-.3-.329a6.468,6.468,0,0,1,4.538-1.856Zm-6.491,6.491a6.472,6.472,0,0,1,.119-1.23,6.1,6.1,0,0,1,4.8,6.527,6.023,6.023,0,0,1-.167.957,6.5,6.5,0,0,1-4.752-6.253Zm8.371,6.213a6.092,6.092,0,0,1,4.5-7.411,6.482,6.482,0,0,1-4.5,7.411Z" transform="translate(-23.245 -29.987)" fill="#023c7d"/>
    <path id="Trazado_16849" data-name="Trazado 16849" d="M4048.954,2522.278l-7.369-13.034a1.621,1.621,0,0,0-2.972.365,1.608,1.608,0,0,0,.152,1.23l7.423,13.129a5.662,5.662,0,0,1,.89,3.032,6.045,6.045,0,0,1-1.642,4.108,6.507,6.507,0,0,1-4.2,1.846h-64.809a6.515,6.515,0,0,1-4.2-1.846,5.952,5.952,0,0,1-1.64-4.068,5.717,5.717,0,0,1,.891-3.052l32.422-57.366a5.859,5.859,0,0,1,9.866-.007l17.823,31.529a1.621,1.621,0,0,0,2.822-1.6l-17.88-31.626a8.841,8.841,0,0,0-3.4-3.1,9.05,9.05,0,0,0-4.277-.987h-.047a9.051,9.051,0,0,0-4.276.987,8.946,8.946,0,0,0-3.4,3.137l-32.426,57.339a8.85,8.85,0,0,0-.692,8.1,9.277,9.277,0,0,0,8.4,5.792h64.838a9.168,9.168,0,0,0,3.646-.835,9.005,9.005,0,0,0,2.875-2.045,9.206,9.206,0,0,0,1.875-2.9,8.923,8.923,0,0,0-.692-8.14Z" fill="#023c7d"/>
    <path id="Trazado_16850" data-name="Trazado 16850" d="M4015.74,2474.721a1.621,1.621,0,0,0-1.41.822l-32.576,57.532a1.777,1.777,0,0,0,.01,1.7,1.7,1.7,0,0,0,1.4.885h65.149a1.726,1.726,0,0,0,1.41-2.541l-32.573-57.552a1.639,1.639,0,0,0-1.41-.842Zm-29.8,57.695,29.8-52.623,29.794,52.623Z" transform="translate(-6.908 -6.755)" fill="#023c7d"/>
    <circle id="Elipse_732" data-name="Elipse 732" cx="1.621" cy="1.621" r="1.621" transform="translate(4034.966 2502.072)" fill="#023c7d"/>
  </g>
</svg>
