<svg xmlns="http://www.w3.org/2000/svg" width="63.311" height="43.544" viewBox="0 0 63.311 43.544">
  <g id="Grupo_7193" data-name="Grupo 7193" transform="translate(-2354.778 -882.905)">
    <path id="Trazado_16059" data-name="Trazado 16059" d="M2354.778,887.1a2.5,2.5,0,0,0,.109-.286,4.889,4.889,0,0,1,4.961-3.9q7.758-.021,15.515-.007,18.729,0,37.458,0a4.908,4.908,0,0,1,4.959,3.248,5.531,5.531,0,0,1,.3,1.753q.026,16.751.009,33.5a4.89,4.89,0,0,1-5.139,5q-13.537.014-27.073.006c-8.365,0-16.731-.063-25.1.03-3.054.034-5.321-1.217-6-4.227Zm31.649,37.457q13.227,0,26.455,0a3.077,3.077,0,0,0,3.35-3.342q0-16.565,0-33.131a3.07,3.07,0,0,0-3.309-3.321q-26.486,0-52.972,0a3.062,3.062,0,0,0-3.317,3.309q0,16.6,0,33.192a3.978,3.978,0,0,0,.072.858,3.063,3.063,0,0,0,3.264,2.434Q2373.2,924.564,2386.427,924.561Z" transform="translate(0 0)" fill="#023c7d"/>
    <path id="Trazado_16060" data-name="Trazado 16060" d="M2406.678,956.7c0-1.187.02-2.3-.005-3.4a3.117,3.117,0,0,1,1.976-3.183c.769-.346,1.5-.765,2.264-1.132a5.794,5.794,0,0,1,5.185-.049c.9.415,1.77.876,2.652,1.321a2.85,2.85,0,0,1,1.681,2.728c0,1.211,0,2.422,0,3.69a8.876,8.876,0,0,0,1.211-.011.973.973,0,0,0,.887-.957c.018-.2.016-.412.016-.617q0-10.354,0-20.707c0-1.348-.277-1.622-1.633-1.622q-7.387,0-14.773,0c-1.265,0-1.56.3-1.561,1.577q-.005,7.417,0,14.835a4.369,4.369,0,0,1-.013.617.914.914,0,0,1-1.788.132,2.231,2.231,0,0,1-.051-.611q0-7.479,0-14.959c0-2.335,1.114-3.452,3.444-3.454q7.479,0,14.959,0a2.957,2.957,0,0,1,3.277,3.3q.008,10.57,0,21.14a2.938,2.938,0,0,1-3.233,3.215q-7.6.008-15.206,0a2.959,2.959,0,0,1-3.238-3.219c0-.515-.01-1.03,0-1.545.017-.671.38-1.06.955-1.046.553.013.88.384.894,1.035.011.494,0,.989.006,1.483,0,1.084.362,1.438,1.452,1.44Zm11.875-.033c0-1.343.039-2.638-.03-3.928a1.285,1.285,0,0,0-.631-.821c-.854-.49-1.749-.911-2.641-1.333a3.21,3.21,0,0,0-2.521-.261,41,41,0,0,0-3.782,1.775.9.9,0,0,0-.378.666c-.036,1.289-.017,2.579-.017,3.9Z" transform="translate(-40.019 -40.062)" fill="#023c7d"/>
    <path id="Trazado_16061" data-name="Trazado 16061" d="M2570.57,936.94c-2.76,0-5.521.026-8.28-.008a3.4,3.4,0,1,1-.154-6.8c3.749-.031,7.5-.017,11.246-.01a.973.973,0,0,1,1.1.927c.006.564-.425.92-1.144.921-3.625,0-7.25,0-10.875,0-1.162,0-1.866.629-1.839,1.611a1.49,1.49,0,0,0,1.324,1.467,6.644,6.644,0,0,0,.8.029q7.879,0,15.757,0c1.307,0,2.034-.542,2.05-1.526s-.744-1.575-2.074-1.583c-.35,0-.7.014-1.05-.014a.832.832,0,0,1-.816-.782.85.85,0,0,1,.583-.974,3.932,3.932,0,0,1,5.133,2.661,3.332,3.332,0,0,1-3.109,4.042c-2.594.07-5.19.027-7.785.032Z" transform="translate(-170.268 -39.284)" fill="#023c7d"/>
    <path id="Trazado_16062" data-name="Trazado 16062" d="M2558.875,1002.416a12.541,12.541,0,0,1,1.6-4.983c1.034-1.986,2.193-3.908,3.342-5.832.549-.919,1.283-.9,1.871,0a38.221,38.221,0,0,1,4.414,8.457,6.546,6.546,0,0,1-.154,5.441,5.869,5.869,0,0,1-6.636,2.956A5.94,5.94,0,0,1,2558.875,1002.416Zm5.875-8.89c-.428.716-.809,1.321-1.159,1.943a23.084,23.084,0,0,0-2.754,6.309,4.031,4.031,0,1,0,7.771-.19C2567.888,998.69,2566.318,996.191,2564.75,993.526Z" transform="translate(-170.382 -90.172)" fill="#023c7d"/>
    <path id="Trazado_16063" data-name="Trazado 16063" d="M2448.516,966.365a4.888,4.888,0,1,1-9.742.785,8.43,8.43,0,0,1,.157-2.509,4.869,4.869,0,0,1,9.583.983C2448.527,965.871,2448.516,966.118,2448.516,966.365Zm-1.7.041-.146-.043c0-.165,0-.329,0-.494a3.025,3.025,0,0,0-6.032-.351,6.924,6.924,0,0,0,.009,1.722,3.01,3.01,0,0,0,2.329,2.575,2.922,2.922,0,0,0,3.228-1.389A10.66,10.66,0,0,0,2446.816,966.406Z" transform="translate(-70.097 -65.165)" fill="#023c7d"/>
    <path id="Trazado_16064" data-name="Trazado 16064" d="M2641.744,998.823c-1.233,0-2.467.007-3.7,0-.758-.006-1.137-.319-1.144-.91s.377-.935,1.12-.938q3.761-.014,7.523,0c.711,0,1.139.383,1.126.945s-.436.9-1.164.907c-1.254.009-2.508,0-3.761,0Z" transform="translate(-235.518 -95.219)" fill="#023c7d"/>
    <path id="Trazado_16065" data-name="Trazado 16065" d="M2652.924,1053.224c.766.128,1.9-.277,1.892.949-.006,1.2-1.11.866-1.937.969,0,.309.011.61,0,.91a.963.963,0,0,1-.931,1.027.937.937,0,0,1-.917-1.025c-.009-.285,0-.57,0-.878-.768-.2-1.983.265-1.944-1.052.036-1.235,1.194-.722,1.9-.922.175-.727-.316-1.91.982-1.89C2653.194,1051.33,2652.773,1052.453,2652.924,1053.224Z" transform="translate(-245.687 -140.587)" fill="#023c7d"/>
    <path id="Trazado_16066" data-name="Trazado 16066" d="M2646.76,1021.01c.947,0,1.895-.013,2.842,0,.671.012,1.086.388,1.079.929s-.421.912-1.1.916q-2.811.018-5.622,0c-.694-.005-1.069-.362-1.064-.935s.375-.9,1.083-.91C2644.906,1021,2645.833,1021.01,2646.76,1021.01Z" transform="translate(-240.524 -115.287)" fill="#023c7d"/>
  </g>
</svg>
