<svg xmlns="http://www.w3.org/2000/svg" width="72.355" height="74.851" viewBox="0 0 72.355 74.851">
  <g id="filled_outline" data-name="filled outline" transform="translate(-4310.559 -2456.033)">
    <circle id="Elipse_733" data-name="Elipse 733" cx="1.248" cy="1.248" r="1.248" transform="translate(4345.489 2517.162)" fill="#023c7d"/>
    <circle id="Elipse_734" data-name="Elipse 734" cx="1.248" cy="1.248" r="1.248" transform="translate(4345.489 2522.152)" fill="#023c7d"/>
    <g id="Grupo_7745" data-name="Grupo 7745" transform="translate(4338.004 2477.363)">
      <path id="Trazado_16853" data-name="Trazado 16853" d="M4390.735,2500h-3.742a1.248,1.248,0,1,1,0-2.5h3.742a1.248,1.248,0,0,1,0,2.5Z" transform="translate(-4374.518 -2497.501)" fill="#023c7d"/>
      <circle id="Elipse_735" data-name="Elipse 735" cx="1.559" cy="1.559" r="1.559" transform="translate(12.475 3.409)" fill="#023c7d"/>
      <path id="Trazado_16854" data-name="Trazado 16854" d="M4368.907,2500h-3.743a1.248,1.248,0,0,1,0-2.5h3.743a1.248,1.248,0,1,1,0,2.5Z" transform="translate(-4363.917 -2497.501)" fill="#023c7d"/>
      <circle id="Elipse_736" data-name="Elipse 736" cx="1.559" cy="1.559" r="1.559" transform="translate(1.871 3.409)" fill="#023c7d"/>
    </g>
    <path id="Trazado_16855" data-name="Trazado 16855" d="M4377.291,2515.944a1.247,1.247,0,0,1-1.171-1.676l1.247-3.409a1.247,1.247,0,1,1,2.343.857l-1.247,3.409A1.248,1.248,0,0,1,4377.291,2515.944Z" transform="translate(-31.802 -26.228)" fill="#023c7d"/>
    <path id="Trazado_16856" data-name="Trazado 16856" d="M4368.837,2547.02v8.733a1.251,1.251,0,0,1-.086.455,12.443,12.443,0,0,1-2.409-1.416v-7.772a1.248,1.248,0,0,1,2.5,0Z" transform="translate(-27.091 -43.581)" fill="#023c7d"/>
    <path id="Trazado_16857" data-name="Trazado 16857" d="M4380.964,2547.02v10.2a12.245,12.245,0,0,1-2.5,0v-10.2a1.248,1.248,0,0,1,2.5,0Z" transform="translate(-32.98 -43.581)" fill="#023c7d"/>
    <path id="Trazado_16858" data-name="Trazado 16858" d="M4393.091,2547.02v7.772a12.387,12.387,0,0,1-2.5,1.454v-9.226a1.248,1.248,0,0,1,2.5,0Z" transform="translate(-38.869 -43.581)" fill="#023c7d"/>
    <path id="Trazado_16859" data-name="Trazado 16859" d="M4379.786,2536.141h-2.5a1.248,1.248,0,0,1,0-2.5h2.5a1.248,1.248,0,1,1,0,2.5Z" transform="translate(-31.802 -37.692)" fill="#023c7d"/>
    <path id="Trazado_16860" data-name="Trazado 16860" d="M4368.837,2547.02v8.733a1.251,1.251,0,0,1-.086.455,12.443,12.443,0,0,1-2.409-1.416v-7.772a1.248,1.248,0,0,1,2.5,0Z" transform="translate(-27.091 -43.581)" fill="#023c7d"/>
    <path id="Trazado_16861" data-name="Trazado 16861" d="M4380.964,2547.02v10.2a12.245,12.245,0,0,1-2.5,0v-10.2a1.248,1.248,0,0,1,2.5,0Z" transform="translate(-32.98 -43.581)" fill="#023c7d"/>
    <path id="Trazado_16862" data-name="Trazado 16862" d="M4393.091,2547.02v7.772a12.387,12.387,0,0,1-2.5,1.454v-9.226a1.248,1.248,0,0,1,2.5,0Z" transform="translate(-38.869 -43.581)" fill="#023c7d"/>
    <circle id="Elipse_737" data-name="Elipse 737" cx="1.248" cy="1.248" r="1.248" transform="translate(4345.489 2517.162)" fill="#023c7d"/>
    <circle id="Elipse_738" data-name="Elipse 738" cx="1.248" cy="1.248" r="1.248" transform="translate(4345.489 2522.152)" fill="#023c7d"/>
    <circle id="Elipse_739" data-name="Elipse 739" cx="1.559" cy="1.559" r="1.559" transform="translate(4350.479 2480.771)" fill="#023c7d"/>
    <path id="Trazado_16863" data-name="Trazado 16863" d="M4368.907,2497.5h-3.743a1.248,1.248,0,0,0,0,2.5h3.743a1.248,1.248,0,1,0,0-2.5Z" transform="translate(-25.913 -20.138)" fill="#023c7d"/>
    <circle id="Elipse_740" data-name="Elipse 740" cx="1.559" cy="1.559" r="1.559" transform="translate(4339.875 2480.771)" fill="#023c7d"/>
    <path id="Trazado_16864" data-name="Trazado 16864" d="M4382.274,2524.9a10.54,10.54,0,0,0-5.14-7.7l-1.705-1v-1.531a1.247,1.247,0,0,0-.642-1.091l-6.464-3.591a7.176,7.176,0,0,0-.578-4.743,4.632,4.632,0,0,1-.158-3.791l.432-1.08a7.166,7.166,0,0,0-.506-6.313l-.742-1.237a4.656,4.656,0,0,1-.329-4.1,8.868,8.868,0,0,0-.667-7.887l-.894-1.461a4.634,4.634,0,0,1-.68-2.417v-5.261a8.59,8.59,0,0,0-2.531-6.111,7.148,7.148,0,0,1-.528-.589l-2.418-3.023a15.816,15.816,0,0,0-17.9-4.928l-1.413.53a9.622,9.622,0,0,0-5.244,4.72l-.877,1.752a9.635,9.635,0,0,0-4.017,7.837v6.552a4.5,4.5,0,0,0-1.248,3.11v2.2a4.516,4.516,0,0,0,1.27,3.139l-1.158,2.317a8.674,8.674,0,0,0-.656,5.978,6.137,6.137,0,0,1-.257,3.789l-.713,1.783a8.614,8.614,0,0,0-.36,5.321l.141.567a6.123,6.123,0,0,1,.1,2.53,1.349,1.349,0,0,0-.016.14l-7.686,4.27a1.243,1.243,0,0,0-.575.7l-1.051.525a10.561,10.561,0,0,0-5.8,8.335l-.694,6.368a1.247,1.247,0,0,0,1.105,1.375,1.178,1.178,0,0,0,.134.007h69.861a1.25,1.25,0,0,0,1.236-1.417Zm-64.23,3.491H4313.2l.543-4.985a8.076,8.076,0,0,1,4.3-6.3Zm12.476-46.847a2.02,2.02,0,0,1,2.018-2.018h.477v4.363c0,.613.019,1.232.054,1.845,0,.01,0,.02-.006.03h-.524a2.018,2.018,0,0,1-2.018-2.019Zm-1.248,46.847h-8.732v-12.775a1.269,1.269,0,0,0,.115-.278l8.617-4.787Zm1.88-21.036a1.248,1.248,0,0,0-1.239-.015l-.948.526a8.649,8.649,0,0,0-.255-1.834l-.141-.567a6.126,6.126,0,0,1,.257-3.789l.713-1.783a8.618,8.618,0,0,0,.361-5.321,6.176,6.176,0,0,1,.468-4.257l1.095-2.188a4.564,4.564,0,0,0,1.076.13h.476v12.974a13.793,13.793,0,0,0,.974,5.1l-2.538,1.269a1.258,1.258,0,0,0-.3-.249Zm10.594,21.036h-9.979v-18.155l2.687-1.343,1.065,8.426a1.248,1.248,0,0,0,1.922.886l4.306-2.823Zm-4.49-17.226a13.668,13.668,0,0,0,3.041,2.184l-2.553,1.674Zm11.976,17.226h-4.99v-13.664a13.52,13.52,0,0,0,4.99,0Zm.022-16.218h-.022v0a10.993,10.993,0,0,1-1.247.212v-8.95a1.248,1.248,0,0,0-2.5,0v8.95a11.237,11.237,0,0,1-2.922-.733q-.446-.178-.868-.391a1.253,1.253,0,0,0,.047-.341v-7.485a1.248,1.248,0,1,0-2.5,0v6.168a11.174,11.174,0,0,1-3.742-8.377v-12.176l1.25,1.22a1.246,1.246,0,0,0,.061.46l.416,1.246a5.81,5.81,0,0,0,7.349,3.676,5.894,5.894,0,0,0,.762-.316l1.39-.694,1.389.694a5.81,5.81,0,0,0,8.111-3.36l.262-.786a5.789,5.789,0,0,0,1.334-1.259l.131-.17v11.466a11.171,11.171,0,0,1-3.743,8.377v-6.168a1.248,1.248,0,1,0-2.5,0v7.485a1.267,1.267,0,0,0,.048.34q-.423.212-.868.392a11.316,11.316,0,0,1-1.652.516Zm1.226-32.314h3.742a1.248,1.248,0,0,0,1.247-1.248c0-.039,0-.077-.005-.115a7,7,0,0,1,2.5,5.392c0,.619-.021,1.244-.06,1.862l-2.05,2.667a3.3,3.3,0,0,1-.7.677h-.8a12.6,12.6,0,0,1-5.607-1.323,1.244,1.244,0,0,0-.558-.132h-1.07l.787-2.148a1.247,1.247,0,0,0-2.343-.857h0l-1.213,3.314a12.6,12.6,0,0,1-5.178,1.146,3.331,3.331,0,0,1-.386-.322l-3.228-3.15c-.034-.576-.052-7.059-.052-7.059a17.849,17.849,0,0,1,1.282-6.657,3.341,3.341,0,0,1,5.464-1.122l2.4,2.4a13.11,13.11,0,0,0,6.438,3.534l1.362.3a7.2,7.2,0,0,1,1.114.345h-3.088a1.248,1.248,0,1,0,0,2.5Zm3.236,11.716a3.315,3.315,0,0,1-4.422,1.561l-.052-.025-1.947-.974a1.246,1.246,0,0,0-1.116,0l-1.947.974a3.316,3.316,0,0,1-4.449-1.483l-.025-.052a15.13,15.13,0,0,0,5.812-1.441h2.336A15.135,15.135,0,0,0,4353.716,2491.574Zm2.5,19.59-.488,3.859-2.553-1.674A13.7,13.7,0,0,0,4356.218,2511.164Zm5.489,17.226h-9.98v-13.009l4.306,2.824a1.248,1.248,0,0,0,1.922-.887l1-7.892,2.755,1.616Zm.614-21.036a1.247,1.247,0,0,0-.584.813l-2.423-1.421a13.769,13.769,0,0,0,1.145-5.515V2486.1a1.235,1.235,0,0,0-.055-.358c.036-.616.055-1.236.055-1.851a9.532,9.532,0,0,0-7.464-9.3l-1.362-.3a10.625,10.625,0,0,1-5.216-2.863l-2.4-2.4a5.835,5.835,0,0,0-9.543,1.959,20.31,20.31,0,0,0-1.4,6.053h-.534a4.564,4.564,0,0,0-.771.067v-5.216a7.144,7.144,0,0,1,3.188-5.955,1.259,1.259,0,0,0,.424-.48l1.019-2.039a7.135,7.135,0,0,1,3.889-3.5l1.413-.53a13.32,13.32,0,0,1,15.078,4.151l2.418,3.023a9.85,9.85,0,0,0,.712.795,6.107,6.107,0,0,1,1.8,4.347v5.261a7.125,7.125,0,0,0,1.047,3.719l.894,1.461a6.361,6.361,0,0,1,.478,5.659,7.167,7.167,0,0,0,.506,6.313l.742,1.237a4.658,4.658,0,0,1,.329,4.1l-.432,1.08a7.133,7.133,0,0,0,.242,5.833,4.647,4.647,0,0,1,.479,2.332l-2.433-1.351a1.249,1.249,0,0,0-1.238.015Zm10.613,21.036H4364.2v-17.84l8.732,4.852Zm2.5,0v-9.3l.442.26a8.062,8.062,0,0,1,3.931,5.89l.433,3.15Z" transform="translate(0 0)" fill="#023c7d"/>
    <path id="Trazado_16865" data-name="Trazado 16865" d="M4379.786,2533.646h-2.5a1.248,1.248,0,0,0,0,2.5h2.5a1.248,1.248,0,1,0,0-2.5Z" transform="translate(-31.802 -37.692)" fill="#023c7d"/>
  </g>
</svg>
