<svg xmlns="http://www.w3.org/2000/svg" width="75" height="75" viewBox="0 0 75 75">
  <g id="Grupo_7735" data-name="Grupo 7735" transform="translate(-3776.245 -2454.655)">
    <g id="Grupo_7736" data-name="Grupo 7736" transform="translate(3776.245 2454.655)">
      <g id="Grupo_7735-2" data-name="Grupo 7735">
        <path id="Trazado_16844" data-name="Trazado 16844" d="M3849.781,2464.909h-4.394v-8.789a1.465,1.465,0,0,0-1.465-1.465H3832.2a1.465,1.465,0,0,0-1.465,1.465v8.789h-4.394a1.465,1.465,0,0,0-1.465,1.465v11.719a1.476,1.476,0,0,0,.28.859l4.114,5.488v3.457a7.714,7.714,0,0,0-4.687-1.6,4.476,4.476,0,0,1-4.394.149v-27.981a1.465,1.465,0,0,0-1.465-1.465H3777.71a1.465,1.465,0,0,0-1.465,1.465v69.726a1.465,1.465,0,0,0,1.465,1.465h67.676a1.465,1.465,0,0,0,1.464-1.465v-43.75s4.181-5.582,4.214-5.643a1.487,1.487,0,0,0,.181-.7v-11.719A1.465,1.465,0,0,0,3849.781,2464.909Zm-25.2,24.316a4.824,4.824,0,0,1,4.4,2.93h-3.08a7.291,7.291,0,0,0-1.322-2.929Zm-2.929,1.123a4.416,4.416,0,0,1,1.213,1.807h-2.426A4.41,4.41,0,0,1,3821.656,2490.348Zm5.535,4.737-5.593,5.569-5.614-5.569h11.207Zm-35.149,0-5.663,5.068-5.111-5.068Zm-12.615-2.93a4.4,4.4,0,0,1,4.143-2.93h.007a7.3,7.3,0,0,0-1.322,2.929Zm5.861,0a1.31,1.31,0,1,1,2.424,0Zm4.137-2.929h0a4.4,4.4,0,0,1,4.143,2.93h-2.825A7.286,7.286,0,0,0,3789.425,2489.226Zm3.6,21.645-6.14,6.114-7.047-7.046,6.436-5.761Zm-4.563-8.651,7.359-6.588,6.267,6.215-6.987,6.957Zm20.416-7.135-4.714,4.694-4.734-4.694Zm-6.015-2.93a1.311,1.311,0,1,1,2.426,0Zm4.139-2.929h0a4.4,4.4,0,0,1,4.143,2.93h-2.825A7.284,7.284,0,0,0,3807,2489.226Zm-7.173,2.929H3797a4.4,4.4,0,0,1,4.143-2.93h0A7.3,7.3,0,0,0,3799.83,2492.155Zm4.34,11.754,7.094,7.035-6.987,6.958-7.094-7.035Zm2.076-2.067,6.183-6.157,7.092,7.036-6.181,6.155Zm15.355,2.942,7.006,6.95-6.481,5.854-6.705-6.649Zm-2.872-15.558a7.3,7.3,0,0,0-1.322,2.929h-2.825a4.4,4.4,0,0,1,4.143-2.93Zm-39.555-29.3h38.086v2.93h-38.086Zm0,5.86h38.086v20.658a5.984,5.984,0,0,1-10.254-.15,7.3,7.3,0,0,1-5.859,0,7.316,7.316,0,0,1-11.719,0,7.3,7.3,0,0,1-5.859,0,7.282,7.282,0,0,0-4.395,1.471Zm0,31.348,5.018,4.975-5.018,4.492Zm0,16.281,5.636,5.636-5.636,5.612Zm2.082,13.31,5.626-5.6,5.6,5.6Zm7.7-7.669,6.149-6.123,7.094,7.035-6.178,6.152Zm10.609,7.669,4.714-4.694,4.734,4.694Zm6.79-6.762,6.987-6.957,6.6,6.548-7.328,6.619Zm10.023,6.762,5.651-5.1,5.148,5.1Zm12.892-2.051-5.063-5.021,5.063-4.573Zm0-16.408-5.6-5.55,5.6-5.572Zm4.4-50.683h8.789v7.324h-8.789Zm-5.86,10.254h3.641l-3.641,3.642Zm0,8.789v-1l7.784-7.785h4.646l-8.789,8.789Zm16.113,50.1h-2.93v-21.387a1.465,1.465,0,1,0-2.929,0v21.387H3832.2v-41.309h11.719Zm.732-44.239H3831.47l-2.2-2.93h17.578Zm3.662-5.859h-3.934l3.934-3.934Zm0-8.078-8.078,8.078h-4.646l8.789-8.789h3.934Z" transform="translate(-3776.245 -2454.655)" fill="#023c7d"/>
      </g>
    </g>
    <g id="Grupo_7738" data-name="Grupo 7738" transform="translate(3782.104 2468.718)">
      <g id="Grupo_7737" data-name="Grupo 7737" transform="translate(0)">
        <path id="Trazado_16845" data-name="Trazado 16845" d="M3801.112,2482.694h-11.719a1.465,1.465,0,0,0-1.465,1.465v11.719a1.465,1.465,0,0,0,1.465,1.464h11.719a1.465,1.465,0,0,0,1.465-1.464v-11.719A1.465,1.465,0,0,0,3801.112,2482.694Zm-7.324,11.719h-2.93v-2.93h2.93Zm0-5.859h-2.93v-2.93h2.93Zm5.859,5.859h-2.929v-2.93h2.929Zm0-5.859h-2.929v-2.93h2.929Z" transform="translate(-3787.928 -2482.694)" fill="#023c7d"/>
      </g>
    </g>
    <g id="Grupo_7740" data-name="Grupo 7740" transform="translate(3799.683 2468.718)">
      <g id="Grupo_7739" data-name="Grupo 7739">
        <path id="Trazado_16846" data-name="Trazado 16846" d="M3836.161,2482.694h-11.719a1.465,1.465,0,0,0-1.465,1.465v11.719a1.465,1.465,0,0,0,1.465,1.464h11.719a1.465,1.465,0,0,0,1.465-1.464v-11.719A1.465,1.465,0,0,0,3836.161,2482.694Zm-7.324,11.719h-2.929v-2.93h2.929Zm0-5.859h-2.929v-2.93h2.929Zm5.859,5.859h-2.929v-2.93h2.929Zm0-5.859h-2.929v-2.93h2.929Z" transform="translate(-3822.977 -2482.694)" fill="#023c7d"/>
      </g>
    </g>
    <g id="Grupo_7742" data-name="Grupo 7742" transform="translate(3838.062 2498.014)">
      <g id="Grupo_7741" data-name="Grupo 7741" transform="translate(0 0)">
        <path id="Trazado_16847" data-name="Trazado 16847" d="M3900.966,2541.109a1.465,1.465,0,1,0,1.464,1.465A1.467,1.467,0,0,0,3900.966,2541.109Z" transform="translate(-3899.501 -2541.109)" fill="#023c7d"/>
      </g>
    </g>
  </g>
</svg>
