<svg xmlns="http://www.w3.org/2000/svg" width="826" height="292.826" viewBox="0 0 826 292.826">
  <g id="Grupo_8902" data-name="Grupo 8902" transform="translate(-181 -1057)">
    <g id="Grupo_7727" data-name="Grupo 7727" transform="translate(-3518.017 -1071.671)">
      <g id="Grupo_7718" data-name="Grupo 7718" transform="translate(3699.016 2135.368)">
        <path id="Trazado_16833" data-name="Trazado 16833" d="M3715.813,2303.544a129.4,129.4,0,0,1-2.555-25.624c0-70.951,57.728-128.674,128.687-128.674a128.731,128.731,0,0,1,119.724,81.415l-13.685,5.407a113.993,113.993,0,0,0-220.012,41.852,114.592,114.592,0,0,0,2.263,22.7Z" transform="translate(-3698.81 -2135.071)" fill="#d53327"/>
        <circle id="Elipse_728" data-name="Elipse 728" cx="101.141" cy="101.141" r="101.141" transform="translate(0 143.035) rotate(-45)" fill="#d53327"/>
        <g id="Grupo_7717" data-name="Grupo 7717" transform="translate(22.277 108.118)">
          <path id="Trazado_16834" data-name="Trazado 16834" d="M3841.66,2398.85a122.329,122.329,0,0,1-115.3-81.723l1.031-.361a121.1,121.1,0,0,0,231.853-69.021l1.061-.261A122.275,122.275,0,0,1,3841.66,2398.85Z" transform="translate(-3720.898 -2241.769)" fill="#939598"/>
          <g id="Grupo_7715" data-name="Grupo 7715" transform="translate(232.722)">
            <path id="Trazado_16835" data-name="Trazado 16835" d="M3950.581,2249.555a6.162,6.162,0,1,1,7.508,4.424A6.163,6.163,0,0,1,3950.581,2249.555Z" transform="translate(-3950.383 -2241.85)" fill="#939598"/>
          </g>
          <g id="Grupo_7716" data-name="Grupo 7716" transform="translate(0 69.271)">
            <path id="Trazado_16836" data-name="Trazado 16836" d="M3732.969,2314.305a6.161,6.161,0,1,0-3.837,7.823A6.162,6.162,0,0,0,3732.969,2314.305Z" transform="translate(-3720.976 -2310.135)" fill="#939598"/>
          </g>
        </g>
      </g>
      <g id="Grupo_7722" data-name="Grupo 7722" transform="translate(3966.93 2135.428)">
        <path id="Trazado_16837" data-name="Trazado 16837" d="M4026.647,2176.4a129.335,129.335,0,0,1,21.848-13.631c63.625-31.4,140.935-5.174,172.336,58.458a128.728,128.728,0,0,1-20.029,143.391l-10.9-9.879a113.992,113.992,0,0,0-134.892-178.776,114.627,114.627,0,0,0-19.358,12.075Z" transform="translate(-3962.197 -2135.127)" fill="#e98b1d"/>
        <circle id="Elipse_729" data-name="Elipse 729" cx="101.141" cy="101.141" r="101.141" transform="translate(0 143.035) rotate(-45)" fill="#e98b1d"/>
        <g id="Grupo_7721" data-name="Grupo 7721" transform="translate(20.892 52.04)">
          <path id="Trazado_16838" data-name="Trazado 16838" d="M3996.3,2331.611a122.327,122.327,0,0,1,22.261-139.563l.779.765a121.1,121.1,0,0,0,164.5,177.371l.7.837a122.275,122.275,0,0,1-188.24-39.409Z" transform="translate(-3983.709 -2186.552)" fill="#939598"/>
          <g id="Grupo_7719" data-name="Grupo 7719" transform="translate(194.042 178.04)">
            <path id="Trazado_16839" data-name="Trazado 16839" d="M4177.126,2363.629a6.162,6.162,0,1,1-.646,8.69A6.163,6.163,0,0,1,4177.126,2363.629Z" transform="translate(-4174.987 -2362.135)" fill="#939598"/>
          </g>
          <g id="Grupo_7720" data-name="Grupo 7720" transform="translate(28.936)">
            <path id="Trazado_16840" data-name="Trazado 16840" d="M4022.762,2197.139a6.161,6.161,0,1,0-8.713.02A6.163,6.163,0,0,0,4022.762,2197.139Z" transform="translate(-4012.233 -2186.631)" fill="#939598"/>
          </g>
        </g>
      </g>
      <g id="Grupo_7726" data-name="Grupo 7726" transform="translate(4238.947 2128.671)">
        <path id="Trazado_16841" data-name="Trazado 16841" d="M4499.994,2244.593a129.419,129.419,0,0,1,2.555,25.624c0,70.951-57.728,128.675-128.686,128.675a128.728,128.728,0,0,1-119.724-81.416l13.684-5.407a113.993,113.993,0,0,0,220.012-41.852,114.593,114.593,0,0,0-2.263-22.7Z" transform="translate(-4230.928 -2126.997)" fill="#1d9dae"/>
        <circle id="Elipse_730" data-name="Elipse 730" cx="101.141" cy="101.141" r="101.141" transform="translate(0 143.035) rotate(-45)" fill="#1d9dae"/>
        <g id="Grupo_7725" data-name="Grupo 7725" transform="translate(18.745 20.872)">
          <path id="Trazado_16842" data-name="Trazado 16842" d="M4373.991,2149.246a122.328,122.328,0,0,1,115.3,81.723l-1.031.361a121.1,121.1,0,0,0-231.852,69.021l-1.062.261a122.275,122.275,0,0,1,118.642-151.365Z" transform="translate(-4249.706 -2149.246)" fill="#939598"/>
          <g id="Grupo_7723" data-name="Grupo 7723" transform="translate(0 144.755)">
            <path id="Trazado_16843" data-name="Trazado 16843" d="M4261.864,2296.56a6.161,6.161,0,1,1-7.508-4.423A6.164,6.164,0,0,1,4261.864,2296.56Z" transform="translate(-4249.736 -2291.939)" fill="#939598"/>
          </g>
          <g id="Grupo_7724" data-name="Grupo 7724" transform="translate(230.715 73.476)">
            <circle id="Elipse_731" data-name="Elipse 731" cx="6.161" cy="6.161" r="6.161" transform="translate(0 11.2) rotate(-65.348)" fill="#939598"/>
          </g>
        </g>
      </g>
      <path id="Trazado_20592" data-name="Trazado 20592" d="M-46.461,0h5.406c3.893,0,6.562-2.346,6.562-5.95s-2.669-5.95-6.562-5.95h-5.406Zm2.754-2.261V-9.639h2.516c2.363,0,3.91,1.411,3.91,3.689s-1.547,3.689-3.91,3.689Zm20.06-2.278a4.528,4.528,0,0,0-4.76-4.743,4.656,4.656,0,0,0-4.879,4.709c0,2.72,2.057,4.709,5.219,4.709a4.79,4.79,0,0,0,3.774-1.479L-25.7-2.873a3.1,3.1,0,0,1-2.3.884,2.439,2.439,0,0,1-2.618-1.836H-23.7C-23.681-4.046-23.647-4.335-23.647-4.539ZM-28.39-7.276a2.173,2.173,0,0,1,2.244,1.9h-4.5A2.165,2.165,0,0,1-28.39-7.276Zm9.044-.663V-9.146h-2.533V0h2.652V-4.318A2.247,2.247,0,0,1-16.8-6.868c.2,0,.374.017.6.034V-9.282A3.691,3.691,0,0,0-19.346-7.939Zm13.6,3.4a4.528,4.528,0,0,0-4.76-4.743,4.656,4.656,0,0,0-4.879,4.709c0,2.72,2.057,4.709,5.219,4.709A4.79,4.79,0,0,0-6.392-1.343L-7.8-2.873a3.1,3.1,0,0,1-2.3.884,2.439,2.439,0,0,1-2.618-1.836H-5.8C-5.78-4.046-5.746-4.335-5.746-4.539Zm-4.743-2.737a2.173,2.173,0,0,1,2.244,1.9H-12.75A2.165,2.165,0,0,1-10.489-7.276ZM.442.136a4.243,4.243,0,0,0,4.1-2.312L2.482-3.3A2.25,2.25,0,0,1,.425-2.04a2.34,2.34,0,0,1-2.4-2.533,2.34,2.34,0,0,1,2.4-2.533A2.281,2.281,0,0,1,2.482-5.848L4.539-6.953a4.2,4.2,0,0,0-4.1-2.329c-2.975,0-5.1,1.955-5.1,4.709S-2.533.136.442.136ZM11.56-9.282A4.02,4.02,0,0,0,8.653-8.194v-4.42H6V0H8.653V-4.522c0-1.683.918-2.465,2.193-2.465,1.173,0,1.853.68,1.853,2.159V0h2.652V-5.236C15.351-8.024,13.719-9.282,11.56-9.282ZM22.2.136a4.694,4.694,0,0,0,5.015-4.709A4.694,4.694,0,0,0,22.2-9.282,4.708,4.708,0,0,0,17.17-4.573,4.708,4.708,0,0,0,22.2.136Zm0-2.176a2.321,2.321,0,0,1-2.346-2.533A2.321,2.321,0,0,1,22.2-7.106a2.308,2.308,0,0,1,2.329,2.533A2.308,2.308,0,0,1,22.2-2.04ZM37.485-9.282a7.031,7.031,0,0,0-3.944,1.1l.952,1.853a4.4,4.4,0,0,1,2.635-.85c1.428,0,2.108.663,2.108,1.8H37.128C34.34-5.372,33.2-4.25,33.2-2.635c0,1.581,1.275,2.771,3.417,2.771a3,3,0,0,0,2.788-1.275V0h2.482V-5.219C41.888-7.99,40.273-9.282,37.485-9.282Zm-.2,7.633c-.935,0-1.5-.442-1.5-1.1,0-.612.391-1.071,1.632-1.071h1.819v.935A1.954,1.954,0,0,1,37.281-1.649ZM-44.735,17.688a1.787,1.787,0,0,1-1.071.34,1.067,1.067,0,0,1-1.139-1.207V13.1h2.278v-2.04h-2.278V8.831H-49.6v2.227h-1.411V13.1H-49.6v3.757c0,2.176,1.258,3.281,3.417,3.281a3.79,3.79,0,0,0,2.159-.578Zm4.743-5.627V10.854h-2.533V20h2.652V15.682a2.247,2.247,0,0,1,2.431-2.55c.2,0,.374.017.6.034V10.718A3.691,3.691,0,0,0-39.992,12.061Zm8.364-1.343a7.031,7.031,0,0,0-3.944,1.1l.952,1.853a4.4,4.4,0,0,1,2.635-.85c1.428,0,2.108.663,2.108,1.8h-2.108c-2.788,0-3.927,1.122-3.927,2.737,0,1.581,1.275,2.771,3.417,2.771a3,3,0,0,0,2.788-1.275V20h2.482V14.781C-27.225,12.01-28.84,10.718-31.628,10.718Zm-.2,7.633c-.935,0-1.5-.442-1.5-1.1,0-.612.391-1.071,1.632-1.071h1.819v.935A1.954,1.954,0,0,1-31.832,18.351Zm12.41-7.633a3.551,3.551,0,0,0-2.754,1.1V7.386h-2.652V20H-22.3V18.946a3.554,3.554,0,0,0,2.873,1.19,4.442,4.442,0,0,0,4.556-4.709A4.442,4.442,0,0,0-19.422,10.718Zm-.459,7.242a2.308,2.308,0,0,1-2.329-2.533,2.308,2.308,0,0,1,2.329-2.533,2.308,2.308,0,0,1,2.329,2.533A2.308,2.308,0,0,1-19.881,17.96Zm10.319-7.242a7.031,7.031,0,0,0-3.944,1.1l.952,1.853a4.4,4.4,0,0,1,2.635-.85c1.428,0,2.108.663,2.108,1.8H-9.919c-2.788,0-3.927,1.122-3.927,2.737,0,1.581,1.275,2.771,3.417,2.771a3,3,0,0,0,2.788-1.275V20h2.482V14.781C-5.159,12.01-6.774,10.718-9.562,10.718Zm-.2,7.633c-.935,0-1.5-.442-1.5-1.1,0-.612.391-1.071,1.632-1.071h1.819v.935A1.954,1.954,0,0,1-9.766,18.351Zm8.449-8.772A1.525,1.525,0,0,0,.332,8.049,1.489,1.489,0,0,0-1.317,6.621,1.516,1.516,0,0,0-2.966,8.1,1.516,1.516,0,0,0-1.317,9.579ZM-3.442,23.434A3.173,3.173,0,0,0,.009,19.983V10.854H-2.643V20c0,.9-.425,1.326-1.088,1.326A1.945,1.945,0,0,1-4.853,21l-.714,1.921A3.862,3.862,0,0,0-3.442,23.434ZM6.146,10.718a7.031,7.031,0,0,0-3.944,1.1l.952,1.853a4.4,4.4,0,0,1,2.635-.85c1.428,0,2.108.663,2.108,1.8H5.789c-2.788,0-3.927,1.122-3.927,2.737,0,1.581,1.275,2.771,3.417,2.771a3,3,0,0,0,2.788-1.275V20h2.482V14.781C10.549,12.01,8.934,10.718,6.146,10.718Zm-.2,7.633c-.935,0-1.5-.442-1.5-1.1,0-.612.391-1.071,1.632-1.071H7.9v.935A1.954,1.954,0,0,1,5.942,18.351Zm9.537-6.29V10.854H12.946V20H15.6V15.682a2.247,2.247,0,0,1,2.431-2.55c.2,0,.374.017.6.034V10.718A3.691,3.691,0,0,0,15.479,12.061Zm18.564,3.4a4.528,4.528,0,0,0-4.76-4.743A4.656,4.656,0,0,0,24.4,15.427c0,2.72,2.057,4.709,5.219,4.709A4.79,4.79,0,0,0,33.4,18.657l-1.411-1.53a3.1,3.1,0,0,1-2.3.884,2.439,2.439,0,0,1-2.618-1.836h6.919C34.008,15.954,34.042,15.665,34.042,15.461ZM29.3,12.724a2.173,2.173,0,0,1,2.244,1.9h-4.5A2.165,2.165,0,0,1,29.3,12.724Zm12.07-2.006a4,4,0,0,0-3.026,1.207V10.854H35.811V20h2.652V15.478c0-1.683.918-2.465,2.193-2.465,1.173,0,1.853.68,1.853,2.159V20h2.652V14.764C45.161,11.976,43.529,10.718,41.37,10.718ZM-50.609,40.136a4.243,4.243,0,0,0,4.1-2.312L-48.569,36.7a2.25,2.25,0,0,1-2.057,1.258,2.34,2.34,0,0,1-2.4-2.533,2.34,2.34,0,0,1,2.4-2.533,2.281,2.281,0,0,1,2.057,1.258l2.057-1.1a4.2,4.2,0,0,0-4.1-2.329c-2.975,0-5.1,1.955-5.1,4.709S-53.584,40.136-50.609,40.136Zm9.86,0a4.694,4.694,0,0,0,5.015-4.709,4.694,4.694,0,0,0-5.015-4.709,4.708,4.708,0,0,0-5.032,4.709A4.708,4.708,0,0,0-40.749,40.136Zm0-2.176a2.321,2.321,0,0,1-2.346-2.533,2.321,2.321,0,0,1,2.346-2.533,2.308,2.308,0,0,1,2.329,2.533A2.308,2.308,0,0,1-40.749,37.96Zm12.342-7.242a4,4,0,0,0-3.026,1.207V30.854h-2.533V40h2.652V35.478c0-1.683.918-2.465,2.193-2.465,1.173,0,1.853.68,1.853,2.159V40h2.652V34.764C-24.616,31.976-26.248,30.718-28.407,30.718Zm12.954-3.332v4.437a3.514,3.514,0,0,0-2.737-1.1,4.446,4.446,0,0,0-4.573,4.709,4.446,4.446,0,0,0,4.573,4.709,3.518,3.518,0,0,0,2.856-1.19V40H-12.8V27.386ZM-17.731,37.96a2.321,2.321,0,0,1-2.346-2.533,2.321,2.321,0,0,1,2.346-2.533A2.317,2.317,0,0,1-15.4,35.427,2.317,2.317,0,0,1-17.731,37.96Zm8.7-8.381a1.525,1.525,0,0,0,1.649-1.53,1.489,1.489,0,0,0-1.649-1.428A1.516,1.516,0,0,0-10.676,28.1,1.516,1.516,0,0,0-9.027,29.579ZM-10.353,40H-7.7V30.854h-2.652Zm9.537.136a4.243,4.243,0,0,0,4.1-2.312L1.224,36.7A2.25,2.25,0,0,1-.833,37.96a2.34,2.34,0,0,1-2.4-2.533,2.34,2.34,0,0,1,2.4-2.533,2.281,2.281,0,0,1,2.057,1.258l2.057-1.1a4.2,4.2,0,0,0-4.1-2.329c-2.975,0-5.1,1.955-5.1,4.709S-3.791,40.136-.816,40.136ZM6.137,29.579a1.525,1.525,0,0,0,1.649-1.53,1.489,1.489,0,0,0-1.649-1.428,1.488,1.488,0,1,0,0,2.958ZM4.811,40H7.463V30.854H4.811Zm9.469.136a4.718,4.718,0,1,0,0-9.418,4.719,4.719,0,1,0,0,9.418Zm0-2.176a2.321,2.321,0,0,1-2.346-2.533,2.345,2.345,0,1,1,4.675,0A2.308,2.308,0,0,1,14.28,37.96Zm12.342-7.242A4,4,0,0,0,23.6,31.925V30.854H21.063V40h2.652V35.478c0-1.683.918-2.465,2.193-2.465,1.173,0,1.853.68,1.853,2.159V40h2.652V34.764C30.413,31.976,28.781,30.718,26.622,30.718Zm15.249,4.743a4.528,4.528,0,0,0-4.76-4.743,4.656,4.656,0,0,0-4.879,4.709c0,2.72,2.057,4.709,5.219,4.709a4.79,4.79,0,0,0,3.774-1.479l-1.411-1.53a3.1,3.1,0,0,1-2.295.884A2.439,2.439,0,0,1,34.9,36.175H41.82C41.837,35.954,41.871,35.665,41.871,35.461Zm-4.743-2.737a2.173,2.173,0,0,1,2.244,1.9h-4.5A2.165,2.165,0,0,1,37.128,32.724Zm9.588,7.412c2.737,0,4.318-1.207,4.318-2.907,0-3.6-5.525-2.091-5.525-3.655,0-.476.51-.85,1.7-.85a5.252,5.252,0,0,1,2.635.68l.884-1.887a7.521,7.521,0,0,0-3.519-.8c-2.669,0-4.233,1.224-4.233,2.958,0,3.655,5.525,2.125,5.525,3.621,0,.51-.459.833-1.683.833a6.257,6.257,0,0,1-3.179-.884l-.884,1.9A7.852,7.852,0,0,0,46.716,40.136Zm-78.744,7.25v4.437a3.514,3.514,0,0,0-2.737-1.1,4.446,4.446,0,0,0-4.573,4.709,4.446,4.446,0,0,0,4.573,4.709,3.518,3.518,0,0,0,2.856-1.19V60h2.533V47.386ZM-34.306,57.96a2.321,2.321,0,0,1-2.346-2.533,2.321,2.321,0,0,1,2.346-2.533,2.317,2.317,0,0,1,2.329,2.533A2.317,2.317,0,0,1-34.306,57.96Zm8.7-8.381a1.525,1.525,0,0,0,1.649-1.53A1.489,1.489,0,0,0-25.6,46.621,1.516,1.516,0,0,0-27.251,48.1,1.516,1.516,0,0,0-25.6,49.579ZM-26.928,60h2.652V50.854h-2.652Zm12.036-9.146v1.173a3.671,3.671,0,0,0-3.026-1.309,4.354,4.354,0,0,0-4.573,4.42,4.354,4.354,0,0,0,4.573,4.42,3.765,3.765,0,0,0,2.89-1.139v.391c0,1.649-.816,2.5-2.686,2.5a5.466,5.466,0,0,1-3.23-1.037L-22,62.176a7.534,7.534,0,0,0,4.488,1.258c3.3,0,5.134-1.564,5.134-4.964V50.854Zm-2.5,6.528a2.235,2.235,0,0,1-2.414-2.244,2.235,2.235,0,0,1,2.414-2.244,2.221,2.221,0,0,1,2.4,2.244A2.221,2.221,0,0,1-17.391,57.382Zm13.039-6.664a4,4,0,0,0-3.026,1.207V50.854H-9.911V60h2.652V55.478c0-1.683.918-2.465,2.193-2.465,1.173,0,1.853.68,1.853,2.159V60H-.561V54.764C-.561,51.976-2.193,50.718-4.352,50.718Zm9.877,0a7.031,7.031,0,0,0-3.944,1.1l.952,1.853a4.4,4.4,0,0,1,2.635-.85c1.428,0,2.108.663,2.108,1.8H5.168c-2.788,0-3.927,1.122-3.927,2.737,0,1.581,1.275,2.771,3.417,2.771a3,3,0,0,0,2.788-1.275V60H9.928V54.781C9.928,52.01,8.313,50.718,5.525,50.718Zm-.2,7.633c-.935,0-1.5-.442-1.5-1.105,0-.612.391-1.071,1.632-1.071H7.276v.935A1.954,1.954,0,0,1,5.321,58.351ZM15.4,60.136c2.737,0,4.318-1.207,4.318-2.907,0-3.6-5.525-2.091-5.525-3.655,0-.476.51-.85,1.7-.85a5.252,5.252,0,0,1,2.635.68l.884-1.887a7.521,7.521,0,0,0-3.519-.8c-2.669,0-4.233,1.224-4.233,2.958,0,3.655,5.525,2.125,5.525,3.621,0,.51-.459.833-1.683.833a6.257,6.257,0,0,1-3.179-.884l-.884,1.9A7.852,7.852,0,0,0,15.4,60.136Zm17.289-9.282-2.584,6.2-2.567-6.2H24.8l3.961,9.214-.034.085c-.357.816-.765,1.139-1.5,1.139a2.351,2.351,0,0,1-1.5-.578L24.769,62.6a4.061,4.061,0,0,0,2.55.833c1.649,0,2.907-.663,3.791-2.873l4.131-9.707ZM-33.133,80.136c2.737,0,4.318-1.207,4.318-2.907,0-3.6-5.525-2.091-5.525-3.655,0-.476.51-.85,1.7-.85A5.252,5.252,0,0,1-30,73.4l.884-1.887a7.521,7.521,0,0,0-3.519-.8c-2.669,0-4.233,1.224-4.233,2.958,0,3.655,5.525,2.125,5.525,3.621,0,.51-.459.833-1.683.833a6.257,6.257,0,0,1-3.179-.884l-.884,1.9A7.852,7.852,0,0,0-33.133,80.136Zm14.909-4.675a4.528,4.528,0,0,0-4.76-4.743,4.656,4.656,0,0,0-4.879,4.709c0,2.72,2.057,4.709,5.219,4.709a4.79,4.79,0,0,0,3.774-1.479l-1.411-1.53a3.1,3.1,0,0,1-2.3.884,2.439,2.439,0,0,1-2.618-1.836h6.919C-18.258,75.954-18.224,75.665-18.224,75.461Zm-4.743-2.737a2.173,2.173,0,0,1,2.244,1.9h-4.5A2.165,2.165,0,0,1-22.967,72.724Zm13.43-1.87v1.173a3.671,3.671,0,0,0-3.026-1.309,4.354,4.354,0,0,0-4.573,4.42,4.354,4.354,0,0,0,4.573,4.42,3.765,3.765,0,0,0,2.89-1.139v.391c0,1.649-.816,2.5-2.686,2.5a5.466,5.466,0,0,1-3.23-1.037l-1.054,1.9a7.534,7.534,0,0,0,4.488,1.258c3.3,0,5.134-1.564,5.134-4.964V70.854Zm-2.5,6.528a2.235,2.235,0,0,1-2.414-2.244,2.235,2.235,0,0,1,2.414-2.244,2.221,2.221,0,0,1,2.4,2.244A2.221,2.221,0,0,1-12.036,77.382ZM2.006,70.854v4.522c0,1.683-.884,2.465-2.108,2.465-1.173,0-1.853-.68-1.853-2.21V70.854H-4.607v5.168c0,2.822,1.615,4.114,3.91,4.114a3.7,3.7,0,0,0,2.839-1.224V80H4.658V70.854Zm7.65,1.207V70.854H7.123V80H9.775V75.682a2.247,2.247,0,0,1,2.431-2.55c.2,0,.374.017.6.034V70.718A3.691,3.691,0,0,0,9.656,72.061Zm8.364-1.343a7.031,7.031,0,0,0-3.944,1.1l.952,1.853a4.4,4.4,0,0,1,2.635-.85c1.428,0,2.108.663,2.108,1.8H17.663c-2.788,0-3.927,1.122-3.927,2.737,0,1.581,1.275,2.771,3.417,2.771a3,3,0,0,0,2.788-1.275V80h2.482V74.781C22.423,72.01,20.808,70.718,18.02,70.718Zm-.2,7.633c-.935,0-1.5-.442-1.5-1.1,0-.612.391-1.071,1.632-1.071h1.819v.935A1.954,1.954,0,0,1,17.816,78.351ZM27.9,80.136c2.737,0,4.318-1.207,4.318-2.907,0-3.6-5.525-2.091-5.525-3.655,0-.476.51-.85,1.7-.85a5.252,5.252,0,0,1,2.635.68l.884-1.887a7.521,7.521,0,0,0-3.519-.8c-2.669,0-4.233,1.224-4.233,2.958,0,3.655,5.525,2.125,5.525,3.621,0,.51-.459.833-1.683.833a6.257,6.257,0,0,1-3.179-.884l-.884,1.9A7.852,7.852,0,0,0,27.9,80.136Z" transform="translate(3841.978 2244.367)"/>
      <path id="Trazado_20591" data-name="Trazado 20591" d="M-40.061.2a6.114,6.114,0,0,0,4.913-2.125l-1.768-1.632a3.792,3.792,0,0,1-2.992,1.411A3.651,3.651,0,0,1-43.715-5.95a3.651,3.651,0,0,1,3.808-3.808,3.829,3.829,0,0,1,2.992,1.394L-35.147-10a6.143,6.143,0,0,0-4.9-2.108A6.114,6.114,0,0,0-46.5-5.95,6.109,6.109,0,0,0-40.061.2Zm10.2-9.486a7.031,7.031,0,0,0-3.944,1.1l.952,1.853a4.4,4.4,0,0,1,2.635-.85c1.428,0,2.108.663,2.108,1.8h-2.108c-2.788,0-3.927,1.122-3.927,2.737,0,1.581,1.275,2.771,3.417,2.771a3,3,0,0,0,2.788-1.275V0h2.482V-5.219C-25.457-7.99-27.072-9.282-29.86-9.282Zm-.2,7.633c-.935,0-1.5-.442-1.5-1.1,0-.612.391-1.071,1.632-1.071h1.819v.935A1.954,1.954,0,0,1-30.064-1.649Zm12.41-7.633a3.554,3.554,0,0,0-2.873,1.19V-9.146h-2.533V3.3h2.652V-.969a3.551,3.551,0,0,0,2.754,1.1A4.442,4.442,0,0,0-13.1-4.573,4.442,4.442,0,0,0-17.655-9.282Zm-.459,7.242a2.308,2.308,0,0,1-2.329-2.533,2.308,2.308,0,0,1,2.329-2.533,2.308,2.308,0,0,1,2.329,2.533A2.308,2.308,0,0,1-18.114-2.04ZM-7.795-9.282a7.031,7.031,0,0,0-3.944,1.1l.952,1.853a4.4,4.4,0,0,1,2.635-.85c1.428,0,2.108.663,2.108,1.8H-8.152c-2.788,0-3.927,1.122-3.927,2.737,0,1.581,1.275,2.771,3.417,2.771A3,3,0,0,0-5.874-1.139V0h2.482V-5.219C-3.392-7.99-5.007-9.282-7.795-9.282ZM-8-1.649c-.935,0-1.5-.442-1.5-1.1,0-.612.391-1.071,1.632-1.071h1.819v.935A1.954,1.954,0,0,1-8-1.649ZM3.527.136a4.243,4.243,0,0,0,4.1-2.312L5.567-3.3A2.25,2.25,0,0,1,3.51-2.04a2.34,2.34,0,0,1-2.4-2.533,2.34,2.34,0,0,1,2.4-2.533A2.281,2.281,0,0,1,5.567-5.848L7.624-6.953a4.2,4.2,0,0,0-4.1-2.329c-2.975,0-5.1,1.955-5.1,4.709S.552.136,3.527.136Zm6.953-10.557a1.525,1.525,0,0,0,1.649-1.53,1.489,1.489,0,0,0-1.649-1.428A1.516,1.516,0,0,0,8.832-11.9,1.516,1.516,0,0,0,10.481-10.421ZM9.155,0h2.652V-9.146H9.155ZM20.936-12.614v4.437a3.514,3.514,0,0,0-2.737-1.1,4.446,4.446,0,0,0-4.573,4.709A4.446,4.446,0,0,0,18.2.136a3.518,3.518,0,0,0,2.856-1.19V0h2.533V-12.614ZM18.658-2.04a2.321,2.321,0,0,1-2.346-2.533,2.321,2.321,0,0,1,2.346-2.533,2.317,2.317,0,0,1,2.329,2.533A2.317,2.317,0,0,1,18.658-2.04ZM29.724-9.282a7.031,7.031,0,0,0-3.944,1.1l.952,1.853a4.4,4.4,0,0,1,2.635-.85c1.428,0,2.108.663,2.108,1.8H29.367c-2.788,0-3.927,1.122-3.927,2.737,0,1.581,1.275,2.771,3.417,2.771a3,3,0,0,0,2.788-1.275V0h2.482V-5.219C34.127-7.99,32.512-9.282,29.724-9.282Zm-.2,7.633c-.935,0-1.5-.442-1.5-1.1,0-.612.391-1.071,1.632-1.071h1.819v.935A1.954,1.954,0,0,1,29.52-1.649Zm13.77-10.965v4.437a3.514,3.514,0,0,0-2.737-1.1A4.446,4.446,0,0,0,35.98-4.573,4.446,4.446,0,0,0,40.554.136a3.518,3.518,0,0,0,2.856-1.19V0h2.533V-12.614ZM41.013-2.04a2.321,2.321,0,0,1-2.346-2.533,2.321,2.321,0,0,1,2.346-2.533,2.317,2.317,0,0,1,2.329,2.533A2.317,2.317,0,0,1,41.013-2.04ZM-49.615,10.718a3.554,3.554,0,0,0-2.873,1.19V10.854h-2.533V23.3h2.652V19.031a3.551,3.551,0,0,0,2.754,1.1,4.442,4.442,0,0,0,4.556-4.709A4.442,4.442,0,0,0-49.615,10.718Zm-.459,7.242A2.308,2.308,0,0,1-52.4,15.427a2.308,2.308,0,0,1,2.329-2.533,2.308,2.308,0,0,1,2.329,2.533A2.308,2.308,0,0,1-50.074,17.96Zm10.319-7.242a7.031,7.031,0,0,0-3.944,1.1l.952,1.853a4.4,4.4,0,0,1,2.635-.85c1.428,0,2.108.663,2.108,1.8h-2.108c-2.788,0-3.927,1.122-3.927,2.737,0,1.581,1.275,2.771,3.417,2.771a3,3,0,0,0,2.788-1.275V20h2.482V14.781C-35.352,12.01-36.967,10.718-39.755,10.718Zm-.2,7.633c-.935,0-1.5-.442-1.5-1.1,0-.612.391-1.071,1.632-1.071H-38v.935A1.954,1.954,0,0,1-39.959,18.351Zm9.537-6.29V10.854h-2.533V20H-30.3V15.682a2.247,2.247,0,0,1,2.431-2.55c.2,0,.374.017.6.034V10.718A3.691,3.691,0,0,0-30.422,12.061Zm8.364-1.343A7.031,7.031,0,0,0-26,11.823l.952,1.853a4.4,4.4,0,0,1,2.635-.85c1.428,0,2.108.663,2.108,1.8h-2.108c-2.788,0-3.927,1.122-3.927,2.737,0,1.581,1.275,2.771,3.417,2.771a3,3,0,0,0,2.788-1.275V20h2.482V14.781C-17.655,12.01-19.27,10.718-22.058,10.718Zm-.2,7.633c-.935,0-1.5-.442-1.5-1.1,0-.612.391-1.071,1.632-1.071h1.819v.935A1.954,1.954,0,0,1-22.262,18.351Zm20.774-2.89a4.528,4.528,0,0,0-4.76-4.743,4.656,4.656,0,0,0-4.879,4.709c0,2.72,2.057,4.709,5.219,4.709a4.79,4.79,0,0,0,3.774-1.479l-1.411-1.53a3.1,3.1,0,0,1-2.295.884,2.439,2.439,0,0,1-2.618-1.836h6.919C-1.522,15.954-1.488,15.665-1.488,15.461Zm-4.743-2.737a2.173,2.173,0,0,1,2.244,1.9H-8.492A2.165,2.165,0,0,1-6.231,12.724Zm9.588,7.412c2.737,0,4.318-1.207,4.318-2.907,0-3.6-5.525-2.091-5.525-3.655,0-.476.51-.85,1.7-.85a5.252,5.252,0,0,1,2.635.68l.884-1.887a7.521,7.521,0,0,0-3.519-.8c-2.669,0-4.233,1.224-4.233,2.958,0,3.655,5.525,2.125,5.525,3.621,0,.51-.459.833-1.683.833A6.257,6.257,0,0,1,.28,17.246L-.6,19.15A7.852,7.852,0,0,0,3.357,20.136Zm11.135-2.448a1.787,1.787,0,0,1-1.071.34,1.067,1.067,0,0,1-1.139-1.207V13.1h2.278v-2.04H12.282V8.831H9.63v2.227H8.219V13.1H9.63v3.757c0,2.176,1.258,3.281,3.417,3.281a3.79,3.79,0,0,0,2.159-.578Zm3.536-8.109a1.525,1.525,0,0,0,1.649-1.53,1.489,1.489,0,0,0-1.649-1.428,1.488,1.488,0,1,0,0,2.958ZM16.7,20h2.652V10.854H16.7Zm16.83-9.282a4.113,4.113,0,0,0-3.3,1.5,3.414,3.414,0,0,0-3.009-1.5,3.7,3.7,0,0,0-2.873,1.19V10.854H21.819V20h2.652V15.41c0-1.632.833-2.4,2.006-2.4,1.1,0,1.734.68,1.734,2.159V20h2.652V15.41c0-1.632.833-2.4,2.023-2.4,1.071,0,1.734.68,1.734,2.159V20h2.652V14.764C37.272,11.976,35.708,10.718,33.532,10.718Zm9.809,0a7.031,7.031,0,0,0-3.944,1.1l.952,1.853a4.4,4.4,0,0,1,2.635-.85c1.428,0,2.108.663,2.108,1.8H42.984c-2.788,0-3.927,1.122-3.927,2.737,0,1.581,1.275,2.771,3.417,2.771a3,3,0,0,0,2.788-1.275V20h2.482V14.781C47.744,12.01,46.129,10.718,43.341,10.718Zm-.2,7.633c-.935,0-1.5-.442-1.5-1.1,0-.612.391-1.071,1.632-1.071h1.819v.935A1.954,1.954,0,0,1,43.137,18.351Zm9.537-6.29V10.854H50.141V20h2.652V15.682a2.247,2.247,0,0,1,2.431-2.55c.2,0,.374.017.6.034V10.718A3.691,3.691,0,0,0,52.674,12.061ZM-36.32,30.854v4.522c0,1.683-.884,2.465-2.108,2.465-1.173,0-1.853-.68-1.853-2.21V30.854h-2.652v5.168c0,2.822,1.615,4.114,3.91,4.114a3.7,3.7,0,0,0,2.839-1.224V40h2.516V30.854Zm10.676-.136a4,4,0,0,0-3.026,1.207V30.854H-31.2V40h2.652V35.478c0-1.683.918-2.465,2.193-2.465,1.173,0,1.853.68,1.853,2.159V40h2.652V34.764C-21.853,31.976-23.485,30.718-25.644,30.718Zm13.532,1.343V30.854h-2.533V40h2.652V35.682a2.247,2.247,0,0,1,2.431-2.55c.2,0,.374.017.6.034V30.718A3.691,3.691,0,0,0-12.112,32.061Zm6.052-2.482a1.525,1.525,0,0,0,1.649-1.53,1.489,1.489,0,0,0-1.649-1.428A1.516,1.516,0,0,0-7.71,28.1,1.516,1.516,0,0,0-6.061,29.579ZM-7.387,40h2.652V30.854H-7.387ZM6.689,35.461a4.528,4.528,0,0,0-4.76-4.743,4.656,4.656,0,0,0-4.879,4.709c0,2.72,2.057,4.709,5.219,4.709a4.79,4.79,0,0,0,3.774-1.479l-1.411-1.53a3.1,3.1,0,0,1-2.295.884A2.439,2.439,0,0,1-.28,36.175H6.639C6.656,35.954,6.689,35.665,6.689,35.461ZM1.947,32.724a2.173,2.173,0,0,1,2.244,1.9h-4.5A2.165,2.165,0,0,1,1.947,32.724Zm9.588,7.412c2.737,0,4.318-1.207,4.318-2.907,0-3.6-5.525-2.091-5.525-3.655,0-.476.51-.85,1.7-.85a5.252,5.252,0,0,1,2.635.68l.884-1.887a7.521,7.521,0,0,0-3.519-.8c-2.669,0-4.233,1.224-4.233,2.958,0,3.655,5.525,2.125,5.525,3.621,0,.51-.459.833-1.683.833a6.257,6.257,0,0,1-3.179-.884l-.884,1.9A7.852,7.852,0,0,0,11.535,40.136ZM24.4,30.854v1.173a3.671,3.671,0,0,0-3.026-1.309,4.423,4.423,0,1,0,0,8.84,3.765,3.765,0,0,0,2.89-1.139v.391c0,1.649-.816,2.5-2.686,2.5a5.466,5.466,0,0,1-3.23-1.037l-1.054,1.9a7.534,7.534,0,0,0,4.488,1.258c3.3,0,5.134-1.564,5.134-4.964V30.854Zm-2.5,6.528a2.25,2.25,0,1,1,0-4.488,2.249,2.249,0,1,1,0,4.488Zm11.832,2.754a4.718,4.718,0,1,0,0-9.418,4.719,4.719,0,1,0,0,9.418Zm0-2.176a2.321,2.321,0,0,1-2.346-2.533,2.345,2.345,0,1,1,4.675,0A2.308,2.308,0,0,1,33.736,37.96ZM-51.17,60.136a4.694,4.694,0,0,0,5.015-4.709,4.694,4.694,0,0,0-5.015-4.709A4.708,4.708,0,0,0-56.2,55.427,4.708,4.708,0,0,0-51.17,60.136Zm0-2.176a2.321,2.321,0,0,1-2.346-2.533,2.321,2.321,0,0,1,2.346-2.533,2.308,2.308,0,0,1,2.329,2.533A2.308,2.308,0,0,1-51.17,57.96Zm11.2,2.176a4.243,4.243,0,0,0,4.1-2.312L-37.927,56.7a2.25,2.25,0,0,1-2.057,1.258,2.34,2.34,0,0,1-2.4-2.533,2.34,2.34,0,0,1,2.4-2.533,2.281,2.281,0,0,1,2.057,1.258l2.057-1.1a4.2,4.2,0,0,0-4.1-2.329c-2.975,0-5.1,1.955-5.1,4.709S-42.942,60.136-39.967,60.136Zm12.189-9.282v4.522c0,1.683-.884,2.465-2.108,2.465-1.173,0-1.853-.68-1.853-2.21V50.854h-2.652v5.168c0,2.822,1.615,4.114,3.91,4.114a3.7,3.7,0,0,0,2.839-1.224V60h2.516V50.854Zm10.523-.136a3.554,3.554,0,0,0-2.873,1.19V50.854h-2.533V63.3h2.652V59.031a3.551,3.551,0,0,0,2.754,1.105A4.442,4.442,0,0,0-12.7,55.427,4.442,4.442,0,0,0-17.255,50.718Zm-.459,7.242a2.308,2.308,0,0,1-2.329-2.533,2.308,2.308,0,0,1,2.329-2.533,2.308,2.308,0,0,1,2.329,2.533A2.308,2.308,0,0,1-17.714,57.96Zm10.319-7.242a7.031,7.031,0,0,0-3.944,1.1l.952,1.853a4.4,4.4,0,0,1,2.635-.85c1.428,0,2.108.663,2.108,1.8H-7.752c-2.788,0-3.927,1.122-3.927,2.737,0,1.581,1.275,2.771,3.417,2.771a3,3,0,0,0,2.788-1.275V60h2.482V54.781C-2.992,52.01-4.607,50.718-7.395,50.718Zm-.2,7.633c-.935,0-1.5-.442-1.5-1.105,0-.612.391-1.071,1.632-1.071h1.819v.935A1.954,1.954,0,0,1-7.6,58.351ZM3.927,60.136a4.243,4.243,0,0,0,4.1-2.312L5.967,56.7A2.25,2.25,0,0,1,3.91,57.96a2.537,2.537,0,0,1,0-5.066,2.281,2.281,0,0,1,2.057,1.258l2.057-1.1a4.2,4.2,0,0,0-4.1-2.329c-2.975,0-5.1,1.955-5.1,4.709S.952,60.136,3.927,60.136ZM10.88,49.579a1.525,1.525,0,0,0,1.649-1.53,1.489,1.489,0,0,0-1.649-1.428,1.488,1.488,0,1,0,0,2.958ZM9.554,60h2.652V50.854H9.554Zm9.469.136a4.718,4.718,0,1,0,0-9.418,4.719,4.719,0,1,0,0,9.418Zm0-2.176a2.542,2.542,0,1,1,2.329-2.533A2.321,2.321,0,0,1,19.023,57.96Zm12.342-7.242a4,4,0,0,0-3.026,1.207V50.854H25.806V60h2.652V55.478c0-1.683.918-2.465,2.193-2.465,1.173,0,1.853.68,1.853,2.159V60h2.652V54.764C35.156,51.976,33.524,50.718,31.365,50.718Zm9.877,0a7.031,7.031,0,0,0-3.944,1.1l.952,1.853a4.4,4.4,0,0,1,2.635-.85c1.428,0,2.108.663,2.108,1.8H40.885c-2.788,0-3.927,1.122-3.927,2.737,0,1.581,1.275,2.771,3.417,2.771a3,3,0,0,0,2.788-1.275V60h2.482V54.781C45.645,52.01,44.03,50.718,41.242,50.718Zm-.2,7.633c-.935,0-1.5-.442-1.5-1.105,0-.612.391-1.071,1.632-1.071h1.819v.935A1.954,1.954,0,0,1,41.038,58.351Zm7,1.649h2.652V47.386H48.042Z" transform="translate(4110.385 2249.473)"/>
      <path id="Trazado_20593" data-name="Trazado 20593" d="M-42.746.2a6.114,6.114,0,0,0,4.913-2.125L-39.6-3.553a3.792,3.792,0,0,1-2.992,1.411A3.651,3.651,0,0,1-46.4-5.95a3.651,3.651,0,0,1,3.808-3.808A3.829,3.829,0,0,1-39.6-8.364L-37.833-10a6.143,6.143,0,0,0-4.9-2.108,6.114,6.114,0,0,0-6.46,6.154A6.109,6.109,0,0,0-42.746.2ZM-32.138.136a4.694,4.694,0,0,0,5.015-4.709,4.694,4.694,0,0,0-5.015-4.709A4.708,4.708,0,0,0-37.17-4.573,4.708,4.708,0,0,0-32.138.136Zm0-2.176a2.321,2.321,0,0,1-2.346-2.533,2.321,2.321,0,0,1,2.346-2.533,2.308,2.308,0,0,1,2.329,2.533A2.308,2.308,0,0,1-32.138-2.04ZM-19.8-9.282a4,4,0,0,0-3.026,1.207V-9.146h-2.533V0H-22.7V-4.522c0-1.683.918-2.465,2.193-2.465,1.173,0,1.853.68,1.853,2.159V0h2.652V-5.236C-16.005-8.024-17.637-9.282-19.8-9.282ZM-9.154.136A4.694,4.694,0,0,0-4.139-4.573,4.694,4.694,0,0,0-9.154-9.282a4.708,4.708,0,0,0-5.032,4.709A4.708,4.708,0,0,0-9.154.136Zm0-2.176A2.321,2.321,0,0,1-11.5-4.573,2.321,2.321,0,0,1-9.154-7.106,2.308,2.308,0,0,1-6.825-4.573,2.308,2.308,0,0,1-9.154-2.04ZM2.049.136a4.243,4.243,0,0,0,4.1-2.312L4.089-3.3A2.25,2.25,0,0,1,2.032-2.04a2.34,2.34,0,0,1-2.4-2.533,2.34,2.34,0,0,1,2.4-2.533A2.281,2.281,0,0,1,4.089-5.848L6.146-6.953a4.2,4.2,0,0,0-4.1-2.329c-2.975,0-5.1,1.955-5.1,4.709S-.926.136,2.049.136ZM16.516-4.539a4.528,4.528,0,0,0-4.76-4.743A4.656,4.656,0,0,0,6.877-4.573C6.877-1.853,8.934.136,12.1.136A4.79,4.79,0,0,0,15.87-1.343l-1.411-1.53a3.1,3.1,0,0,1-2.3.884A2.439,2.439,0,0,1,9.546-3.825h6.919C16.482-4.046,16.516-4.335,16.516-4.539ZM11.773-7.276a2.173,2.173,0,0,1,2.244,1.9H9.512A2.165,2.165,0,0,1,11.773-7.276Zm9.044-.663V-9.146H18.284V0h2.652V-4.318a2.247,2.247,0,0,1,2.431-2.55c.2,0,.374.017.6.034V-9.282A3.691,3.691,0,0,0,20.817-7.939Zm18.564,3.4a4.528,4.528,0,0,0-4.76-4.743,4.656,4.656,0,0,0-4.879,4.709c0,2.72,2.057,4.709,5.219,4.709a4.79,4.79,0,0,0,3.774-1.479l-1.411-1.53a3.1,3.1,0,0,1-2.295.884,2.439,2.439,0,0,1-2.618-1.836H39.33C39.347-4.046,39.381-4.335,39.381-4.539ZM34.638-7.276a2.173,2.173,0,0,1,2.244,1.9H32.377A2.165,2.165,0,0,1,34.638-7.276ZM41.149,0H43.8V-12.614H41.149ZM-61.4,10.718a3.554,3.554,0,0,0-2.873,1.19V10.854H-66.8V23.3h2.652V19.031a3.551,3.551,0,0,0,2.754,1.1,4.442,4.442,0,0,0,4.556-4.709A4.442,4.442,0,0,0-61.4,10.718Zm-.459,7.242a2.308,2.308,0,0,1-2.329-2.533,2.308,2.308,0,0,1,2.329-2.533,2.308,2.308,0,0,1,2.329,2.533A2.308,2.308,0,0,1-61.855,17.96Zm9.316-5.9V10.854h-2.533V20h2.652V15.682a2.247,2.247,0,0,1,2.431-2.55c.2,0,.374.017.6.034V10.718A3.691,3.691,0,0,0-52.539,12.061Zm8.993,8.075a4.694,4.694,0,0,0,5.015-4.709,4.694,4.694,0,0,0-5.015-4.709,4.708,4.708,0,0,0-5.032,4.709A4.708,4.708,0,0,0-43.546,20.136Zm0-2.176a2.321,2.321,0,0,1-2.346-2.533,2.321,2.321,0,0,1,2.346-2.533,2.308,2.308,0,0,1,2.329,2.533A2.308,2.308,0,0,1-43.546,17.96Zm11.2,2.176a4.243,4.243,0,0,0,4.1-2.312L-30.3,16.7A2.25,2.25,0,0,1-32.36,17.96a2.34,2.34,0,0,1-2.4-2.533,2.34,2.34,0,0,1,2.4-2.533A2.281,2.281,0,0,1-30.3,14.152l2.057-1.105a4.2,4.2,0,0,0-4.1-2.329c-2.975,0-5.1,1.955-5.1,4.709S-35.318,20.136-32.343,20.136Zm14.467-4.675a4.528,4.528,0,0,0-4.76-4.743,4.656,4.656,0,0,0-4.879,4.709c0,2.72,2.057,4.709,5.219,4.709a4.79,4.79,0,0,0,3.774-1.479l-1.411-1.53a3.1,3.1,0,0,1-2.3.884,2.439,2.439,0,0,1-2.618-1.836h6.919C-17.91,15.954-17.876,15.665-17.876,15.461Zm-4.743-2.737a2.173,2.173,0,0,1,2.244,1.9h-4.5A2.165,2.165,0,0,1-22.619,12.724ZM-9.444,7.386v4.437a3.514,3.514,0,0,0-2.737-1.1,4.446,4.446,0,0,0-4.573,4.709,4.446,4.446,0,0,0,4.573,4.709,3.518,3.518,0,0,0,2.856-1.19V20h2.533V7.386ZM-11.722,17.96a2.321,2.321,0,0,1-2.346-2.533,2.321,2.321,0,0,1,2.346-2.533,2.317,2.317,0,0,1,2.329,2.533A2.317,2.317,0,0,1-11.722,17.96Zm8.7-8.381a1.525,1.525,0,0,0,1.649-1.53A1.489,1.489,0,0,0-3.018,6.621,1.516,1.516,0,0,0-4.667,8.1,1.516,1.516,0,0,0-3.018,9.579ZM-4.344,20h2.652V10.854H-4.344Zm16.83-9.282a4.113,4.113,0,0,0-3.3,1.5,3.414,3.414,0,0,0-3.009-1.5,3.7,3.7,0,0,0-2.873,1.19V10.854H.773V20H3.425V15.41c0-1.632.833-2.4,2.006-2.4,1.105,0,1.734.68,1.734,2.159V20H9.817V15.41c0-1.632.833-2.4,2.023-2.4,1.071,0,1.734.68,1.734,2.159V20h2.652V14.764C16.226,11.976,14.662,10.718,12.486,10.718Zm7.446-1.139a1.525,1.525,0,0,0,1.649-1.53,1.489,1.489,0,0,0-1.649-1.428,1.488,1.488,0,1,0,0,2.958ZM18.606,20h2.652V10.854H18.606Zm14.076-4.539a4.528,4.528,0,0,0-4.76-4.743,4.656,4.656,0,0,0-4.879,4.709c0,2.72,2.057,4.709,5.219,4.709a4.79,4.79,0,0,0,3.774-1.479l-1.411-1.53a3.1,3.1,0,0,1-2.3.884,2.439,2.439,0,0,1-2.618-1.836h6.919C32.648,15.954,32.682,15.665,32.682,15.461Zm-4.743-2.737a2.173,2.173,0,0,1,2.244,1.9h-4.5A2.165,2.165,0,0,1,27.939,12.724Zm12.07-2.006a4,4,0,0,0-3.026,1.207V10.854H34.45V20H37.1V15.478c0-1.683.918-2.465,2.193-2.465,1.173,0,1.853.68,1.853,2.159V20H43.8V14.764C43.8,11.976,42.168,10.718,40.009,10.718Zm11.373,6.97a1.787,1.787,0,0,1-1.071.34,1.067,1.067,0,0,1-1.139-1.207V13.1H51.45v-2.04H49.172V8.831H46.52v2.227H45.109V13.1H46.52v3.757c0,2.176,1.258,3.281,3.417,3.281a3.79,3.79,0,0,0,2.159-.578Zm6.273,2.448a4.718,4.718,0,1,0,0-9.418,4.719,4.719,0,1,0,0,9.418Zm0-2.176a2.321,2.321,0,0,1-2.346-2.533,2.345,2.345,0,1,1,4.675,0A2.308,2.308,0,0,1,57.655,17.96Zm-112.5,12.758a3.554,3.554,0,0,0-2.873,1.19V30.854h-2.533V43.3H-57.6V39.031a3.551,3.551,0,0,0,2.754,1.105,4.442,4.442,0,0,0,4.556-4.709A4.442,4.442,0,0,0-54.842,30.718ZM-55.3,37.96a2.308,2.308,0,0,1-2.329-2.533A2.308,2.308,0,0,1-55.3,32.894a2.308,2.308,0,0,1,2.329,2.533A2.308,2.308,0,0,1-55.3,37.96Zm10.319-7.242a7.031,7.031,0,0,0-3.944,1.1l.952,1.853a4.4,4.4,0,0,1,2.635-.85c1.428,0,2.108.663,2.108,1.8h-2.108c-2.788,0-3.927,1.122-3.927,2.737,0,1.581,1.275,2.771,3.417,2.771a3,3,0,0,0,2.788-1.275V40h2.482V34.781C-40.579,32.01-42.194,30.718-44.982,30.718Zm-.2,7.633c-.935,0-1.5-.442-1.5-1.105,0-.612.391-1.071,1.632-1.071h1.819v.935A1.954,1.954,0,0,1-45.186,38.351Zm9.537-6.29V30.854h-2.533V40h2.652V35.682a2.247,2.247,0,0,1,2.431-2.55c.2,0,.374.017.6.034V30.718A3.691,3.691,0,0,0-35.649,32.061Zm8.364-1.343a7.031,7.031,0,0,0-3.944,1.1l.952,1.853a4.4,4.4,0,0,1,2.635-.85c1.428,0,2.108.663,2.108,1.8h-2.108c-2.788,0-3.927,1.122-3.927,2.737,0,1.581,1.275,2.771,3.417,2.771a3,3,0,0,0,2.788-1.275V40h2.482V34.781C-22.882,32.01-24.5,30.718-27.285,30.718Zm-.2,7.633c-.935,0-1.5-.442-1.5-1.105,0-.612.391-1.071,1.632-1.071h1.819v.935A1.954,1.954,0,0,1-27.489,38.351Zm14.348-6.29V30.854h-2.533V40h2.652V35.682a2.247,2.247,0,0,1,2.431-2.55c.2,0,.374.017.6.034V30.718A3.691,3.691,0,0,0-13.141,32.061Zm13.6,3.4A4.528,4.528,0,0,0-4.3,30.718,4.656,4.656,0,0,0-9.18,35.427c0,2.72,2.057,4.709,5.219,4.709A4.79,4.79,0,0,0-.187,38.657L-1.6,37.127a3.1,3.1,0,0,1-2.295.884,2.439,2.439,0,0,1-2.618-1.836H.408C.425,35.954.459,35.665.459,35.461Zm-4.743-2.737a2.173,2.173,0,0,1,2.244,1.9H-6.545A2.165,2.165,0,0,1-4.284,32.724ZM7.633,30.718a3.554,3.554,0,0,0-2.873,1.19V30.854H2.227V43.3H4.879V39.031a3.551,3.551,0,0,0,2.754,1.105,4.442,4.442,0,0,0,4.556-4.709A4.442,4.442,0,0,0,7.633,30.718ZM7.174,37.96a2.308,2.308,0,0,1-2.329-2.533,2.337,2.337,0,1,1,4.658,0A2.308,2.308,0,0,1,7.174,37.96Zm11.135,2.176a4.718,4.718,0,1,0,0-9.418,4.719,4.719,0,1,0,0,9.418Zm0-2.176a2.321,2.321,0,0,1-2.346-2.533,2.345,2.345,0,1,1,4.675,0A2.308,2.308,0,0,1,18.309,37.96Zm9.316-5.9V30.854H25.092V40h2.652V35.682a2.247,2.247,0,0,1,2.431-2.55c.2,0,.374.017.6.034V30.718A3.691,3.691,0,0,0,27.625,32.061Zm10.234,5.627a1.787,1.787,0,0,1-1.071.34,1.067,1.067,0,0,1-1.139-1.207V33.1h2.278v-2.04H35.649V28.831H33v2.227H31.586V33.1H33v3.757c0,2.176,1.258,3.281,3.417,3.281a3.79,3.79,0,0,0,2.159-.578Zm5.9-6.97a7.031,7.031,0,0,0-3.944,1.1l.952,1.853a4.4,4.4,0,0,1,2.635-.85c1.428,0,2.108.663,2.108,1.8H43.4c-2.788,0-3.927,1.122-3.927,2.737,0,1.581,1.275,2.771,3.417,2.771a3,3,0,0,0,2.788-1.275V40h2.482V34.781C48.161,32.01,46.546,30.718,43.758,30.718Zm-.2,7.633c-.935,0-1.5-.442-1.5-1.105,0-.612.391-1.071,1.632-1.071h1.819v.935A1.954,1.954,0,0,1,43.554,38.351Zm9.537-6.29V30.854H50.558V40H53.21V35.682a2.247,2.247,0,0,1,2.431-2.55c.2,0,.374.017.6.034V30.718A3.691,3.691,0,0,0,53.091,32.061ZM-53.788,50.854v4.522c0,1.683-.884,2.465-2.108,2.465-1.173,0-1.853-.68-1.853-2.21V50.854H-60.4v5.168c0,2.822,1.615,4.114,3.91,4.114a3.7,3.7,0,0,0,2.839-1.224V60h2.516V50.854Zm10.676-.136a4,4,0,0,0-3.026,1.207V50.854h-2.533V60h2.652V55.478c0-1.683.918-2.465,2.193-2.465,1.173,0,1.853.68,1.853,2.159V60h2.652V54.764C-39.321,51.976-40.953,50.718-43.112,50.718ZM-23.035,60h2.89l-5.321-11.9h-2.72L-33.49,60h2.822l1.054-2.55h5.525Zm-5.695-4.641,1.887-4.556,1.887,4.556Zm13.974,4.777a4.243,4.243,0,0,0,4.1-2.312L-12.716,56.7a2.25,2.25,0,0,1-2.057,1.258,2.34,2.34,0,0,1-2.4-2.533,2.34,2.34,0,0,1,2.4-2.533,2.281,2.281,0,0,1,2.057,1.258l2.057-1.1a4.2,4.2,0,0,0-4.1-2.329c-2.975,0-5.1,1.955-5.1,4.709S-17.731,60.136-14.756,60.136Zm9.928,0a4.243,4.243,0,0,0,4.1-2.312L-2.788,56.7A2.25,2.25,0,0,1-4.845,57.96a2.34,2.34,0,0,1-2.4-2.533,2.34,2.34,0,0,1,2.4-2.533,2.281,2.281,0,0,1,2.057,1.258l2.057-1.1a4.2,4.2,0,0,0-4.1-2.329c-2.975,0-5.1,1.955-5.1,4.709S-7.8,60.136-4.828,60.136ZM2.125,49.579a1.525,1.525,0,0,0,1.649-1.53,1.489,1.489,0,0,0-1.649-1.428,1.488,1.488,0,1,0,0,2.958ZM.8,60H3.451V50.854H.8ZM12.58,47.386v4.437a3.514,3.514,0,0,0-2.737-1.1,4.711,4.711,0,0,0,0,9.418,3.518,3.518,0,0,0,2.856-1.19V60h2.533V47.386ZM10.3,57.96a2.542,2.542,0,1,1,2.329-2.533A2.321,2.321,0,0,1,10.3,57.96Zm16.337-2.5a4.528,4.528,0,0,0-4.76-4.743A4.656,4.656,0,0,0,17,55.427c0,2.72,2.057,4.709,5.219,4.709a4.79,4.79,0,0,0,3.774-1.479l-1.411-1.53a3.1,3.1,0,0,1-2.3.884,2.439,2.439,0,0,1-2.618-1.836h6.919C26.605,55.954,26.639,55.665,26.639,55.461ZM21.9,52.724a2.173,2.173,0,0,1,2.244,1.9h-4.5A2.165,2.165,0,0,1,21.9,52.724Zm12.07-2.006a4,4,0,0,0-3.026,1.207V50.854H28.407V60h2.652V55.478c0-1.683.918-2.465,2.193-2.465,1.173,0,1.853.68,1.853,2.159V60h2.652V54.764C37.757,51.976,36.125,50.718,33.966,50.718Zm11.373,6.97a1.787,1.787,0,0,1-1.071.34,1.067,1.067,0,0,1-1.139-1.207V53.1h2.278v-2.04H43.129V48.831H40.477v2.227H39.066V53.1h1.411v3.757c0,2.176,1.258,3.281,3.417,3.281a3.79,3.79,0,0,0,2.159-.578Zm10.88-2.227a4.528,4.528,0,0,0-4.76-4.743,4.656,4.656,0,0,0-4.879,4.709c0,2.72,2.057,4.709,5.219,4.709a4.79,4.79,0,0,0,3.774-1.479l-1.411-1.53a3.1,3.1,0,0,1-2.295.884,2.439,2.439,0,0,1-2.618-1.836h6.919C56.185,55.954,56.219,55.665,56.219,55.461Zm-4.743-2.737a2.173,2.173,0,0,1,2.244,1.9h-4.5A2.165,2.165,0,0,1,51.476,52.724ZM-41.378,67.386v4.437a3.514,3.514,0,0,0-2.737-1.1,4.446,4.446,0,0,0-4.573,4.709,4.446,4.446,0,0,0,4.573,4.709,3.518,3.518,0,0,0,2.856-1.19V80h2.533V67.386ZM-43.656,77.96A2.321,2.321,0,0,1-46,75.427a2.321,2.321,0,0,1,2.346-2.533,2.317,2.317,0,0,1,2.329,2.533A2.317,2.317,0,0,1-43.656,77.96Zm16.337-2.5a4.528,4.528,0,0,0-4.76-4.743,4.656,4.656,0,0,0-4.879,4.709c0,2.72,2.057,4.709,5.219,4.709a4.79,4.79,0,0,0,3.774-1.479l-1.411-1.53a3.1,3.1,0,0,1-2.3.884,2.439,2.439,0,0,1-2.618-1.836h6.919C-27.353,75.954-27.319,75.665-27.319,75.461Zm-4.743-2.737a2.173,2.173,0,0,1,2.244,1.9h-4.5A2.165,2.165,0,0,1-32.062,72.724ZM-18.088,80h2.754V70.344h3.808V68.1H-21.9v2.244h3.808ZM-7.9,72.061V70.854h-2.533V80h2.652V75.682a2.247,2.247,0,0,1,2.431-2.55c.2,0,.374.017.6.034V70.718A3.691,3.691,0,0,0-7.9,72.061ZM.459,70.718a7.031,7.031,0,0,0-3.944,1.1l.952,1.853A4.4,4.4,0,0,1,.1,72.826c1.428,0,2.108.663,2.108,1.8H.1c-2.788,0-3.927,1.122-3.927,2.737,0,1.581,1.275,2.771,3.417,2.771A3,3,0,0,0,2.38,78.861V80H4.862V74.781C4.862,72.01,3.247,70.718.459,70.718Zm-.2,7.633c-.935,0-1.5-.442-1.5-1.1,0-.612.391-1.071,1.632-1.071H2.21v.935A1.954,1.954,0,0,1,.255,78.351Zm12.41-7.633a3.551,3.551,0,0,0-2.754,1.1V67.386H7.259V80H9.792V78.946a3.554,3.554,0,0,0,2.873,1.19,4.712,4.712,0,0,0,0-9.418Zm-.459,7.242a2.542,2.542,0,1,1,2.329-2.533A2.308,2.308,0,0,1,12.206,77.96Zm10.319-7.242a7.031,7.031,0,0,0-3.944,1.1l.952,1.853a4.4,4.4,0,0,1,2.635-.85c1.428,0,2.108.663,2.108,1.8H22.168c-2.788,0-3.927,1.122-3.927,2.737,0,1.581,1.275,2.771,3.417,2.771a3,3,0,0,0,2.788-1.275V80h2.482V74.781C26.928,72.01,25.313,70.718,22.525,70.718Zm-.2,7.633c-.935,0-1.5-.442-1.5-1.1,0-.612.391-1.071,1.632-1.071h1.819v.935A1.954,1.954,0,0,1,22.321,78.351Zm8.449-8.772a1.525,1.525,0,0,0,1.649-1.53,1.489,1.489,0,0,0-1.649-1.428,1.488,1.488,0,1,0,0,2.958ZM28.645,83.434A3.173,3.173,0,0,0,32.1,79.983V70.854H29.444V80c0,.9-.425,1.326-1.088,1.326A1.945,1.945,0,0,1,27.234,81l-.714,1.921A3.862,3.862,0,0,0,28.645,83.434Zm10.251-3.3a4.718,4.718,0,1,0,0-9.418,4.719,4.719,0,1,0,0,9.418Zm0-2.176a2.542,2.542,0,1,1,2.329-2.533A2.321,2.321,0,0,1,38.9,77.96ZM-57.333,90.854l-2.584,6.2-2.567-6.2h-2.737l3.961,9.214-.034.085c-.357.816-.765,1.139-1.5,1.139a2.351,2.351,0,0,1-1.5-.578l-.969,1.887a4.061,4.061,0,0,0,2.55.833c1.649,0,2.907-.663,3.791-2.873l4.131-9.707ZM-45.96,97.79V95.036h5.525V92.894H-45.96V90.31H-39.7V88.1H-48.7V100h9.214V97.79Zm14.042-7.072a4,4,0,0,0-3.026,1.207V90.854h-2.533V100h2.652V95.478c0-1.683.918-2.465,2.193-2.465,1.173,0,1.853.68,1.853,2.159V100h2.652V94.764C-28.127,91.976-29.758,90.718-31.917,90.718Zm9.095-.051c0-.9.425-1.326,1.207-1.326a1.857,1.857,0,0,1,1.071.323l.7-1.921a3.759,3.759,0,0,0-2.023-.493,3.192,3.192,0,0,0-3.536,3.4v.408h-1.411V93.1h1.411V100h2.652V93.1h2.278v-2.04h-2.346Zm12.512,4.794a4.528,4.528,0,0,0-4.76-4.743,4.656,4.656,0,0,0-4.879,4.709c0,2.72,2.057,4.709,5.219,4.709a4.79,4.79,0,0,0,3.774-1.479l-1.411-1.53a3.1,3.1,0,0,1-2.3.884,2.439,2.439,0,0,1-2.618-1.836h6.919C-10.345,95.954-10.311,95.665-10.311,95.461Zm-4.743-2.737a2.173,2.173,0,0,1,2.244,1.9h-4.5A2.165,2.165,0,0,1-15.054,92.724Zm9.044-.663V90.854H-8.543V100h2.652V95.682a2.247,2.247,0,0,1,2.431-2.55c.2,0,.374.017.6.034V90.718A3.691,3.691,0,0,0-6.01,92.061Zm16.439-1.343a4.113,4.113,0,0,0-3.3,1.5,3.414,3.414,0,0,0-3.009-1.5,3.7,3.7,0,0,0-2.873,1.19V90.854H-1.284V100H1.368V95.41c0-1.632.833-2.4,2.006-2.4,1.105,0,1.734.68,1.734,2.159V100H7.76V95.41c0-1.632.833-2.4,2.023-2.4,1.071,0,1.734.68,1.734,2.159V100h2.652V94.764C14.169,91.976,12.605,90.718,10.429,90.718ZM25.61,95.461a4.528,4.528,0,0,0-4.76-4.743,4.656,4.656,0,0,0-4.879,4.709c0,2.72,2.057,4.709,5.219,4.709a4.79,4.79,0,0,0,3.774-1.479l-1.411-1.53a3.1,3.1,0,0,1-2.3.884,2.439,2.439,0,0,1-2.618-1.836h6.919C25.576,95.954,25.61,95.665,25.61,95.461Zm-4.743-2.737a2.173,2.173,0,0,1,2.244,1.9h-4.5A2.165,2.165,0,0,1,20.867,92.724Zm13.175-5.338v4.437a3.514,3.514,0,0,0-2.737-1.1,4.711,4.711,0,0,0,0,9.418,3.518,3.518,0,0,0,2.856-1.19V100h2.533V87.386ZM31.764,97.96a2.542,2.542,0,1,1,2.329-2.533A2.321,2.321,0,0,1,31.764,97.96Zm11.067-7.242a7.031,7.031,0,0,0-3.944,1.1l.952,1.853a4.4,4.4,0,0,1,2.635-.85c1.428,0,2.108.663,2.108,1.8H42.474c-2.788,0-3.927,1.122-3.927,2.737,0,1.581,1.275,2.771,3.417,2.771a3,3,0,0,0,2.788-1.275V100h2.482V94.781C47.234,92.01,45.619,90.718,42.831,90.718Zm-.2,7.633c-.935,0-1.5-.442-1.5-1.1,0-.612.391-1.071,1.632-1.071h1.819v.935A1.954,1.954,0,0,1,42.627,98.351ZM56.4,87.386v4.437a3.514,3.514,0,0,0-2.737-1.1,4.711,4.711,0,0,0,0,9.418,3.518,3.518,0,0,0,2.856-1.19V100h2.533V87.386ZM54.119,97.96a2.542,2.542,0,1,1,2.329-2.533A2.321,2.321,0,0,1,54.119,97.96ZM-62.254,120h8.721v-2.244H-59.5V108.1h-2.754Zm13.872-9.282a7.031,7.031,0,0,0-3.944,1.1l.952,1.853a4.4,4.4,0,0,1,2.635-.85c1.428,0,2.108.663,2.108,1.8h-2.108c-2.788,0-3.927,1.122-3.927,2.737,0,1.581,1.275,2.771,3.417,2.771a3,3,0,0,0,2.788-1.275V120h2.482v-5.219C-43.979,112.01-45.594,110.718-48.382,110.718Zm-.2,7.633c-.935,0-1.5-.442-1.5-1.1,0-.612.391-1.071,1.632-1.071h1.819v.935A1.954,1.954,0,0,1-48.586,118.351Zm12.41-7.633a3.551,3.551,0,0,0-2.754,1.1v-4.437h-2.652V120h2.533v-1.054a3.554,3.554,0,0,0,2.873,1.19,4.442,4.442,0,0,0,4.556-4.709A4.442,4.442,0,0,0-36.176,110.718Zm-.459,7.242a2.308,2.308,0,0,1-2.329-2.533,2.308,2.308,0,0,1,2.329-2.533,2.308,2.308,0,0,1,2.329,2.533A2.308,2.308,0,0,1-36.635,117.96Zm11.135,2.176a4.694,4.694,0,0,0,5.015-4.709,4.694,4.694,0,0,0-5.015-4.709,4.708,4.708,0,0,0-5.032,4.709A4.708,4.708,0,0,0-25.5,120.136Zm0-2.176a2.321,2.321,0,0,1-2.346-2.533,2.321,2.321,0,0,1,2.346-2.533,2.308,2.308,0,0,1,2.329,2.533A2.308,2.308,0,0,1-25.5,117.96Zm9.316-5.9v-1.207h-2.533V120h2.652v-4.318a2.247,2.247,0,0,1,2.431-2.55c.2,0,.374.017.6.034v-2.448A3.691,3.691,0,0,0-16.184,112.061Zm8.364-1.343a7.031,7.031,0,0,0-3.944,1.1l.952,1.853a4.4,4.4,0,0,1,2.635-.85c1.428,0,2.108.663,2.108,1.8H-8.177c-2.788,0-3.927,1.122-3.927,2.737,0,1.581,1.275,2.771,3.417,2.771A3,3,0,0,0-5.9,118.861V120h2.482v-5.219C-3.417,112.01-5.032,110.718-7.82,110.718Zm-.2,7.633c-.935,0-1.5-.442-1.5-1.1,0-.612.391-1.071,1.632-1.071h1.819v.935A1.954,1.954,0,0,1-8.024,118.351Zm7,1.649H1.632V107.386H-1.02Zm9.588-3.723h4.811v-2.125H8.568ZM29.359,120h2.89l-5.321-11.9h-2.72L18.9,120h2.822l1.054-2.55h5.525Zm-5.695-4.641,1.887-4.556,1.887,4.556ZM35.36,120h2.754v-9.656h3.808V108.1H31.552v2.244H35.36Zm10.778-2.21v-2.754h5.525v-2.142H46.138V110.31h6.256V108.1H43.4V120h9.214v-2.21Zm8.67,2.21h8.721v-2.244H57.562V108.1H54.808Z" transform="translate(4383.018 2214.456)"/>
    </g>
  </g>
</svg>
