<?xml version="1.0" encoding="utf-8"?>
<!-- Generator: Adobe Illustrator 24.2.1, SVG Export Plug-In . SVG Version: 6.00 Build 0)  -->
<svg version="1.1" id="Layer_1" xmlns="http://www.w3.org/2000/svg" xmlns:xlink="http://www.w3.org/1999/xlink" x="0px" y="0px"
	 viewBox="0 0 2880 1620" style="enable-background:new 0 0 2880 1620;" xml:space="preserve">
<style type="text/css">
	.st0{fill:#FFFFFF;}
	.st1{fill:#ECF9FE;}
	.st2{fill:#C5EAFB;}
	.st3{fill:#ECEDED;}
	.st4{fill:#10344A;}
	.st5{fill:#80C9ED;}
	.st6{fill:#67B7DE;}
	.st7{fill:#FF4F3B;}
	.st8{fill:#D1D3D4;}
	.st9{fill:#E6E7E8;}
	.st10{fill:#F1F2F2;}
	.st11{fill:#E2E3E3;}
	.st12{fill:#2F86B5;}
	.st13{fill:#333333;}
	.st14{fill:#276F96;}
	.st15{fill:#63ACCF;}
	.st16{fill:#FFD3CF;}
	.st17{fill:#FFB8B0;}
	.st18{fill:#0F3447;}
	.st19{fill:#1B6085;}
	.st20{fill:#9BD5F2;}
	.st21{fill:#154965;}
	.st22{fill:#154A66;}
	.st23{fill:#2176A3;}
	.st24{fill:#1A5C80;}
	.st25{fill:#F5B9B5;}
	.st26{fill:#D2F0F7;}
	.st27{fill:#97D7E8;}
	.st28{fill:#DCF2F7;}
	.st29{fill:#ACE4F2;}
	.st30{fill:#F7F7F7;}
	.st31{fill:#BCBEC0;}
	.st32{fill:#D7D8D9;}
	.st33{fill:#C73E2D;}
</style>
<g>
	<rect y="0" class="st0" width="2880" height="1620"/>
	<path class="st1" d="M2434.98,484.61c-54.98,3.93-112.5,141.87-39,247.05s171,47.1,192-30.72S2551.98,476.25,2434.98,484.61z"/>
	<path class="st1" d="M1085.87,162c-1.61,28.43,65.28,66.97,124,36.24c58.72-30.73,35.39-84.5-3.1-100.39
		C1168.29,81.98,1089.29,101.51,1085.87,162z"/>
	<path class="st1" d="M406.18,536.03c-39.19-13.61-109.19,28.77-112.04,113.34c-2.75,81.72,54.66,109.73,103.85,71.34
		C439.01,688.7,476.79,560.54,406.18,536.03z"/>
	<path class="st1" d="M1927.07,1424.4c0,0,442.73,28.23,557.86-222.17c111.51-242.52-215.82-433.32-163.59-667.02
		c74.47-333.21-134.22-436.5-505.9-337.1s-436.18,106.52-436.18,106.52l-112.67-53.47l-103.87-3.81c0,0-253.7-128-487.04-58.84
		c-210.43,62.37-183.77,263.51-183.77,263.51s41.06,188.71-123.38,442.81c-132.48,204.7-154.73,641.36,846.68,513.13l294.46,81.06
		L1927.07,1424.4z"/>
	<g>
		<g>
			<g>
				<path class="st2" d="M1152.99,1188.43c-169.38-102.4-213.57-197.59-264.73-307.79c-13.19-28.41-26.83-57.79-43.19-88.61
					c-37.43-70.51-77.46-124.26-122.36-164.31c-45.11-40.23-91.77-63.66-131.46-81.27c-89.56-39.73-120.95-89.53-121.26-90.02
					l-7.08,4.33c1.3,2.12,32.82,52.39,124.97,93.27c98.08,43.51,174.08,99.16,249.86,241.89c16.26,30.62,29.85,59.9,42.99,88.21
					c51.74,111.44,96.42,207.69,267.97,311.4L1152.99,1188.43z"/>
			</g>
		</g>
		<g>
			<g>
				<path class="st2" d="M398.5,371.48c-25.29,19.12-6.03,67.1,23.85,100.3c28.37,31.53,61.44,39.76,78.34,28.65
					c17.33-11.4,23.17-46.25-9.47-89.1C454.22,362.77,415.89,358.33,398.5,371.48z"/>
			</g>
		</g>
		<g>
			<g>
				<path class="st2" d="M368.54,579.24c0.51,31.7,50.62,44.46,95.05,39.93c42.2-4.31,68.36-26.14,69.36-46.35
					c1.02-20.72-23.67-46-77.52-44.93C394.38,529.11,368.19,557.43,368.54,579.24z"/>
			</g>
		</g>
		<g>
			<g>
				<path class="st2" d="M596.66,371.16c-30.37,9.1-29.05,60.79-12.62,102.32c15.6,39.44,43.72,58.69,63.44,54.16
					c20.22-4.64,37.84-35.27,22.19-86.81C651.93,382.42,617.55,364.91,596.66,371.16z"/>
			</g>
		</g>
		<g>
			<g>
				<path class="st2" d="M521.04,693.99c4.27,31.42,55.53,38.15,99.12,28.38c41.39-9.28,64.78-34.06,63.37-54.24
					c-1.44-20.7-28.95-42.87-82.3-35.42C540.76,641.15,518.1,672.38,521.04,693.99z"/>
			</g>
		</g>
		<g>
			<g>
				<path class="st2" d="M847.2,456.65c-26.52-17.38-65.21,16.91-86.42,56.23c-20.13,37.33-16.75,71.24-0.6,83.41
					c16.57,12.48,51.35,6.25,80.7-38.91C874.16,506.19,865.44,468.6,847.2,456.65z"/>
			</g>
		</g>
		<g>
			<g>
				<path class="st2" d="M630.93,815.96c4.27,31.42,55.53,38.15,99.12,28.38c41.39-9.28,64.78-34.06,63.37-54.24
					c-1.44-20.7-28.95-42.87-82.3-35.42C650.65,763.12,628,794.35,630.93,815.96z"/>
			</g>
		</g>
		<g>
			<g>
				<path class="st2" d="M977.43,639.4c-18.36-25.85-66.89-8.02-100.96,20.87c-32.36,27.43-41.56,60.24-30.95,77.46
					c10.88,17.66,45.54,24.53,89.34-6.83C984.5,695.36,990.06,657.18,977.43,639.4z"/>
			</g>
		</g>
		<g>
			<g>
				<path class="st2" d="M746.46,1039.56c21.15,23.62,67.37,0.46,97.98-32.07c29.07-30.89,34.54-64.52,22.07-80.44
					c-12.8-16.33-48.01-19.26-88.01,16.81C733.17,984.75,731.92,1023.31,746.46,1039.56z"/>
			</g>
		</g>
		<g>
			<g>
				<path class="st2" d="M1075,823.07c-12.45-29.16-63.66-22.04-103.09-1.05c-37.44,19.93-53.41,50.04-46.7,69.12
					c6.88,19.57,39.29,33.64,88.75,12.3C1070.01,879.25,1083.56,843.13,1075,823.07z"/>
			</g>
		</g>
		<g>
			<g>
				<path class="st2" d="M863.91,1181.63c21.34,18.59,59.72-7.04,83.24-39.23c22.34-30.57,23.46-60.96,10.65-73.69
					c-13.14-13.05-44.65-11.76-76.09,24.61C846.08,1134.56,849.24,1168.85,863.91,1181.63z"/>
			</g>
		</g>
		<g>
			<g>
				<path class="st2" d="M1149.4,1015.97c-0.46-28.29-45.18-39.68-84.84-35.63c-37.66,3.85-61.01,23.34-61.9,41.37
					c-0.91,18.49,21.13,41.05,69.19,40.09C1126.34,1060.71,1149.72,1035.43,1149.4,1015.97z"/>
			</g>
		</g>
		<g>
			<g>
				
					<rect x="529.02" y="551.4" transform="matrix(0.9428 -0.3334 0.3334 0.9428 -153.4047 217.1584)" class="st2" width="54" height="8.3"/>
			</g>
		</g>
		<g>
			<g>
				<rect x="633.87" y="526.23" class="st2" width="8.3" height="47.58"/>
			</g>
		</g>
		<g>
			<g>
				<polygon class="st2" points="770.58,599.53 763.65,594.96 732.69,641.91 679.76,661.57 682.65,669.35 738.13,648.75 				"/>
			</g>
		</g>
		<g>
			<g>
				<polygon class="st2" points="852.4,741.37 844.97,737.68 828.13,771.59 790.51,783.27 792.98,791.2 833.98,778.46 				"/>
			</g>
		</g>
		<g>
			<g>
				<polygon class="st2" points="934.15,895.48 927.8,890.13 902.1,920.61 864.69,926.89 866.06,935.08 906.48,928.29 				"/>
			</g>
		</g>
		<g>
			<g>
				<polygon class="st2" points="1006.45,1032.39 1004.85,1024.25 966.6,1031.75 950.5,1067.41 958.06,1070.82 972.4,1039.07 				
					"/>
			</g>
		</g>
	</g>
	<g>
		<g>
			<g>
				<path class="st2" d="M2071.32,1250.21c72.58-33.25,128.57-70.07,171.18-112.56c42.8-42.68,68.91-87.89,88.81-126.49
					c44.9-87.09,96.44-115.52,96.95-115.8l-3.91-7.32c-2.19,1.17-54.22,29.7-100.41,119.31c-49.17,95.37-109.15,168-256.07,235.31
					L2071.32,1250.21z"/>
			</g>
		</g>
		<g>
			<g>
				<path class="st2" d="M2517.22,828.96c-17.61-26.37-66.63-9.94-101.52,17.95c-33.13,26.49-43.28,59.02-33.18,76.54
					c10.37,17.97,44.81,25.83,89.5-4.25C2522.67,885.1,2529.34,847.1,2517.22,828.96z"/>
			</g>
		</g>
		<g>
			<g>
				<path class="st2" d="M2311.57,786.92c-31.68-1.34-47.34,47.93-45.41,92.56c1.83,42.38,22.11,69.77,42.22,71.94
					c20.63,2.23,47.3-20.94,49.38-74.76C2360.11,815.65,2333.36,787.84,2311.57,786.92z"/>
			</g>
		</g>
		<g>
			<g>
				<path class="st2" d="M2505.97,1026.81c-7.31-30.85-58.99-32.55-101.41-18.57c-40.29,13.27-61.14,40.22-57.78,60.17
					c3.45,20.46,33,39.84,85.36,27.22C2491.5,1081.32,2511,1048.03,2505.97,1026.81z"/>
			</g>
		</g>
		<g>
			<g>
				<path class="st2" d="M2188.12,932.46c-31.61,2.42-41.33,53.21-34.12,97.29c6.84,41.86,30.22,66.65,50.45,66.43
					c20.74-0.23,44.48-26.4,40.16-80.09C2239.72,955.23,2209.86,930.79,2188.12,932.46z"/>
			</g>
		</g>
		<g>
			<g>
				<path class="st2" d="M2406,1271.92c18.9-25.46-13.08-66.09-51.09-89.55c-36.1-22.28-70.14-20.88-83.24-5.47
					c-13.43,15.81-9.23,50.9,34.14,82.84C2354.98,1295.95,2393,1289.43,2406,1271.92z"/>
			</g>
		</g>
		<g>
			<g>
				
					<rect x="2320.13" y="948.47" transform="matrix(0.9606 -0.2778 0.2778 0.9606 -179.4888 683.9831)" class="st2" width="8.3" height="54.01"/>
			</g>
		</g>
		<g>
			<g>
				
					<rect x="2320.85" y="1033.85" transform="matrix(0.0592 -0.9982 0.9982 0.0592 1131.556 3315.9487)" class="st2" width="8.3" height="47.58"/>
			</g>
		</g>
		<g>
			<g>
				<polygon class="st2" points="2267.84,1187.09 2272.81,1180.44 2227.74,1146.79 2211.2,1092.81 2203.27,1095.24 2220.6,1151.82 
									"/>
			</g>
		</g>
	</g>
	<path class="st3" d="M1585.24,1383.16c-263.34-2.73-888.75,5.41-888.54,47c0.22,41.94,524.2,38.71,524.2,38.71
		s-157.73,6.62-157.73,35.93s406.77,34,817.83-5.67c242.04-23.36,155.66-53.61,155.66-53.61s103.75-4.83,103.8-20.53
		C2140.55,1401.8,1878.06,1386.2,1585.24,1383.16z"/>
	<g>
		<g>
			<g>
				<g>
					<path class="st4" d="M741.35,1398.98c-25.8-16.5-44.1-41.64-52.94-72.71c-12.29-43.21-5.5-95.94,18.65-144.67
						c25.51-51.48,68.14-94.51,120.05-121.16c8.85-4.54,19.71-1.05,24.25,7.8c4.54,8.85,1.05,19.71-7.8,24.25
						c-99.28,50.96-139.84,155.91-120.5,223.92c14.04,49.37,57.09,73.72,121.21,68.58c41.63-3.34,192.93-72.76,738.57-500.15
						c311.87-244.29,604.73-489.95,607.65-492.4c7.62-6.4,18.98-5.4,25.37,2.21c6.4,7.62,5.4,18.98-2.21,25.37
						c-2.93,2.46-296.19,248.45-608.53,493.12c-183.58,143.8-337.79,259.05-458.33,342.54
						c-155.12,107.44-253.13,161.48-299.63,165.21c-42.05,3.37-77.57-3.96-105.57-21.78
						C741.5,1399.08,741.42,1399.03,741.35,1398.98z"/>
				</g>
			</g>
			<g>
				<g>
					<path class="st5" d="M2095.21,498.45c-73.32-89.74-405.29-459.13-932.49-251.1c57.27,27.56,305.32,126.29,268.02,402.76
						c91.43-2.84,334.1,159.22,315.26,436.8c97.46,24.68,255.18,143.39,249.93,334.91
						C1995.93,1421.82,2417.25,1059.99,2095.21,498.45z"/>
				</g>
			</g>
			<path class="st6" d="M2099.81,506.61c-1.53-2.72-3.04-5.43-4.61-8.16c-3.24-3.97-7-8.49-11.25-13.48
				c-49.71-35.69-105.37-56.59-165.71-62.18c-57.91-5.36-120.24,3.3-185.28,25.74c-145.24,50.12-256.74,150.39-301.39,195.07
				c-0.26,2.16-0.54,4.33-0.83,6.52c1.81-0.06,3.68-0.04,5.6,0.03c43.61-43.8,154.56-144.13,299.23-194.05
				c137.79-47.55,257.5-32.6,355.78,44.42c23.8,296.64-151.37,454.94-345.06,581.42c-0.09,1.66-0.19,3.32-0.3,4.98
				c1.71,0.43,3.44,0.9,5.18,1.39C1945.27,961.49,2120.77,802.81,2099.81,506.61z"/>
		</g>
	</g>
	<g>
		<g>
			<path class="st7" d="M1275.63,358.83c-80.12-40.84-139.05,48.18-145.32,59.57c-6.26-11.39-64.89-102-145.32-59.57
				c-102.42,54.03-47.81,209.5,143.1,325.24C1318.99,568.32,1378.79,411.42,1275.63,358.83z"/>
		</g>
		<path class="st0" d="M1291.93,535.12h-85.19l-14.65,27.01l-28.34-155.87l-37.16,206.95l-34.96-142.92l-20.28,64.59H968v3.79
			c0.82,1.26,1.67,2.52,2.52,3.79h106.37l13.81-43.99l37.01,151.27l36.07-200.88l24.69,135.8l22.76-41.96h75.62
			C1288.61,540.16,1290.29,537.64,1291.93,535.12z"/>
	</g>
	<g>
		<polygon class="st8" points="1088.01,773.14 1133.41,1422.65 1576.66,1422.19 1598.22,761.91 		"/>
		<polygon class="st9" points="1550.66,1396.62 1566.64,1397.77 1578.82,787.46 1545.27,813.67 		"/>
		<polygon class="st0" points="1112.39,796.24 1578.82,787.46 1555.61,1401.44 1156.65,1399.8 		"/>
		<g>
			<polygon class="st10" points="1181.47,1225.6 1274.78,1222.67 1276.2,1154.56 1177.03,1160.33 			"/>
			<polygon class="st10" points="1171.3,1075.98 1175.13,1132.34 1276.65,1132.95 1277.98,1068.51 			"/>
			<polygon class="st10" points="1280.56,944.29 1282.37,857.05 1156.51,858.44 1162.59,947.99 			"/>
			<polygon class="st10" points="1164.39,974.36 1169.52,1049.86 1278.35,1050.98 1280.18,962.63 			"/>
			<polygon class="st10" points="1182.71,1243.95 1188.34,1320.78 1272.8,1318.16 1274.89,1244.03 			"/>
		</g>
		<path class="st9" d="M1515.63,814.61c0,0-0.21-23.47-12.33-50.6l-23.06,0.72l-34.02,10.93l59.78,25.06L1515.63,814.61z"/>
		<polygon class="st7" points="1170.1,897.24 1190.89,890.43 1215.86,918.02 1243.57,862.11 1268.78,862.11 1220.32,935.94 		"/>
		<polygon class="st7" points="1170.1,1000.96 1190.89,994.15 1215.86,1021.75 1243.57,965.84 1268.78,965.84 1220.32,1039.67 		"/>
		<polygon class="st7" points="1170.1,1092.65 1190.89,1085.84 1215.86,1113.44 1243.57,1057.53 1268.78,1057.53 1220.32,1131.36 		
			"/>
		<polygon class="st7" points="1170.1,1179.39 1190.89,1172.58 1215.86,1200.18 1243.57,1144.27 1268.78,1144.27 1220.32,1218.1 		
			"/>
		<polygon class="st7" points="1170.1,1271.55 1190.89,1264.74 1215.86,1292.34 1243.57,1236.43 1268.78,1236.43 1220.32,1310.26 		
			"/>
		<polygon class="st11" points="1300.48,857.05 1300.48,879.79 1496.68,873.43 1496.68,857.05 		"/>
		<polygon class="st11" points="1300.48,889.27 1300.48,912.01 1552.35,912.01 1552.35,895.01 		"/>
		<polygon class="st11" points="1300.48,921.48 1300.48,944.22 1438.51,944.22 1438.51,926.29 		"/>
		<polygon class="st11" points="1297.35,966.68 1297.35,987.62 1521.07,981.76 1521.07,966.68 		"/>
		<polygon class="st11" points="1297.35,996.34 1297.35,1017.27 1472.28,1017.27 1472.28,1001.63 		"/>
		<polygon class="st11" points="1297.35,1026 1297.35,1046.93 1504.81,1046.93 1504.81,1030.42 		"/>
		<polygon class="st11" points="1293.39,1080.77 1293.39,1101.7 1468.33,1101.7 1468.33,1086.06 		"/>
		<polygon class="st11" points="1293.39,1110.43 1293.39,1131.36 1545.27,1131.36 1545.27,1114.85 		"/>
		<polygon class="st11" points="1293.39,1154.56 1293.39,1175.49 1432.25,1175.49 1432.25,1159.85 		"/>
		<polygon class="st11" points="1293.39,1184.21 1293.39,1205.15 1504.81,1205.15 1504.81,1188.64 		"/>
		<polygon class="st11" points="1293.39,1296.92 1293.39,1317.86 1461.65,1317.86 1461.65,1301.35 		"/>
		<polygon class="st11" points="1293.39,1243.95 1293.39,1264.88 1487.92,1264.88 1487.92,1248.38 		"/>
		<path class="st9" d="M1199.93,770.67c-8.86,30.6-6.54,49.89-6.54,49.89l18.27-20.83l27.11-19.05v-10.86L1199.93,770.67z"/>
		<path class="st12" d="M1345.31,606.08c-36.64,1.15-65.4,31.78-64.25,68.42c1.15,36.64,31.78,65.4,68.42,64.25
			c36.64-1.15,65.4-31.78,64.25-68.42C1412.58,633.69,1381.94,604.93,1345.31,606.08z M1342.75,708.5
			c-18.21,0.57-33.44-13.73-34.02-31.94c-0.57-18.21,13.73-33.44,31.94-34.02c18.21-0.57,33.44,13.73,34.02,31.94
			C1375.26,692.7,1360.96,707.93,1342.75,708.5z"/>
		<path class="st12" d="M1193.39,820.56c0,0,28.78-104.75,155.24-108.72c126.47-3.97,167,102.76,167,102.76L1193.39,820.56z"/>
		<g>
			<path class="st13" d="M1283.86,737.07l13.41,13.13c8.7-10.5,19.99-20.03,34.53-26.2C1331.8,724.01,1310.67,724.58,1283.86,737.07
				z"/>
			<path class="st13" d="M1250.95,757.7c-15.54,12.62-30.98,29.96-43.94,53.79l62.74-1.97c0,0,3.34-19.85,15.2-41.18L1250.95,757.7z
				"/>
		</g>
	</g>
	<g>
		<path class="st14" d="M1807.25,737.85c0,0,114.91,339.23,381.29,318.75c0,0,166.5-143.15-0.12-490.43
			C2188.42,566.16,1966.73,522.47,1807.25,737.85z"/>
		<g>
			
				<rect x="2036.22" y="684.02" transform="matrix(0.9016 -0.4326 0.4326 0.9016 -143.1242 973.3483)" class="st0" width="63.3" height="234.48"/>
			
				<rect x="2036.22" y="684.02" transform="matrix(0.4326 0.9016 -0.9016 0.4326 1895.7781 -1409.7253)" class="st0" width="63.3" height="234.48"/>
		</g>
		<path class="st13" d="M2188.54,1056.59c0,0,78.06-67.12,73.79-220.93c-270.8,37.98-402.99-98.33-429.45-129.67
			c-8.69,9.94-17.25,20.53-25.63,31.86c0,0,42.04,124.08,134.19,217.63c49.21,49.55,117.32,81.49,198.84,100.9
			C2155.78,1057.75,2171.86,1057.88,2188.54,1056.59z"/>
		<path class="st0" d="M2193.16,1067.73l-3.74,0.29c-63.18,4.86-123.31-9.53-178.73-42.76c-43.94-26.35-84.94-64.52-121.84-113.46
			c-62.42-82.77-91.26-166.74-92.45-170.28l-1.92-5.68l3.57-4.82c46.04-62.18,101.65-109.18,165.29-139.72
			c61.92-29.71,120.2-38.05,158.18-39.82c41.38-1.92,68.01,3.21,69.12,3.43l5.63,1.11l2.48,5.18
			c38.54,80.33,62.55,156.59,71.35,226.67c7.1,56.54,4.39,109.24-8.05,156.65c-21.46,81.71-64.23,119.21-66.04,120.76
			L2193.16,1067.73z M1820.14,739.76c7.52,20.06,36.01,90.76,87.37,158.71c78.73,104.17,171.6,153.6,276.11,146.98
			c9.12-9.19,40.22-44.19,56.71-108.48c17.82-69.47,21.75-188.15-59.66-360.44c-9.49-1.31-30.62-3.49-58.88-2.11
			c-35.67,1.73-90.4,9.66-148.54,37.55C1914.68,640.07,1863.2,683.05,1820.14,739.76z"/>
	</g>
	<path class="st15" d="M1919.47,1025.38l3.9-5.29c0,0-0.08-0.49-0.21-1.4c-0.9-6.52-4.12-34.77,2.81-62.82l-10.18-11.07
		c-13.16,21.98-41.19,83.31-2.73,160.45l10.85-21.99l16.42-13.32L1919.47,1025.38z"/>
	<g>
		<path class="st16" d="M1914.65,1292.91l-1.11,7.05l32.19,122.63l5.29-2.04c0,0,6.49-104.08-14.84-127.64
			c-21.34-23.56-18.55-2.04-18.55-2.04L1914.65,1292.91z"/>
		<path class="st7" d="M1951.13,1417.87c0,0,9.55,5.38,2.23,37.38h-3.8l-0.93-18.69c0,0-3.43,5.06-7.42,18.69h-30.43
			c0,0,2.69-6.59,16.33-8.91c0,0,5.36-17.96,17.52-27.98L1951.13,1417.87z"/>
		<path class="st16" d="M1951.13,1417.87c-1.94-2.7-4.03-3.55-6.51,0.5c-12.15,10.02-17.51,27.98-17.51,27.98l5.66,0.93
			C1932.76,1447.27,1942.04,1424.73,1951.13,1417.87z"/>
		<path class="st16" d="M1961.68,1276.12l-4.64,6.68l37.63,139.8l5.29-2.04c0,0,1.93-100.64-14.84-127.64
			c-15.27-24.58-18.52-20.96-18.52-20.96L1961.68,1276.12z"/>
		<path class="st7" d="M2000.08,1417.87c0,0,9.55,5.38,2.23,37.38h-3.8l-0.93-18.69c0,0-3.43,5.06-7.42,18.69h-30.43
			c0,0,2.69-6.59,16.33-8.91c0,0,5.36-17.96,17.51-27.98L2000.08,1417.87z"/>
		<path class="st16" d="M2000.08,1417.87c-2.04-3.34-4.23-2.77-6.51,0.5c-12.15,10.02-17.51,27.98-17.51,27.98l5.66,0.93
			C1981.71,1447.27,1990.99,1424.73,2000.08,1417.87z"/>
		<path class="st17" d="M1981.36,1287.07c-7.83-11.77-11.72-14.63-13.48-15.19l-2.16,0.8l-4.05,3.44l-4.64,6.68l4.6,17.11
			C1965.2,1295.71,1971.37,1290.37,1981.36,1287.07z"/>
		<path class="st17" d="M1936.17,1292.91c-2.88-3.18-5.3-5.51-7.36-7.21c-3.84,0.63-8.2,1.38-11.28,2.01
			c-0.09,1.72,0.09,3.16,0.09,3.16l-2.97,2.04l-1.11,7.05l1.94,7.38c6.5-3.86,15.2-8.14,23.98-9.8
			C1938.44,1295.78,1937.35,1294.22,1936.17,1292.91z"/>
		<path class="st18" d="M1915.46,1007.44c0,0-8.79-15.46,2.34-25.48c11.13-10.02,21.89,2.97,34.51,5.75
			c12.62,2.78,28.2,1.61,31.91,22.32s-2.97,20.35,7.98,42.8c10.95,22.45-6.31,33.02-2.6,46.2c3.71,13.17,12.99,27.46-0.93,37.11
			c-13.91,9.65-35.99-5.01-35.99-5.01l-0.93-35.25l5.75-26.53l-7.32-19.98l-0.85-31.97l-22.08-18.65
			C1927.26,998.75,1918.91,1003.5,1915.46,1007.44z"/>
		<path class="st19" d="M1918.17,1169.09l-9.28,4.16c0,0-20.04,71.99,2.23,126.72l76.25-18.74c0,0,16.88-89.43-23.93-114.47
			c-40.82-25.05-30.32-1.3-30.32-1.3l-14.76,4.64L1918.17,1169.09z"/>
		<path class="st20" d="M1926.89,1052.47v24.3l-31.91,31.35c0,0,1.34,18.55,18.11,20.59c0,0,0.26,23.19-4.2,44.53
			c0,0,27.09,11.87,54.55-6.49c0,0-1.67-24.49,3.34-47.31c5.01-22.82,4.45-57.7,4.45-57.7l-31.17-17.81l-13.36,4.45L1926.89,1052.47
			z"/>
		<path class="st16" d="M1967.89,932.99l-3.4-4.02c0,0-7.08-12.81-7.13-26.73c-0.05-13.91,7.75,9.46,7.75,9.46
			s1.67-35.48,6.54-36.18c4.87-0.7,2.5,9.46,2.5,9.46s3.06-12.38,5.84-12.11c2.78,0.28,0.7,16.28,0.7,16.28s2.92-10.16,5.29-9.18
			c2.37,0.97-3.06,17.67-3.06,17.67s2.23-8.91,5.57-7.51c3.34,1.39-4.04,24.77-12.24,36.18l-2.91,3.06L1967.89,932.99z"/>
		<path class="st16" d="M1949.51,1049.33l-11.15-4.83l-11.66,3.89l0.19,4.08v24.3l-22.19,21.81c1.89,3.03,6.72,7.94,16.26,1.94
			c12.99-8.16,27.64-35.25,27.64-35.25L1949.51,1049.33z"/>
		<path class="st17" d="M1948.91,1049.07l-10.55-4.57l-11.66,3.89l0.19,4.08v17.48C1933.51,1066.47,1943.55,1059.77,1948.91,1049.07
			z"/>
		<path class="st16" d="M1931.16,997.18c0,0-20.78,5.57-29.31,34.51l7.42,1.86c0,0-10.39,20.04,11.5,23.75
			c21.89,3.71,36.73-15.58,36.73-15.58l-2.23-35.99c0,0-14.47-6.68-14.84-8.53C1940.06,995.32,1931.16,997.18,1931.16,997.18z"/>
		<path class="st18" d="M1927.26,995.51v3.24c0,0-8.14,17,10.95,28.31l3.55,13.05c-4.83,11.91-3.98,21,6.84,25.16l24.05-23.25
			l-9.95-38.9l-17.44-8.53h-12.8L1927.26,995.51z"/>
		<path class="st16" d="M1938.21,1027.06c0,0,3.53-6.69,7.79-2.24c4.27,4.45-3.34,21.15-12.24,16.33c-8.91-4.82-2.78-9.65-2.78-9.65
			l4.54-2.66L1938.21,1027.06z"/>
		<path class="st20" d="M1962.7,929.37l13.54-3.06c0,0,44.31,90.55-6.93,177.05l-28.97-17.59l8.26-20.5
			C1948.6,1065.27,1983.66,1017.31,1962.7,929.37z"/>
	</g>
	<g>
		<g>
			<path class="st21" d="M993.58,1455.25c0,0,1.34-5.95,6.34-10.56h5.38c0,0,14.97-1.34,26.11,10.56H993.58z"/>
			<g>
				<polygon class="st16" points="1113.18,1429.33 1115.87,1431.64 1119.13,1447.38 1125.47,1447.38 1122.59,1427.8 1116.06,1427.8 
									"/>
				<path class="st19" d="M1087.19,1187.02l-2.23,4.17c0,0,32.25,124.11,41.47,247.36h-12.96c0,0-55-178.25-65.37-205.89
					c-10.37-27.64,19.58-27.07,19.58-27.07l-4.36-23.33L1087.19,1187.02z"/>
				<path class="st22" d="M1064.02,1280.64l7.78-65.83l-17.56,35.71C1057.01,1258.86,1060.35,1269.16,1064.02,1280.64z"/>
				<polygon class="st16" points="1001.17,1433.08 999.92,1444.69 1005.29,1444.69 1007.21,1431.64 				"/>
				<path class="st19" d="M1031.11,1189.57l-8.35,9.43c0,0-22.18,95.57-24.77,239.55h9.79c0,0,51.42-192.5,71.41-232.67l-13.53-16.3
					H1031.11z"/>
				<path class="st23" d="M1050.98,1057.72c0,0-10.72-1.97-12.56-2.16c-1.84-0.19-12.64,0.29-12.64,0.29s-74.63,25.05-107.27,97.24
					c0,0,19.79,37.99,97.01,45.69l0.49-6.58c0,0-34.65-21.33-42.2-48.52c0,0,6.46-12.09,25.15-23.23
					c2.97-1.77,14.01-13.25,14.01-13.25l13.63-24l-3.7-16.13L1050.98,1057.72z"/>
				<path class="st23" d="M989.93,1108.54l9.02,11.9c0,0,24.95,45.69,20.78,78.81c0,0,42.19-3.46,70.12-6.91
					c0,0,0.29-73.43,8.93-110c0,0-18.2-12.65-36.89-18.42l-4.87,18.42l-22.75,12.38l-20.73-4.9l-15.7,11.81L989.93,1108.54z"/>
				<path class="st0" d="M1029.82,1052.53l-4.03,3.31c0,0,24.19,46.94,38.16,82.21c0,0-4.39-58.02-12.96-80.34l-14.89-6.34h-3.83
					L1029.82,1052.53z"/>
				<polygon class="st7" points="1033.42,1058.15 1025.79,1055.85 1047.74,1076 1051.74,1056.34 1037.45,1057.29 				"/>
				<path class="st7" d="M1058.73,1092.19l-12.79-23.25l1.64,31.56c5.73,12.34,11.63,25.61,16.36,37.55
					C1063.94,1138.06,1062.19,1114.89,1058.73,1092.19z"/>
				<path class="st24" d="M1050.76,1055.85l20.24,10.08l-10.12,7.78l15.03,9.65l-11.96,54.71
					C1063.94,1138.06,1055.26,1074.45,1050.76,1055.85z"/>
				<path class="st16" d="M1016.01,1192.19l12.78-6.01l11.88,7.88c0,0,4.83,13.13,3.43,14.33s-2.12-0.6-2.12-0.6
					s1.31,2.63,0.36,3.46c-0.95,0.84-3.1-2.39-3.1-2.39s1.07,3.34-0.24,3.46c-1.31,0.12-1.85-3.82-1.85-3.82s-1.25,3.58-2.33,1.91
					s-5.25-3.82-6.03-11.16c0,0-6.38,2.45-13.27-0.48L1016.01,1192.19z"/>
				<path class="st16" d="M1048.54,1037.56l2.45,20.16c0,0,1.3,5.33-6.91,6.48c-8.21,1.15-18.29-8.35-18.29-8.35l1.69-29.23
					l15.3-1.3v2.45L1048.54,1037.56z"/>
				<path class="st25" d="M1026.78,1038.7c3.86,5.25,11.12,11.9,23.62,14.18l-1.75-14.44c-4.18-2.13-7.45-3.62-7.45-3.62l-13.77-7.3
					L1026.78,1038.7z"/>
				<path class="st16" d="M1058.18,979.53c0,0,13.82,5.76,17.57,35.71l-8.78,2.02c0,0,1.3,20.45-9.07,24.48s-25.34,2.3-35.13-19.29
					c-9.79-21.6,7.2-36.28,8.35-36.57c1.15-0.29,20.73-6.34,20.73-6.34H1058.18z"/>
				<path class="st18" d="M1067.47,988.96c0,0,11.15-5.53,11.3-16.91c0.14-11.37-4.61-14.11-9.5-11.95
					c-4.9,2.16-7.63,6.91-21.53,6.05c-13.89-0.86-37.36-5.33-46.72,15.41c-9.36,20.73,4.46,35.28,9.65,38.73
					c5.18,3.46,6.19,19.58,15.12,19.87s11.66-11.66,9.07-21.89l3.45-7.49l-0.57-2.59c0,0,11.23-1.73,15.69-9.5
					c4.46-7.77,4.33-12.53,9.08-15.98C1062.51,982.7,1066.48,987.26,1067.47,988.96z"/>
				<path class="st16" d="M1037.74,1008.19c0,0-0.08-0.29-0.25-0.71c-0.64-1.52-2.62-4.8-7.23-2.89c-5.9,2.45-2.16,21.02,9.07,17.13
					c11.23-3.89,1.44-10.22,1.44-10.22L1037.74,1008.19z"/>
				<path class="st24" d="M1025.91,1054.78l-23.88,10.57l17.71,13.73l-10.79,18.72l55,40.26
					C1054.74,1115.13,1041.05,1085.96,1025.91,1054.78z"/>
			</g>
			<path class="st21" d="M1112.31,1455.25c0,0,1.34-5.95,6.34-10.56h5.38c0,0,14.97-1.34,26.11,10.56H1112.31z"/>
		</g>
		<polygon class="st23" points="1087.23,1103.5 1098.79,1082.34 1110.11,1089.33 1113.95,1144.27 1081.61,1127.14 1084.42,1111.99 
					"/>
	</g>
	<g>
		<g>
			<g>
				<g>
					<path class="st26" d="M866.74,414.99l27.59-33.34c2.16-2.61,1.79-6.47-0.81-8.63l-114.83-95.03c-2.61-2.16-6.47-1.79-8.63,0.81
						l-27.59,33.34c-2.16,2.61-1.79,6.47,0.81,8.63l114.83,95.03C860.72,417.96,864.59,417.6,866.74,414.99z"/>
				</g>
			</g>
			<g>
				<g>
					<path class="st27" d="M866.74,414.99l27.59-33.34c2.16-2.61,1.79-6.47-0.81-8.63l-114.83-95.03c-2.61-2.16-6.47-1.79-8.63,0.81
						l-27.59,33.34c-2.16,2.61-1.79,6.47,0.81,8.63l114.83,95.03C860.72,417.96,864.59,417.6,866.74,414.99z"/>
				</g>
			</g>
			<g>
				<g>
					<path class="st10" d="M824.1,377.48l25.41-30.71c1.28-1.55,1.07-3.85-0.48-5.13l-29.52-24.43c-1.55-1.28-3.85-1.07-5.13,0.48
						l-25.41,30.71c-1.28,1.55-1.07,3.85,0.48,5.13l29.52,24.43C820.52,379.25,822.81,379.03,824.1,377.48z"/>
				</g>
			</g>
			<g>
				<g>
					<path class="st28" d="M814.38,317.7c1.28-1.55,3.58-1.77,5.13-0.48l29.52,24.43c0.44,0.36,0.76,0.81,0.98,1.3
						c-0.14,0.35-0.32,0.69-0.57,1l-25.41,30.71c-1.28,1.55-3.58,1.77-5.13,0.48l-29.52-24.43c-0.44-0.36-0.76-0.81-0.98-1.3
						c0.14-0.35,0.32-0.69,0.57-1L814.38,317.7z"/>
				</g>
			</g>
			<g>
				<g>
					<path class="st10" d="M788.96,348.41c-0.25,0.31-0.43,0.65-0.57,1c0.22,0.49,0.54,0.94,0.98,1.3l29.52,24.43
						c1.55,1.28,3.85,1.07,5.13-0.48l25.41-30.71c0.25-0.31,0.43-0.65,0.57-1c-0.22-0.49-0.54-0.94-0.98-1.3l-5.7-4.72
						c-30.16,44.41-51.79,8.38-51.79,8.38L788.96,348.41z"/>
				</g>
			</g>
		</g>
		<g>
			<polygon class="st10" points="830.2,392.7 862.19,347.1 847.72,335.13 847.72,335.13 815.66,372.47 813.14,378.58 			"/>
		</g>
		<g>
			<polygon class="st10" points="812.69,306.13 775.35,347.31 788.41,358.12 792.75,355.71 827.1,318.06 			"/>
		</g>
		<g>
			<g>
				<g>
					<path class="st29" d="M886.89,298.06l-33.78-27.05c-2.64-2.12-6.5-1.69-8.61,0.95l-93.18,116.35c-2.11,2.64-1.69,6.5,0.95,8.61
						l33.78,27.05c2.64,2.12,6.5,1.69,8.61-0.95l93.18-116.35C889.96,304.03,889.53,300.18,886.89,298.06z"/>
				</g>
			</g>
			<g>
				<g>
					<path class="st0" d="M790.45,351.98c-1.57-1.26-1.83-3.55-0.57-5.12l23.95-29.9c0.36-0.45,0.8-0.77,1.28-1
						c0.35,0.13,0.7,0.31,1.01,0.55l31.11,24.92c1.57,1.26,1.83,3.55,0.57,5.12l-23.95,29.9c-0.36,0.45-0.8,0.77-1.28,1
						c-0.35-0.13-0.7-0.31-1.01-0.55L790.45,351.98z"/>
				</g>
			</g>
			<g>
				<g>
					<path class="st30" d="M821.57,376.9c0.31,0.25,0.66,0.42,1.01,0.55c0.48-0.23,0.93-0.56,1.28-1l23.95-29.9
						c1.26-1.57,1-3.87-0.57-5.12l-31.11-24.92c-0.31-0.25-0.66-0.42-1.01-0.55c-0.48,0.23-0.93,0.56-1.28,1l-4.63,5.78
						c44.89,29.44,9.21,51.64,9.21,51.64L821.57,376.9z"/>
				</g>
			</g>
		</g>
	</g>
	<g>
		<g>
			<g>
				<path class="st31" d="M2112.71,276.28c8.07,1.42,15.76-3.97,17.18-12.04c1.42-8.07-3.97-15.76-12.04-17.18
					c-8.07-1.42-15.76,3.97-17.18,12.04C2099.24,267.17,2104.64,274.86,2112.71,276.28z"/>
			</g>
		</g>
		<g>
			<g>
				<path class="st0" d="M2125.57,265.09c2.59-7.77-1.61-16.18-9.38-18.77c-7.77-2.59-16.18,1.61-18.77,9.38
					c-2.59,7.77,1.61,16.18,9.38,18.77C2114.58,277.07,2122.98,272.87,2125.57,265.09z"/>
			</g>
		</g>
		<g>
			<g>
				<path class="st32" d="M2105.32,273.89c0.48,0.22,0.97,0.42,1.49,0.59c0.51,0.17,1.03,0.31,1.54,0.42l4.67-13.99l4.67-13.99
					c-0.48-0.22-0.97-0.42-1.49-0.59c-0.51-0.17-1.03-0.31-1.54-0.42l-4.67,13.99L2105.32,273.89z"/>
			</g>
		</g>
	</g>
	<g>
		<g>
			<g>
				<path class="st31" d="M555.87,1139.63c4.18-6.12,2.6-14.47-3.52-18.65c-6.12-4.18-14.47-2.6-18.65,3.52
					c-4.18,6.12-2.6,14.47,3.52,18.65C543.34,1147.33,551.69,1145.76,555.87,1139.63z"/>
			</g>
		</g>
		<g>
			<g>
				<path class="st0" d="M551.44,1124.86c-5.44-5.03-13.93-4.7-18.97,0.74c-5.03,5.44-4.7,13.93,0.74,18.97
					c5.44,5.03,13.93,4.7,18.96-0.74C557.21,1138.38,556.88,1129.89,551.44,1124.86z"/>
			</g>
		</g>
		<g>
			<g>
				<path class="st32" d="M551.14,1144.83c0.36-0.31,0.71-0.65,1.04-1.01c0.33-0.36,0.64-0.73,0.92-1.11l-9.79-9.06l-9.79-9.06
					c-0.36,0.31-0.71,0.65-1.04,1.01c-0.33,0.36-0.64,0.73-0.92,1.11l9.79,9.06L551.14,1144.83z"/>
			</g>
		</g>
	</g>
	<g>
		<g>
			<g>
				<path class="st31" d="M2207.9,271.74c2.27-13.32-6.68-25.96-20-28.23c-13.32-2.27-25.96,6.68-28.23,20
					c-2.27,13.32,6.68,25.96,20,28.23C2192.99,294.02,2205.63,285.06,2207.9,271.74z"/>
			</g>
		</g>
		<g>
			<g>
				<path class="st0" d="M2189.35,250.61c-12.84-4.21-26.66,2.78-30.87,15.62c-4.21,12.84,2.78,26.66,15.62,30.87
					c12.84,4.21,26.66-2.78,30.87-15.62C2209.18,268.65,2202.19,254.83,2189.35,250.61z"/>
			</g>
		</g>
		<g>
			<g>
				<path class="st9" d="M2204.01,283.95c0.36-0.79,0.68-1.61,0.96-2.46c0.28-0.85,0.5-1.7,0.68-2.55l-23.11-7.58l-23.11-7.58
					c-0.36,0.79-0.68,1.61-0.96,2.46c-0.28,0.85-0.5,1.7-0.68,2.55l23.11,7.58L2204.01,283.95z"/>
			</g>
		</g>
	</g>
	<g>
		<g>
			<g>
				<path class="st31" d="M581.94,1250.56c6-13.4,0.01-29.13-13.39-35.14c-13.4-6-29.13-0.01-35.14,13.39
					c-6,13.4-0.01,29.13,13.39,35.14C560.21,1269.96,575.94,1263.96,581.94,1250.56z"/>
			</g>
		</g>
		<g>
			<g>
				<path class="st0" d="M540.62,1222.61c-12.75,7.29-17.17,23.53-9.88,36.28c7.29,12.75,23.53,17.17,36.28,9.88
					c12.75-7.29,17.17-23.53,9.88-36.28C569.61,1219.74,553.37,1215.32,540.62,1222.61z"/>
			</g>
		</g>
		<g>
			<g>
				<path class="st32" d="M578.19,1235.06c-0.38-0.87-0.8-1.72-1.28-2.56c-0.48-0.84-1-1.64-1.56-2.41l-22.94,13.12l-22.95,13.12
					c0.38,0.87,0.8,1.72,1.28,2.56c0.48,0.84,1,1.64,1.56,2.41l22.94-13.12L578.19,1235.06z"/>
			</g>
		</g>
	</g>
	<g>
		<path class="st0" d="M533.79,950.51l-53.49,8.1c-8.34,1.26-14.07,9.05-12.81,17.38l0,0c1.26,8.34,9.05,14.07,17.38,12.81
			l53.49-8.1c8.34-1.26,14.07-9.05,12.81-17.38l0,0C549.91,954.99,542.13,949.25,533.79,950.51z"/>
		<path class="st7" d="M551.18,963.33L551.18,963.33c-1.26-8.34-9.05-14.07-17.38-12.81l-27.33,4.14l5.15,30.11l26.74-4.05
			C546.7,979.45,552.44,971.66,551.18,963.33z"/>
	</g>
	<g>
		<path class="st0" d="M523,890.05l37.87,38.63c5.9,6.02,15.57,6.12,21.59,0.21l0,0c6.02-5.9,6.12-15.57,0.21-21.59l-37.87-38.63
			c-5.9-6.02-15.57-6.12-21.59-0.21h0C517.19,874.36,517.1,884.03,523,890.05z"/>
		<path class="st12" d="M523.21,868.46L523.21,868.46c-6.02,5.9-6.12,15.57-0.21,21.59l19.35,19.73l21.4-21.8l-18.94-19.32
			C538.9,862.65,529.24,862.56,523.21,868.46z"/>
	</g>
	<g>
		<path class="st0" d="M637.36,1052.87l-40.7,35.64c-6.34,5.56-6.98,15.2-1.43,21.55l0,0c5.56,6.34,15.2,6.98,21.55,1.43l40.7-35.64
			c6.34-5.56,6.98-15.2,1.43-21.55l0,0C653.35,1047.95,643.7,1047.31,637.36,1052.87z"/>
		<path class="st12" d="M658.9,1054.29L658.9,1054.29c-5.56-6.34-15.2-6.98-21.55-1.43l-20.79,18.21l20.56,22.59l20.35-17.82
			C663.82,1070.28,664.46,1060.64,658.9,1054.29z"/>
	</g>
	<g>
		<path class="st0" d="M2020.16,285.95l-25.68-47.06c-4-7.34-13.19-10.04-20.53-6.04l0,0c-7.34,4-10.04,13.19-6.04,20.53
			l25.68,47.06c4,7.34,13.19,10.04,20.53,6.04l0,0C2021.46,302.47,2024.16,293.28,2020.16,285.95z"/>
		<path class="st7" d="M2014.12,306.48L2014.12,306.48c7.34-4,10.04-13.19,6.04-20.53l-13.12-24.04l-26.29,15.01l12.84,23.53
			C1997.59,307.78,2006.78,310.48,2014.12,306.48z"/>
	</g>
	<g>
		<path class="st0" d="M2270.69,529.69l12.99-52.01c2.02-8.11-2.91-16.32-11.02-18.35l0,0c-8.11-2.02-16.32,2.91-18.35,11.02
			l-12.98,52.01c-2.02,8.11,2.91,16.32,11.02,18.35h0C2260.45,542.73,2268.66,537.8,2270.69,529.69z"/>
		<path class="st12" d="M2252.34,540.71L2252.34,540.71c8.11,2.02,16.32-2.91,18.35-11.02l6.63-26.57l-29.5-6.77l-6.49,26.01
			C2239.3,530.47,2244.23,538.68,2252.34,540.71z"/>
	</g>
	<g>
		<g>
			<g>
				<path class="st16" d="M1550.97,1262.45l4.61,32.83c0,0-10.56,11.33-9.41,34.75s24,98.68,24,98.68h6.72
					c0,0-0.19-129.78,4.61-172.2s-20.35,0.96-20.35,0.96L1550.97,1262.45z"/>
				<path class="st16" d="M1593.02,1262.45l4.61,32.83c0,0-10.56,11.33-9.41,34.75s24,98.68,24,98.68h6.72
					c0,0-0.19-129.78,4.61-172.2c4.8-42.43-20.35,0.96-20.35,0.96L1593.02,1262.45z"/>
				<path class="st33" d="M1612.15,1428.72c0,0-3.61,3.33-3.28,9.64c0.3,5.83,3.67,16.9,3.67,16.9h1.6c0,0-0.17-7,0.73-13.61
					c0,0,3.72,7.61,5.49,13.61h17.37c0,0-1.99-5.23-9.59-7.04c0,0-1.12-11.28-9.33-19.49H1612.15z"/>
				<path class="st16" d="M1628.14,1448.21c0,0-1.12-11.28-9.33-19.49c-2.83-2.02-5.08-2.12-6.66,0
					C1612.15,1428.72,1620.62,1448.12,1628.14,1448.21z"/>
				<path class="st33" d="M1570.17,1428.72c0,0-3.61,3.33-3.28,9.64c0.3,5.83,3.67,16.9,3.67,16.9h1.6c0,0-0.17-7,0.73-13.61
					c0,0,3.72,7.61,5.49,13.61h17.37c0,0-1.99-5.23-9.59-7.04c0,0-1.12-11.28-9.33-19.49H1570.17z"/>
				<path class="st16" d="M1586.16,1448.21c0,0-1.12-11.28-9.33-19.49c-2.24-2.05-4.46-2.09-6.65,0
					C1570.17,1428.72,1578.64,1448.12,1586.16,1448.21z"/>
				<path class="st19" d="M1585.91,1145.53l-7.06,9.12c0,0-55.86,5.47-35.64,120.66h85.69c0,0,7.2-79.29-10.89-118.07l-26.71-13.05
					L1585.91,1145.53z"/>
				<path class="st20" d="M1602.72,1070.57l3.35-1.58l16.99,6.05l18.29,24.91c0,0,2.31,14.11-15.33,20.16l-7.99,37.15l-39.16-2.59
					l-14.11-47.66l-10.51-24.76l21.45-11.52L1602.72,1070.57z"/>
				<path class="st20" d="M1619.17,1079.06l3.89-4.03c0,0,35.85,25.92,46.07,32.83c0,0-14.24,35.79-50.67,47.34l-8.65-4.87
					l11.69-9.29c0,0,15.29-16.8,19.94-25.93l-11.62-7.83c0,0-11.23-12.24-11.37-12.81
					C1618.31,1093.89,1619.17,1079.06,1619.17,1079.06z"/>
				<path class="st16" d="M1569.49,1151.59l12.78-6.01l11.88,7.88c0,0,4.83,13.13,3.43,14.33s-2.12-0.6-2.12-0.6
					s1.31,2.63,0.36,3.46s-3.1-2.39-3.1-2.39s1.07,3.34-0.24,3.46c-1.31,0.12-1.85-3.82-1.85-3.82s-1.25,3.58-2.33,1.91
					c-1.07-1.67-5.25-3.82-6.03-11.16c0,0-6.38,2.45-13.27-0.48L1569.49,1151.59z"/>
				<polygon class="st0" points="1603.4,1068.91 1606.07,1068.98 1614.13,1109.15 1593.73,1073.13 1591.31,1068.19 				"/>
				<path class="st16" d="M1603.62,1043.86l2.45,25.12c0,0,1.15,9.65-15.69,2.95c-16.85-6.7-16.17-13.97-16.17-13.97l17.83-17.64
					L1603.62,1043.86z"/>
				<path class="st25" d="M1587.46,1044.85l2.68,6.21c0,0,4.39,5.56,14.98,8.24l-1.5-15.44l-11.21-3.41l-0.54,0.04L1587.46,1044.85z
					"/>
				<path class="st16" d="M1611.83,989.46c0,0,11.33,9.41,13.63,36.48l-6.82,0.96c0,0,3.94,15.74-9.31,20.93
					c-13.25,5.18-32.06-9.02-32.06-9.02l-3.07-29.95l25.63-16.51L1611.83,989.46z"/>
				<path class="st20" d="M1530.48,1092.02l-25.77,22.75c0,0,12.84,35.28,64.3,43.89l0.95-8.17c0,0-15.36-10.99-24.72-29.42
					l35.13-16.85L1530.48,1092.02z"/>
				<path class="st18" d="M1620.18,1002.61c0,0,7.97-6.82,5.28-19.49c-2.69-12.67-8.45-17.47-25.05-12.09
					c-16.61,5.38-26.4-1.54-42.91,14.59c-16.51,16.13-6.91,31.87-8.83,45.88c-1.92,14.01-19.48,17.72-27.67,43.53
					c-6.14,19.37,5.08,20.37,1.15,31.23c-4.06,11.21,2.71,21.71,12.89,22.91c10.17,1.2,19.17-5.2,24.55-14.99
					c5.38-9.79,7.89-20.1,23.06-28.35c15.17-8.26,14.88-25.83,8.21-39.5c-6.67-13.67,0-24.04,0-24.04l3.31-5.86
					c0,0,16.77-1.97,23.84-18.45L1620.18,1002.61z"/>
				<path class="st16" d="M1594.16,1016.43c0,0-3.46-7.76-8.26-3.07c-4.8,4.7-1.15,17.75,7.1,16.6c8.26-1.15,3.65-7.3,3.65-7.3
					L1594.16,1016.43z"/>
				<path class="st16" d="M1624.31,1154.55c1.37,5.03,3.9,9.13-3.58,11.74c-7.48,2.61-1.95-4.19-1.95-4.19s-6.01,5.33-7.06,3.23
					c-1.05-2.1,6.78-7.5,6.78-7.5s-8.8,3.63-8.69,1.12c0.11-2.51,9.56-6.26,9.56-6.26s-8.29,2.13-7.8,0.25
					C1612.06,1151.06,1620.62,1141.02,1624.31,1154.55z"/>
			</g>
			<path class="st22" d="M1630.06,1254.83c-14.33,10.01-32.6,16.77-52,8.63c-43.59-18.31-13.97-102.39-13.97-102.39
				c-14.93,10.73-34.06,39.19-20.87,114.25h85.69C1628.91,1275.31,1629.65,1267.16,1630.06,1254.83z"/>
		</g>
		<path class="st25" d="M1552.77,1275.31l0.86,6.15c7.7-1.59,18.18-1.88,25.72,5.14c0.19-4.02,0.4-7.67,0.62-11.3H1552.77z"/>
		<path class="st25" d="M1622.02,1275.31h-27.19l0.57,4.06c5.83-1,17.37-1.2,25.89,9.94
			C1621.51,1284.38,1621.75,1279.69,1622.02,1275.31L1622.02,1275.31z"/>
	</g>
</g>
</svg>
