<svg xmlns="http://www.w3.org/2000/svg" width="2298.23" height="1435.242" viewBox="0 0 2298.23 1435.242">
  <g id="Grupo_9033" data-name="Grupo 9033" transform="translate(-42.168 -32.709)">
    <path id="Trazado_20594" data-name="Trazado 20594" d="M2183.113,424.733c-54.981,3.928-112.5,141.872-39,247.055s171,47.1,192-30.717S2300.113,416.375,2183.113,424.733Z" fill="#ecf9fe"/>
    <path id="Trazado_20595" data-name="Trazado 20595" d="M834,102.132c-1.607,28.426,65.276,66.974,124,36.243s35.386-84.505-3.1-100.386S837.416,41.642,834,102.132Z" fill="#ecf9fe"/>
    <path id="Trazado_20596" data-name="Trazado 20596" d="M154.307,476.158C115.113,462.552,45.113,504.932,42.264,589.493,39.51,671.21,96.928,699.222,146.116,660.838,187.139,628.825,224.915,500.669,154.307,476.158Z" fill="#ecf9fe"/>
    <path id="Trazado_20597" data-name="Trazado 20597" d="M1675.2,1364.525s442.727,28.225,557.858-222.172c111.509-242.519-215.819-433.324-163.588-667.022,74.473-333.208-134.219-436.495-505.9-337.1S1127.39,244.749,1127.39,244.749l-112.672-53.468-103.87-3.805s-253.7-128-487.041-58.844C213.373,191,240.041,392.143,240.041,392.143S281.1,580.851,116.662,834.95c-132.476,204.7-154.727,641.357,846.685,513.126l294.459,81.06Z" fill="#ecf9fe"/>
    <g id="Grupo_8939" data-name="Grupo 8939">
      <g id="Grupo_8904" data-name="Grupo 8904">
        <g id="Grupo_8903" data-name="Grupo 8903">
          <path id="Trazado_20598" data-name="Trazado 20598" d="M901.12,1128.56C731.743,1026.155,687.555,930.975,636.388,820.766c-13.19-28.411-26.828-57.789-43.19-88.607C555.765,661.644,515.74,607.9,470.837,567.845c-45.107-40.234-91.766-63.662-131.459-81.273-89.559-39.733-120.952-89.527-121.259-90.025l-7.076,4.335c1.3,2.12,32.817,52.389,124.969,93.274C434.088,537.67,510.1,593.313,585.869,736.049c16.257,30.624,29.849,59.9,42.993,88.21,51.738,111.443,96.421,207.687,267.965,311.4Z" fill="#c5eafb"/>
        </g>
      </g>
      <g id="Grupo_8906" data-name="Grupo 8906">
        <g id="Grupo_8905" data-name="Grupo 8905">
          <path id="Trazado_20599" data-name="Trazado 20599" d="M146.625,311.612c-25.293,19.118-6.033,67.1,23.847,100.3,28.374,31.53,61.442,39.764,78.342,28.649,17.333-11.4,23.171-46.246-9.468-89.1C202.349,302.9,164.023,298.463,146.625,311.612Z" fill="#c5eafb"/>
        </g>
      </g>
      <g id="Grupo_8908" data-name="Grupo 8908">
        <g id="Grupo_8907" data-name="Grupo 8907">
          <path id="Trazado_20600" data-name="Trazado 20600" d="M116.665,519.368c.512,31.7,50.616,44.462,95.052,39.929,42.2-4.3,68.358-26.145,69.356-46.347,1.023-20.721-23.666-46-77.52-44.926C142.509,469.236,116.314,497.563,116.665,519.368Z" fill="#c5eafb"/>
        </g>
      </g>
      <g id="Grupo_8910" data-name="Grupo 8910">
        <g id="Grupo_8909" data-name="Grupo 8909">
          <path id="Trazado_20601" data-name="Trazado 20601" d="M344.792,311.293c-30.371,9.1-29.048,60.788-12.618,102.323,15.6,39.444,43.725,58.69,63.439,54.164,20.22-4.641,37.841-35.266,22.188-86.806C400.058,322.553,365.682,305.034,344.792,311.293Z" fill="#c5eafb"/>
        </g>
      </g>
      <g id="Grupo_8912" data-name="Grupo 8912">
        <g id="Grupo_8911" data-name="Grupo 8911">
          <path id="Trazado_20602" data-name="Trazado 20602" d="M269.166,634.116c4.265,31.417,55.529,38.15,99.115,28.38,41.39-9.277,64.776-34.064,63.372-54.242-1.44-20.7-28.952-42.866-82.3-35.42C288.884,581.275,266.232,612.507,269.166,634.116Z" fill="#c5eafb"/>
        </g>
      </g>
      <g id="Grupo_8914" data-name="Grupo 8914">
        <g id="Grupo_8913" data-name="Grupo 8913">
          <path id="Trazado_20603" data-name="Trazado 20603" d="M595.325,396.779c-26.518-17.379-65.214,16.913-86.416,56.227-20.135,37.335-16.753,71.244-.6,83.414,16.57,12.483,51.348,6.247,80.7-38.914C622.293,446.314,613.564,408.732,595.325,396.779Z" fill="#c5eafb"/>
        </g>
      </g>
      <g id="Grupo_8916" data-name="Grupo 8916">
        <g id="Grupo_8915" data-name="Grupo 8915">
          <path id="Trazado_20604" data-name="Trazado 20604" d="M379.057,756.087c4.266,31.417,55.53,38.149,99.116,28.38,41.391-9.278,64.776-34.064,63.372-54.243-1.44-20.7-28.952-42.865-82.3-35.419C398.776,703.246,376.124,734.478,379.057,756.087Z" fill="#c5eafb"/>
        </g>
      </g>
      <g id="Grupo_8918" data-name="Grupo 8918">
        <g id="Grupo_8917" data-name="Grupo 8917">
          <path id="Trazado_20605" data-name="Trazado 20605" d="M725.563,579.532C707.2,553.684,658.67,571.517,624.6,600.4c-32.356,27.43-41.564,60.239-30.954,77.46,10.881,17.663,45.541,24.53,89.336-6.828C732.625,635.489,738.192,597.311,725.563,579.532Z" fill="#c5eafb"/>
        </g>
      </g>
      <g id="Grupo_8920" data-name="Grupo 8920">
        <g id="Grupo_8919" data-name="Grupo 8919">
          <path id="Trazado_20606" data-name="Trazado 20606" d="M494.592,979.692c21.146,23.623,67.37.457,97.985-32.068,29.072-30.888,34.54-64.523,22.065-80.445-12.8-16.33-48.006-19.264-88.005,16.81C481.3,924.881,480.048,963.443,494.592,979.692Z" fill="#c5eafb"/>
        </g>
      </g>
      <g id="Grupo_8922" data-name="Grupo 8922">
        <g id="Grupo_8921" data-name="Grupo 8921">
          <path id="Trazado_20607" data-name="Trazado 20607" d="M823.126,763.2c-12.453-29.157-63.664-22.04-103.093-1.051-37.443,19.932-53.41,50.037-46.7,69.119,6.882,19.571,39.292,33.642,88.748,12.3C818.141,819.378,831.691,783.253,823.126,763.2Z" fill="#c5eafb"/>
        </g>
      </g>
      <g id="Grupo_8924" data-name="Grupo 8924">
        <g id="Grupo_8923" data-name="Grupo 8923">
          <path id="Trazado_20608" data-name="Trazado 20608" d="M612.042,1121.761c21.339,18.586,59.719-7.04,83.24-39.23,22.336-30.57,23.462-60.964,10.653-73.687-13.137-13.05-44.647-11.757-76.088,24.614C594.208,1074.685,597.364,1108.977,612.042,1121.761Z" fill="#c5eafb"/>
        </g>
      </g>
      <g id="Grupo_8926" data-name="Grupo 8926">
        <g id="Grupo_8925" data-name="Grupo 8925">
          <path id="Trazado_20609" data-name="Trazado 20609" d="M897.53,956.095c-.458-28.295-45.18-39.683-84.841-35.634-37.665,3.846-61.012,23.34-61.9,41.372-.912,18.494,21.126,41.052,69.193,40.094C874.466,1000.841,897.845,975.557,897.53,956.095Z" fill="#c5eafb"/>
        </g>
      </g>
      <g id="Grupo_8928" data-name="Grupo 8928">
        <g id="Grupo_8927" data-name="Grupo 8927">
          <rect id="Rectángulo_2019" data-name="Rectángulo 2019" width="54.005" height="8.298" transform="translate(277.312 500.768) rotate(-19.475)" fill="#c5eafb"/>
        </g>
      </g>
      <g id="Grupo_8930" data-name="Grupo 8930">
        <g id="Grupo_8929" data-name="Grupo 8929">
          <rect id="Rectángulo_2020" data-name="Rectángulo 2020" width="8.298" height="47.584" transform="translate(381.995 466.361)" fill="#c5eafb"/>
        </g>
      </g>
      <g id="Grupo_8932" data-name="Grupo 8932">
        <g id="Grupo_8931" data-name="Grupo 8931">
          <path id="Trazado_20610" data-name="Trazado 20610" d="M518.707,539.656l-6.928-4.567L480.82,582.042,427.89,601.7l2.888,7.78,55.477-20.608Z" fill="#c5eafb"/>
        </g>
      </g>
      <g id="Grupo_8934" data-name="Grupo 8934">
        <g id="Grupo_8933" data-name="Grupo 8933">
          <path id="Trazado_20611" data-name="Trazado 20611" d="M600.532,681.5l-7.432-3.691-16.842,33.91L538.643,723.4l2.463,7.925,41-12.739Z" fill="#c5eafb"/>
        </g>
      </g>
      <g id="Grupo_8936" data-name="Grupo 8936">
        <g id="Grupo_8935" data-name="Grupo 8935">
          <path id="Trazado_20612" data-name="Trazado 20612" d="M682.276,835.61l-6.344-5.349-25.7,30.478-37.412,6.28,1.375,8.185,40.416-6.785Z" fill="#c5eafb"/>
        </g>
      </g>
      <g id="Grupo_8938" data-name="Grupo 8938">
        <g id="Grupo_8937" data-name="Grupo 8937">
          <path id="Trazado_20613" data-name="Trazado 20613" d="M754.578,972.521l-1.6-8.143-38.256,7.5-16.1,35.655,7.564,3.417L720.526,979.2Z" fill="#c5eafb"/>
        </g>
      </g>
    </g>
    <g id="Grupo_8958" data-name="Grupo 8958">
      <g id="Grupo_8941" data-name="Grupo 8941">
        <g id="Grupo_8940" data-name="Grupo 8940">
          <path id="Trazado_20614" data-name="Trazado 20614" d="M1819.447,1190.343c72.58-33.252,128.572-70.07,171.178-112.557,42.8-42.682,68.913-87.892,88.811-126.49,44.9-87.085,96.438-115.517,96.952-115.8l-3.913-7.317c-2.192,1.171-54.217,29.7-100.413,119.309-49.167,95.368-109.154,168-256.071,235.306Z" fill="#c5eafb"/>
        </g>
      </g>
      <g id="Grupo_8943" data-name="Grupo 8943">
        <g id="Grupo_8942" data-name="Grupo 8942">
          <path id="Trazado_20615" data-name="Trazado 20615" d="M2265.353,769.09c-17.608-26.367-66.634-9.942-101.524,17.948-33.133,26.485-43.283,59.015-33.175,76.535,10.368,17.969,44.814,25.833,89.5-4.248C2270.8,825.227,2277.464,787.225,2265.353,769.09Z" fill="#c5eafb"/>
        </g>
      </g>
      <g id="Grupo_8945" data-name="Grupo 8945">
        <g id="Grupo_8944" data-name="Grupo 8944">
          <path id="Trazado_20616" data-name="Trazado 20616" d="M2059.7,727.049c-31.677-1.341-47.343,47.933-45.412,92.558,1.834,42.378,22.109,69.768,42.219,71.944,20.625,2.231,47.3-20.94,49.375-74.764C2108.239,755.776,2081.49,727.971,2059.7,727.049Z" fill="#c5eafb"/>
        </g>
      </g>
      <g id="Grupo_8947" data-name="Grupo 8947">
        <g id="Grupo_8946" data-name="Grupo 8946">
          <path id="Trazado_20617" data-name="Trazado 20617" d="M2254.1,966.937c-7.311-30.851-58.987-32.548-101.412-18.572-40.288,13.273-61.142,40.223-57.776,60.168,3.453,20.456,33,39.836,85.362,27.219C2239.632,1021.451,2259.129,988.157,2254.1,966.937Z" fill="#c5eafb"/>
        </g>
      </g>
      <g id="Grupo_8949" data-name="Grupo 8949">
        <g id="Grupo_8948" data-name="Grupo 8948">
          <path id="Trazado_20618" data-name="Trazado 20618" d="M1936.244,872.588c-31.613,2.424-41.327,53.207-34.119,97.289,6.844,41.862,30.223,66.655,50.449,66.431,20.744-.229,44.483-26.4,40.165-80.089C1987.844,895.359,1957.987,870.921,1936.244,872.588Z" fill="#c5eafb"/>
        </g>
      </g>
      <g id="Grupo_8951" data-name="Grupo 8951">
        <g id="Grupo_8950" data-name="Grupo 8950">
          <path id="Trazado_20619" data-name="Trazado 20619" d="M2154.131,1212.05c18.9-25.458-13.077-66.09-51.086-89.552-36.095-22.28-70.143-20.885-83.236-5.467-13.429,15.813-9.235,50.9,34.135,82.839C2103.1,1236.079,2141.132,1229.56,2154.131,1212.05Z" fill="#c5eafb"/>
        </g>
      </g>
      <g id="Grupo_8953" data-name="Grupo 8953">
        <g id="Grupo_8952" data-name="Grupo 8952">
          <rect id="Rectángulo_2021" data-name="Rectángulo 2021" width="8.298" height="54.005" transform="translate(2060.917 890.812) rotate(-16.127)" fill="#c5eafb"/>
        </g>
      </g>
      <g id="Grupo_8955" data-name="Grupo 8955">
        <g id="Grupo_8954" data-name="Grupo 8954">
          <rect id="Rectángulo_2022" data-name="Rectángulo 2022" width="8.298" height="47.584" transform="translate(2049.135 1000.506) rotate(-86.606)" fill="#c5eafb"/>
        </g>
      </g>
      <g id="Grupo_8957" data-name="Grupo 8957">
        <g id="Grupo_8956" data-name="Grupo 8956">
          <path id="Trazado_20620" data-name="Trazado 20620" d="M2015.971,1127.22l4.964-6.65-45.065-33.647-16.537-53.988-7.935,2.429,17.333,56.586Z" fill="#c5eafb"/>
        </g>
      </g>
    </g>
    <path id="Trazado_20621" data-name="Trazado 20621" d="M1333.373,1323.285c-263.342-2.734-888.751,5.414-888.535,47,.218,41.94,524.2,38.711,524.2,38.711S811.3,1415.614,811.3,1444.918s406.775,34,817.829-5.666c242.037-23.357,155.665-53.614,155.665-53.614s103.75-4.831,103.8-20.525C1888.683,1341.924,1626.189,1326.325,1333.373,1323.285Z" fill="#eceded"/>
    <g id="Grupo_8964" data-name="Grupo 8964">
      <g id="Grupo_8963" data-name="Grupo 8963">
        <g id="Grupo_8960" data-name="Grupo 8960">
          <g id="Grupo_8959" data-name="Grupo 8959">
            <path id="Trazado_20622" data-name="Trazado 20622" d="M489.48,1339.11c-25.8-16.5-44.1-41.637-52.939-72.709-12.292-43.21-5.5-95.938,18.645-144.665,25.507-51.485,68.139-94.512,120.046-121.157a18.01,18.01,0,0,1,16.451,32.044c-99.277,50.96-139.844,155.91-120.5,223.922,14.042,49.369,57.088,73.725,121.207,68.585,41.625-3.34,192.929-72.757,738.566-500.153,311.872-244.289,604.73-489.945,607.651-492.4a18.01,18.01,0,1,1,23.16,27.587c-2.926,2.456-296.19,248.455-608.533,493.115-183.584,143.8-337.789,259.05-458.335,342.543-155.119,107.44-253.128,161.481-299.63,165.21-42.049,3.373-77.566-3.955-105.567-21.78Z" fill="#10344a"/>
          </g>
        </g>
        <g id="Grupo_8962" data-name="Grupo 8962">
          <g id="Grupo_8961" data-name="Grupo 8961">
            <path id="Trazado_20623" data-name="Trazado 20623" d="M1843.334,438.577c-73.325-89.742-405.286-459.13-932.486-251.1,57.275,27.561,305.316,126.286,268.022,402.76,91.433-2.838,334.1,159.222,315.259,436.8,97.461,24.68,255.178,143.386,249.929,334.906C1744.058,1361.946,2165.379,1000.116,1843.334,438.577Z" fill="#80c9ed"/>
          </g>
        </g>
        <path id="Trazado_20624" data-name="Trazado 20624" d="M1847.942,446.736c-1.529-2.718-3.044-5.432-4.608-8.159-3.243-3.969-7-8.494-11.25-13.482-49.709-35.693-105.371-56.594-165.714-62.181-57.908-5.363-120.245,3.3-185.279,25.739-145.239,50.121-256.744,150.39-301.391,195.065q-.388,3.243-.829,6.518c1.807-.056,3.681-.04,5.6.032,43.614-43.795,154.564-144.126,299.229-194.047,137.792-47.551,257.5-32.6,355.784,44.421,23.8,296.641-151.371,454.938-345.055,581.416-.094,1.658-.189,3.316-.3,4.982,1.708.433,3.438.9,5.182,1.391C1693.4,901.614,1868.9,742.939,1847.942,446.736Z" fill="#67b7de"/>
      </g>
    </g>
    <g id="Grupo_8966" data-name="Grupo 8966">
      <g id="Grupo_8965" data-name="Grupo 8965">
        <path id="Trazado_20625" data-name="Trazado 20625" d="M1023.755,298.955C943.639,258.11,884.7,347.132,878.437,358.521c-6.265-11.389-64.886-102-145.319-59.566-102.417,54.029-47.806,209.5,143.1,325.242C1067.118,508.452,1126.917,351.549,1023.755,298.955Z" fill="#ff4f3b"/>
      </g>
      <path id="Trazado_20626" data-name="Trazado 20626" d="M1040.053,475.247H954.86l-14.648,27.007-28.34-155.87L874.709,553.338,839.746,410.417l-20.28,64.594H716.133V478.8c.818,1.26,1.674,2.524,2.521,3.788H825.028L838.84,438.6l37.006,151.272,36.071-200.878,24.691,135.8,22.76-41.964h75.624Q1037.613,479.026,1040.053,475.247Z" fill="#fff"/>
    </g>
    <g id="Grupo_8969" data-name="Grupo 8969">
      <path id="Trazado_20627" data-name="Trazado 20627" d="M836.135,713.264l45.405,649.519,443.244-.464,21.563-660.277Z" fill="#d1d3d4"/>
      <path id="Trazado_20628" data-name="Trazado 20628" d="M1298.789,1336.746l15.979,1.147,12.181-610.309L1293.394,753.8Z" fill="#e6e7e8" style="mix-blend-mode: multiply;isolation: isolate"/>
      <path id="Trazado_20629" data-name="Trazado 20629" d="M860.513,736.371l466.436-8.787-23.208,613.981-398.968-1.639Z" fill="#fff"/>
      <g id="Grupo_8967" data-name="Grupo 8967">
        <path id="Trazado_20630" data-name="Trazado 20630" d="M929.6,1165.727l93.318-2.932,1.414-68.11-99.169,5.772Z" fill="#f1f2f2"/>
        <path id="Trazado_20631" data-name="Trazado 20631" d="M919.424,1016.112l3.831,56.353,101.521.61,1.338-64.438Z" fill="#f1f2f2"/>
        <path id="Trazado_20632" data-name="Trazado 20632" d="M1028.692,884.415l1.811-87.234-125.867,1.39,6.088,89.55Z" fill="#f1f2f2"/>
        <path id="Trazado_20633" data-name="Trazado 20633" d="M912.515,914.485l5.133,75.5,108.829,1.126,1.834-88.352Z" fill="#f1f2f2"/>
        <path id="Trazado_20634" data-name="Trazado 20634" d="M930.843,1184.077l5.625,76.832,84.463-2.621,2.09-74.131Z" fill="#f1f2f2"/>
      </g>
      <path id="Trazado_20635" data-name="Trazado 20635" d="M1263.758,754.733s-.214-23.467-12.334-50.6l-23.063.725-34.016,10.935,59.781,25.059Z" fill="#e6e7e8" style="mix-blend-mode: multiply;isolation: isolate"/>
      <path id="Trazado_20636" data-name="Trazado 20636" d="M918.226,837.366l20.787-6.81,24.971,27.6,27.714-55.91h25.214l-48.459,73.83Z" fill="#ff4f3b"/>
      <path id="Trazado_20637" data-name="Trazado 20637" d="M918.226,941.092l20.787-6.81,24.971,27.6,27.714-55.91h25.214L968.453,979.8Z" fill="#ff4f3b"/>
      <path id="Trazado_20638" data-name="Trazado 20638" d="M918.226,1032.783l20.787-6.809,24.971,27.6L991.7,997.66h25.214l-48.459,73.83Z" fill="#ff4f3b"/>
      <path id="Trazado_20639" data-name="Trazado 20639" d="M918.226,1119.52l20.787-6.81,24.971,27.6L991.7,1084.4h25.214l-48.459,73.83Z" fill="#ff4f3b"/>
      <path id="Trazado_20640" data-name="Trazado 20640" d="M918.226,1211.679l20.787-6.81,24.971,27.6,27.714-55.91h25.214l-48.459,73.83Z" fill="#ff4f3b"/>
      <path id="Trazado_20641" data-name="Trazado 20641" d="M1048.6,797.181v22.74l196.2-6.359V797.181Z" fill="#e2e3e3"/>
      <path id="Trazado_20642" data-name="Trazado 20642" d="M1048.6,829.395v22.74h251.872V835.142Z" fill="#e2e3e3"/>
      <path id="Trazado_20643" data-name="Trazado 20643" d="M1048.6,861.608v22.74h138.029V866.417Z" fill="#e2e3e3"/>
      <path id="Trazado_20644" data-name="Trazado 20644" d="M1045.477,906.809v20.936L1269.2,921.89V906.809Z" fill="#e2e3e3"/>
      <path id="Trazado_20645" data-name="Trazado 20645" d="M1045.477,936.467V957.4h174.935V941.758Z" fill="#e2e3e3"/>
      <path id="Trazado_20646" data-name="Trazado 20646" d="M1045.477,966.124v20.935h207.461V970.551Z" fill="#e2e3e3"/>
      <path id="Trazado_20647" data-name="Trazado 20647" d="M1041.522,1020.9v20.935h174.935v-15.645Z" fill="#e2e3e3"/>
      <path id="Trazado_20648" data-name="Trazado 20648" d="M1041.522,1050.554v20.936h251.872v-16.508Z" fill="#e2e3e3"/>
      <path id="Trazado_20649" data-name="Trazado 20649" d="M1041.522,1094.685v20.936h138.857v-15.645Z" fill="#e2e3e3"/>
      <path id="Trazado_20650" data-name="Trazado 20650" d="M1041.522,1124.342v20.936h211.416v-16.508Z" fill="#e2e3e3"/>
      <path id="Trazado_20651" data-name="Trazado 20651" d="M1041.522,1237.052v20.936h168.256v-16.508Z" fill="#e2e3e3"/>
      <path id="Trazado_20652" data-name="Trazado 20652" d="M1041.522,1184.077v20.936h194.527V1188.5Z" fill="#e2e3e3"/>
      <path id="Trazado_20653" data-name="Trazado 20653" d="M948.053,710.8c-8.861,30.6-6.536,49.889-6.536,49.889l18.265-20.835,27.106-19.05V709.948Z" fill="#e6e7e8" style="mix-blend-mode: multiply;isolation: isolate"/>
      <path id="Trazado_20654" data-name="Trazado 20654" d="M1093.437,546.206a66.368,66.368,0,1,0,68.419,64.251A66.368,66.368,0,0,0,1093.437,546.206Zm-2.56,102.423a33,33,0,1,1,31.943-34.015A33,33,0,0,1,1090.877,648.629Z" fill="#2f86b5"/>
      <path id="Trazado_20655" data-name="Trazado 20655" d="M941.517,760.691s28.775-104.748,155.242-108.721,167,102.763,167,102.763Z" fill="#2f86b5"/>
      <g id="Grupo_8968" data-name="Grupo 8968">
        <path id="Trazado_20656" data-name="Trazado 20656" d="M1031.985,677.2l13.413,13.132a90.9,90.9,0,0,1,34.535-26.2S1058.8,664.705,1031.985,677.2Z" fill="#333" style="mix-blend-mode: screen;isolation: isolate"/>
        <path id="Trazado_20657" data-name="Trazado 20657" d="M999.079,697.827c-15.536,12.621-30.982,29.958-43.94,53.789l62.737-1.97a143.291,143.291,0,0,1,15.2-41.177Z" fill="#333" style="mix-blend-mode: screen;isolation: isolate"/>
      </g>
    </g>
    <g id="Grupo_8971" data-name="Grupo 8971">
      <path id="Trazado_20658" data-name="Trazado 20658" d="M1555.38,677.975s114.906,339.231,381.29,318.746c0,0,166.5-143.149-.122-490.431C1936.548,506.29,1714.862,462.6,1555.38,677.975Z" fill="#276f96"/>
      <g id="Grupo_8970" data-name="Grupo 8970">
        <rect id="Rectángulo_2023" data-name="Rectángulo 2023" width="63.295" height="234.48" transform="translate(1736.743 649.376) rotate(-25.631)" fill="#fff"/>
        <rect id="Rectángulo_2024" data-name="Rectángulo 2024" width="63.295" height="234.48" transform="matrix(0.433, 0.902, -0.902, 0.433, 1908.005, 662.142)" fill="#fff"/>
      </g>
      <path id="Trazado_20659" data-name="Trazado 20659" d="M1936.67,996.721s78.057-67.123,73.788-220.933c-270.8,37.976-402.993-98.325-429.448-129.67q-13.031,14.9-25.63,31.857s42.037,124.084,134.191,217.629c49.214,49.553,117.318,81.485,198.838,100.9A293.029,293.029,0,0,0,1936.67,996.721Z" fill="#333" style="mix-blend-mode: screen;isolation: isolate"/>
      <path id="Trazado_20660" data-name="Trazado 20660" d="M1941.293,1007.857l-3.744.289c-63.177,4.858-123.31-9.528-178.729-42.76-43.942-26.35-84.935-64.522-121.838-113.457-62.418-82.77-91.258-166.744-92.455-170.278l-1.923-5.678,3.567-4.817c46.041-62.177,101.652-109.184,165.288-139.716a413.485,413.485,0,0,1,158.183-39.819c41.379-1.925,68.008,3.207,69.121,3.426l5.632,1.11,2.483,5.176c38.541,80.328,62.548,156.59,71.352,226.668,7.1,56.539,4.394,109.242-8.054,156.646-21.457,81.709-64.225,119.206-66.035,120.762ZM1568.264,679.892c7.522,20.062,36.015,90.759,87.37,158.707,78.726,104.165,171.6,153.6,276.114,146.98,9.124-9.194,40.219-44.188,56.71-108.478,17.819-69.47,21.749-188.152-59.661-360.436a326.35,326.35,0,0,0-58.881-2.114A390.463,390.463,0,0,0,1721.372,552.1C1662.812,580.2,1611.326,623.177,1568.264,679.892Z" fill="#fff"/>
    </g>
    <path id="Trazado_20661" data-name="Trazado 20661" d="M1667.6,965.508l3.9-5.287s-.08-.487-.206-1.4c-.9-6.519-4.122-34.767,2.815-62.816l-10.177-11.074c-13.164,21.98-41.187,83.312-2.729,160.449l10.854-21.986,16.419-13.32Z" fill="#63accf"/>
    <g id="Grupo_8972" data-name="Grupo 8972">
      <path id="Trazado_20662" data-name="Trazado 20662" d="M1662.775,1233.041l-1.113,7.05,32.191,122.635,5.286-2.041s6.493-104.081-14.843-127.644-18.552-2.04-18.552-2.04Z" fill="#ffd3cf"/>
      <path id="Trazado_20663" data-name="Trazado 20663" d="M1699.261,1357.995s9.554,5.381,2.226,37.384h-3.8l-.928-18.692s-3.432,5.056-7.421,18.692h-30.427s2.69-6.586,16.326-8.905c0,0,5.363-17.961,17.515-27.98Z" fill="#ff4f3b"/>
      <path id="Trazado_20664" data-name="Trazado 20664" d="M1699.261,1357.995c-1.94-2.7-4.028-3.552-6.512.5-12.151,10.018-17.514,27.98-17.514,27.98l5.658.928S1690.17,1364.86,1699.261,1357.995Z" fill="#ffd3cf"/>
      <path id="Trazado_20665" data-name="Trazado 20665" d="M1709.807,1216.251l-4.639,6.679,37.629,139.8,5.286-2.041s1.931-100.643-14.842-127.644c-15.271-24.582-18.518-20.964-18.518-20.964Z" fill="#ffd3cf"/>
      <path id="Trazado_20666" data-name="Trazado 20666" d="M1748.2,1357.995s9.555,5.381,2.226,37.384h-3.8l-.928-18.692s-3.432,5.056-7.421,18.692h-30.427s2.69-6.586,16.327-8.905c0,0,5.363-17.961,17.515-27.98Z" fill="#ff4f3b"/>
      <path id="Trazado_20667" data-name="Trazado 20667" d="M1748.2,1357.995c-2.042-3.336-4.227-2.77-6.511.5-12.152,10.018-17.515,27.98-17.515,27.98l5.658.928S1739.114,1364.86,1748.2,1357.995Z" fill="#ffd3cf"/>
      <path id="Trazado_20668" data-name="Trazado 20668" d="M1729.49,1227.2c-7.83-11.765-11.717-14.631-13.479-15.189l-2.158.8-4.046,3.436-4.638,6.679,4.6,17.106A43.1,43.1,0,0,1,1729.49,1227.2Z" fill="#ffb8b0"/>
      <path id="Trazado_20669" data-name="Trazado 20669" d="M1684.3,1233.041a71.723,71.723,0,0,0-7.364-7.209c-3.838.63-8.2,1.381-11.279,2.009a19.6,19.6,0,0,0,.09,3.16l-2.968,2.04-1.113,7.051,1.937,7.378c6.5-3.863,15.2-8.138,23.981-9.8A26.838,26.838,0,0,0,1684.3,1233.041Z" fill="#ffb8b0"/>
      <path id="Trazado_20670" data-name="Trazado 20670" d="M1663.585,947.573s-8.788-15.46,2.344-25.479,21.892,2.969,34.508,5.752,28.2,1.606,31.911,22.324-2.968,20.348,7.978,42.8-6.308,33.024-2.6,46.2,12.987,27.459-.928,37.106-35.992-5.009-35.992-5.009l-.928-35.251,5.751-26.53-7.316-19.977-.847-31.972-22.078-18.652S1667.034,943.625,1663.585,947.573Z" fill="#0f3447"/>
      <path id="Trazado_20671" data-name="Trazado 20671" d="M1666.3,1109.219l-9.276,4.156s-20.038,71.985,2.226,126.716l76.252-18.738s16.884-89.425-23.933-114.472-30.325-1.3-30.325-1.3l-14.758,4.638Z" fill="#1b6085"/>
      <path id="Trazado_20672" data-name="Trazado 20672" d="M1675.02,992.6v24.3l-31.911,31.354s1.34,18.553,18.11,20.594c0,0,.257,23.191-4.195,44.527a60.08,60.08,0,0,0,54.545-6.494s-1.67-24.489,3.34-47.309,4.452-57.7,4.452-57.7l-31.168-17.811-13.359,4.453Z" fill="#9bd5f2"/>
      <path id="Trazado_20673" data-name="Trazado 20673" d="M1716.022,873.115l-3.4-4.024s-7.082-12.813-7.129-26.728,7.746,9.462,7.746,9.462,1.67-35.482,6.54-36.178,2.505,9.462,2.505,9.462,3.061-12.384,5.844-12.106.695,16.28.695,16.28,2.923-10.157,5.288-9.183-3.061,17.671-3.061,17.671,2.226-8.9,5.566-7.514-4.036,24.769-12.245,36.179l-2.905,3.061Z" fill="#ffd3cf"/>
      <path id="Trazado_20674" data-name="Trazado 20674" d="M1697.643,989.461l-11.153-4.833-11.656,3.886.186,4.081V1016.9l-22.193,21.8c1.9,3.032,6.718,7.938,16.256,1.943,12.987-8.164,27.644-35.251,27.644-35.251Z" fill="#ffd3cf"/>
      <path id="Trazado_20675" data-name="Trazado 20675" d="M1697.042,989.2l-10.552-4.573-11.656,3.886.186,4.081v17.478C1681.643,1006.6,1691.676,999.9,1697.042,989.2Z" fill="#ffb8b0"/>
      <path id="Trazado_20676" data-name="Trazado 20676" d="M1679.287,937.308s-20.779,5.566-29.313,34.508l7.421,1.856s-10.39,20.037,11.5,23.747,36.735-15.584,36.735-15.584l-2.226-35.993s-14.471-6.679-14.842-8.534S1679.287,937.308,1679.287,937.308Z" fill="#ffd3cf"/>
      <path id="Trazado_20677" data-name="Trazado 20677" d="M1675.391,935.638v3.24s-8.142,17,10.946,28.31l3.55,13.054c-4.829,11.906-3.982,21,6.84,25.155l24.05-23.253-9.95-38.9-17.44-8.535h-12.8Z" fill="#0f3447"/>
      <path id="Trazado_20678" data-name="Trazado 20678" d="M1686.337,967.188s3.525-6.689,7.792-2.236-3.339,21.15-12.244,16.326-2.783-9.647-2.783-9.647l4.535-2.663Z" fill="#ffd3cf"/>
      <path id="Trazado_20679" data-name="Trazado 20679" d="M1710.827,869.5l13.544-3.061s44.31,90.554-6.927,177.049l-28.973-17.587,8.256-20.5S1731.792,957.438,1710.827,869.5Z" fill="#9bd5f2"/>
    </g>
    <g id="Grupo_8975" data-name="Grupo 8975">
      <g id="Grupo_8974" data-name="Grupo 8974">
        <path id="Trazado_20680" data-name="Trazado 20680" d="M741.711,1395.379a22.783,22.783,0,0,1,6.335-10.558h5.375a34.3,34.3,0,0,1,26.109,10.558Z" fill="#154965"/>
        <g id="Grupo_8973" data-name="Grupo 8973">
          <path id="Trazado_20681" data-name="Trazado 20681" d="M861.312,1369.463l2.688,2.3,3.264,15.742H873.6l-2.88-19.582h-6.527Z" fill="#ffd3cf"/>
          <path id="Trazado_20682" data-name="Trazado 20682" d="M835.318,1127.144l-2.227,4.173s32.252,124.112,41.467,247.361H861.6s-55-178.25-65.368-205.9,19.582-27.068,19.582-27.068l-4.357-23.325Z" fill="#1b6085"/>
          <path id="Trazado_20683" data-name="Trazado 20683" d="M812.152,1220.771l7.779-65.831-17.556,35.709C805.136,1198.987,808.475,1209.291,812.152,1220.771Z" fill="#154a66"/>
          <path id="Trazado_20684" data-name="Trazado 20684" d="M749.294,1373.206l-1.248,11.615h5.375l1.92-13.054Z" fill="#ffd3cf"/>
          <path id="Trazado_20685" data-name="Trazado 20685" d="M779.242,1129.7l-8.348,9.426s-22.176,95.569-24.768,239.551h9.791S807.338,1186.173,827.332,1146L813.8,1129.7Z" fill="#1b6085"/>
          <path id="Trazado_20686" data-name="Trazado 20686" d="M799.112,997.845s-10.724-1.967-12.561-2.159-12.636.288-12.636.288-74.631,25.053-107.267,97.235c0,0,19.786,37.995,97.006,45.69l.487-6.579s-34.652-21.332-42.2-48.517c0,0,6.462-12.09,25.149-23.229,2.973-1.773,14.014-13.247,14.014-13.247l13.631-24-3.7-16.126Z" fill="#2176a3"/>
          <path id="Trazado_20687" data-name="Trazado 20687" d="M738.063,1048.671l9.023,11.9s24.95,45.69,20.778,78.806c0,0,42.19-3.456,70.123-6.911,0,0,.288-73.431,8.927-110,0,0-18.2-12.649-36.889-18.419l-4.866,18.419-22.749,12.383-20.734-4.9-15.7,11.807Z" fill="#2176a3"/>
          <path id="Trazado_20688" data-name="Trazado 20688" d="M777.946,992.662l-4.031,3.312s24.189,46.938,38.155,82.213c0,0-4.391-58.016-12.958-80.342l-14.889-6.335h-3.829Z" fill="#fff"/>
          <path id="Trazado_20689" data-name="Trazado 20689" d="M781.546,998.277l-7.631-2.3,21.955,20.157,4-19.667-14.292.949Z" fill="#ff4f3b"/>
          <path id="Trazado_20690" data-name="Trazado 20690" d="M806.86,1032.322l-12.788-23.246,1.64,31.564c5.734,12.338,11.631,25.609,16.358,37.547C812.07,1078.187,810.314,1055.014,806.86,1032.322Z" fill="#ff4f3b"/>
          <path id="Trazado_20691" data-name="Trazado 20691" d="M798.884,995.974l20.241,10.078-10.12,7.775,15.025,9.647-11.96,54.713S803.39,1014.58,798.884,995.974Z" fill="#1a5c80"/>
          <path id="Trazado_20692" data-name="Trazado 20692" d="M764.141,1132.32l12.782-6.014,11.878,7.879s4.834,13.132,3.432,14.326-2.118-.6-2.118-.6,1.313,2.627.358,3.463-3.1-2.388-3.1-2.388,1.074,3.343-.239,3.462-1.85-3.82-1.85-3.82-1.254,3.581-2.328,1.91-5.253-3.818-6.029-11.161a19.165,19.165,0,0,1-13.269-.481Z" fill="#ffd3cf"/>
          <path id="Trazado_20693" data-name="Trazado 20693" d="M796.664,977.688l2.448,20.157s1.295,5.328-6.912,6.48-18.285-8.351-18.285-8.351l1.689-29.229,15.3-1.3V967.9Z" fill="#ffd3cf"/>
          <path id="Trazado_20694" data-name="Trazado 20694" d="M774.905,978.829c3.864,5.253,11.12,11.9,23.619,14.18l-1.753-14.44c-4.182-2.131-7.45-3.617-7.45-3.617l-13.77-7.3Z" fill="#f5b9b5"/>
          <path id="Trazado_20695" data-name="Trazado 20695" d="M806.311,919.663s13.822,5.76,17.565,35.708l-8.782,2.016s1.295,20.445-9.071,24.476-25.341,2.3-35.132-19.293,7.2-36.284,8.351-36.572,20.734-6.335,20.734-6.335Z" fill="#ffd3cf"/>
          <path id="Trazado_20696" data-name="Trazado 20696" d="M815.6,929.084s11.154-5.533,11.3-16.908-4.607-14.11-9.5-11.95-7.634,6.911-21.527,6.047-37.361-5.327-46.72,15.406,4.463,35.276,9.647,38.731,6.191,19.582,15.118,19.87,11.662-11.663,9.071-21.886l3.454-7.487-.575-2.591s11.231-1.728,15.694-9.5,4.332-12.526,9.077-15.982A75.319,75.319,0,0,1,815.6,929.084Z" fill="#0f3447"/>
          <path id="Trazado_20697" data-name="Trazado 20697" d="M785.865,948.316a5.894,5.894,0,0,0-.253-.711c-.641-1.52-2.616-4.8-7.234-2.889-5.9,2.448-2.16,21.021,9.071,17.134s1.44-10.222,1.44-10.222Z" fill="#ffd3cf"/>
          <path id="Trazado_20698" data-name="Trazado 20698" d="M774.037,994.912l-23.879,10.571,17.706,13.725-10.8,18.718,55,40.261C802.873,1055.256,789.182,1026.092,774.037,994.912Z" fill="#1a5c80"/>
        </g>
        <path id="Trazado_20699" data-name="Trazado 20699" d="M860.434,1395.379a22.783,22.783,0,0,1,6.335-10.558h5.375a34.3,34.3,0,0,1,26.109,10.558Z" fill="#154965"/>
      </g>
      <path id="Trazado_20700" data-name="Trazado 20700" d="M835.363,1043.632l11.551-21.165,11.326,6.992,3.84,54.939-32.342-17.127,2.813-15.15Z" fill="#2176a3"/>
    </g>
    <g id="Grupo_8996" data-name="Grupo 8996">
      <g id="Grupo_8986" data-name="Grupo 8986">
        <g id="Grupo_8977" data-name="Grupo 8977">
          <g id="Grupo_8976" data-name="Grupo 8976">
            <path id="Trazado_20701" data-name="Trazado 20701" d="M614.872,355.12l27.59-33.34a6.127,6.127,0,0,0-.814-8.626L526.813,218.122a6.127,6.127,0,0,0-8.626.814L490.6,252.275a6.127,6.127,0,0,0,.814,8.626l114.835,95.033A6.127,6.127,0,0,0,614.872,355.12Z" fill="#d2f0f7"/>
          </g>
        </g>
        <g id="Grupo_8979" data-name="Grupo 8979">
          <g id="Grupo_8978" data-name="Grupo 8978">
            <path id="Trazado_20702" data-name="Trazado 20702" d="M614.872,355.12l27.59-33.34a6.127,6.127,0,0,0-.814-8.626L526.813,218.122a6.127,6.127,0,0,0-8.626.814L490.6,252.275a6.127,6.127,0,0,0,.814,8.626l114.835,95.033A6.127,6.127,0,0,0,614.872,355.12Z" fill="#97d7e8"/>
          </g>
        </g>
        <g id="Grupo_8981" data-name="Grupo 8981" style="mix-blend-mode: multiply;isolation: isolate">
          <g id="Grupo_8980" data-name="Grupo 8980">
            <rect id="Rectángulo_2025" data-name="Rectángulo 2025" width="47.152" height="45.602" rx="3.645" transform="matrix(0.638, -0.77, 0.77, 0.638, 534.769, 291.347)" fill="#f1f2f2"/>
          </g>
        </g>
        <g id="Grupo_8983" data-name="Grupo 8983">
          <g id="Grupo_8982" data-name="Grupo 8982">
            <path id="Trazado_20703" data-name="Trazado 20703" d="M562.507,257.828a3.645,3.645,0,0,1,5.132-.484l29.516,24.426a1.273,1.273,0,0,1,.41,2.3l-25.415,30.71a3.644,3.644,0,0,1-5.132.484L537.5,290.841a1.273,1.273,0,0,1-.41-2.3Z" fill="#dcf2f7"/>
          </g>
        </g>
        <g id="Grupo_8985" data-name="Grupo 8985" style="mix-blend-mode: multiply;isolation: isolate">
          <g id="Grupo_8984" data-name="Grupo 8984">
            <path id="Trazado_20704" data-name="Trazado 20704" d="M537.093,288.538a1.273,1.273,0,0,0,.41,2.3l29.515,24.425a3.644,3.644,0,0,0,5.132-.484l25.415-30.71a1.273,1.273,0,0,0-.41-2.3l-5.705-4.722c-30.157,44.41-51.786,8.384-51.786,8.384Z" fill="#f1f2f2"/>
          </g>
        </g>
      </g>
      <g id="Grupo_8987" data-name="Grupo 8987" style="mix-blend-mode: multiply;isolation: isolate">
        <path id="Trazado_20705" data-name="Trazado 20705" d="M578.331,332.832l31.986-45.606-14.467-11.973h0L563.79,312.6l-2.526,6.114Z" fill="#f1f2f2"/>
      </g>
      <g id="Grupo_8988" data-name="Grupo 8988" style="mix-blend-mode: multiply;isolation: isolate">
        <path id="Trazado_20706" data-name="Trazado 20706" d="M560.814,246.26l-37.338,41.177,13.064,10.811,4.343-2.405L575.23,258.19Z" fill="#f1f2f2"/>
      </g>
      <g id="Grupo_8995" data-name="Grupo 8995">
        <g id="Grupo_8990" data-name="Grupo 8990">
          <g id="Grupo_8989" data-name="Grupo 8989">
            <path id="Trazado_20707" data-name="Trazado 20707" d="M635.02,238.189l-33.778-27.051a6.126,6.126,0,0,0-8.612.952L499.454,328.436a6.127,6.127,0,0,0,.952,8.612L534.184,364.1a6.127,6.127,0,0,0,8.613-.952L635.972,246.8A6.127,6.127,0,0,0,635.02,238.189Z" fill="#ace4f2"/>
          </g>
        </g>
        <g id="Grupo_8992" data-name="Grupo 8992">
          <g id="Grupo_8991" data-name="Grupo 8991">
            <path id="Trazado_20708" data-name="Trazado 20708" d="M538.582,292.109a3.644,3.644,0,0,1-.567-5.123l23.949-29.9a1.273,1.273,0,0,1,2.295-.447l31.115,24.918a3.644,3.644,0,0,1,.566,5.123l-23.948,29.9a1.273,1.273,0,0,1-2.3.447Z" fill="#fff"/>
          </g>
        </g>
        <g id="Grupo_8994" data-name="Grupo 8994" style="mix-blend-mode: multiply;isolation: isolate">
          <g id="Grupo_8993" data-name="Grupo 8993">
            <path id="Trazado_20709" data-name="Trazado 20709" d="M569.7,317.027a1.273,1.273,0,0,0,2.3-.447l23.948-29.9a3.645,3.645,0,0,0-.566-5.123l-31.115-24.918a1.273,1.273,0,0,0-2.295.447l-4.629,5.78c44.887,29.44,9.214,51.644,9.214,51.644Z" fill="#f7f7f7"/>
          </g>
        </g>
      </g>
    </g>
    <g id="Grupo_9003" data-name="Grupo 9003">
      <g id="Grupo_8998" data-name="Grupo 8998">
        <g id="Grupo_8997" data-name="Grupo 8997">
          <path id="Trazado_20710" data-name="Trazado 20710" d="M1860.835,216.408a14.837,14.837,0,1,0-12.044-17.181A14.836,14.836,0,0,0,1860.835,216.408Z" fill="#bcbec0"/>
        </g>
      </g>
      <g id="Grupo_9000" data-name="Grupo 9000">
        <g id="Grupo_8999" data-name="Grupo 8999">
          <path id="Trazado_20711" data-name="Trazado 20711" d="M1873.7,205.223a14.837,14.837,0,1,0-18.769,9.38A14.836,14.836,0,0,0,1873.7,205.223Z" fill="#fff"/>
        </g>
      </g>
      <g id="Grupo_9002" data-name="Grupo 9002">
        <g id="Grupo_9001" data-name="Grupo 9001">
          <path id="Trazado_20712" data-name="Trazado 20712" d="M1853.446,214.013a14.352,14.352,0,0,0,3.031,1.011l4.666-13.99,4.666-13.991a15.226,15.226,0,0,0-1.487-.589,14.793,14.793,0,0,0-1.543-.421l-4.667,13.99Z" fill="#d7d8d9"/>
        </g>
      </g>
    </g>
    <g id="Grupo_9010" data-name="Grupo 9010">
      <g id="Grupo_9005" data-name="Grupo 9005">
        <g id="Grupo_9004" data-name="Grupo 9004">
          <path id="Trazado_20713" data-name="Trazado 20713" d="M303.995,1079.761a13.42,13.42,0,1,0-18.65,3.523A13.42,13.42,0,0,0,303.995,1079.761Z" fill="#bcbec0"/>
        </g>
      </g>
      <g id="Grupo_9007" data-name="Grupo 9007">
        <g id="Grupo_9006" data-name="Grupo 9006">
          <path id="Trazado_20714" data-name="Trazado 20714" d="M299.572,1064.988a13.42,13.42,0,1,0,.735,18.965A13.42,13.42,0,0,0,299.572,1064.988Z" fill="#fff"/>
        </g>
      </g>
      <g id="Grupo_9009" data-name="Grupo 9009">
        <g id="Grupo_9008" data-name="Grupo 9008">
          <path id="Trazado_20715" data-name="Trazado 20715" d="M299.267,1084.959a13.842,13.842,0,0,0,1.04-1.006,13.567,13.567,0,0,0,.922-1.115l-9.791-9.06-9.791-9.061a13.652,13.652,0,0,0-1.04,1.006,13.385,13.385,0,0,0-.922,1.115l9.791,9.06Z" fill="#d7d8d9"/>
        </g>
      </g>
    </g>
    <g id="Grupo_9017" data-name="Grupo 9017">
      <g id="Grupo_9012" data-name="Grupo 9012">
        <g id="Grupo_9011" data-name="Grupo 9011">
          <path id="Trazado_20716" data-name="Trazado 20716" d="M1956.029,211.869a24.468,24.468,0,1,0-28.234,20A24.468,24.468,0,0,0,1956.029,211.869Z" fill="#bcbec0"/>
        </g>
      </g>
      <g id="Grupo_9014" data-name="Grupo 9014">
        <g id="Grupo_9013" data-name="Grupo 9013">
          <path id="Trazado_20717" data-name="Trazado 20717" d="M1937.478,190.742a24.467,24.467,0,1,0,15.623,30.875A24.467,24.467,0,0,0,1937.478,190.742Z" fill="#fff"/>
        </g>
      </g>
      <g id="Grupo_9016" data-name="Grupo 9016">
        <g id="Grupo_9015" data-name="Grupo 9015">
          <path id="Trazado_20718" data-name="Trazado 20718" d="M1952.141,224.074a23.773,23.773,0,0,0,1.642-5.006l-23.11-7.58-23.11-7.581a23.747,23.747,0,0,0-1.641,5.006l23.109,7.58Z" fill="#e6e7e8"/>
        </g>
      </g>
    </g>
    <g id="Grupo_9024" data-name="Grupo 9024">
      <g id="Grupo_9019" data-name="Grupo 9019">
        <g id="Grupo_9018" data-name="Grupo 9018">
          <path id="Trazado_20719" data-name="Trazado 20719" d="M330.071,1190.686a26.59,26.59,0,1,0-35.138,13.394A26.589,26.589,0,0,0,330.071,1190.686Z" fill="#bcbec0"/>
        </g>
      </g>
      <g id="Grupo_9021" data-name="Grupo 9021">
        <g id="Grupo_9020" data-name="Grupo 9020">
          <path id="Trazado_20720" data-name="Trazado 20720" d="M288.749,1162.737a26.59,26.59,0,1,0,36.282,9.884A26.589,26.589,0,0,0,288.749,1162.737Z" fill="#fff"/>
        </g>
      </g>
      <g id="Grupo_9023" data-name="Grupo 9023">
        <g id="Grupo_9022" data-name="Grupo 9022">
          <path id="Trazado_20721" data-name="Trazado 20721" d="M326.313,1175.185a25.908,25.908,0,0,0-2.841-4.97l-22.945,13.12-22.945,13.121a25.865,25.865,0,0,0,2.841,4.969l22.945-13.12Z" fill="#d7d8d9"/>
        </g>
      </g>
    </g>
    <g id="Grupo_9025" data-name="Grupo 9025">
      <path id="Trazado_20722" data-name="Trazado 20722" d="M281.921,890.643l-53.488,8.1a15.27,15.27,0,0,0-12.811,17.384h0a15.27,15.27,0,0,0,17.383,12.811l53.488-8.1A15.269,15.269,0,0,0,299.3,903.454h0A15.269,15.269,0,0,0,281.921,890.643Z" fill="#fff"/>
      <path id="Trazado_20723" data-name="Trazado 20723" d="M299.3,903.454h0a15.269,15.269,0,0,0-17.383-12.811L254.6,894.781l5.154,30.106,26.744-4.05A15.269,15.269,0,0,0,299.3,903.454Z" fill="#ff4f3b"/>
    </g>
    <g id="Grupo_9026" data-name="Grupo 9026">
      <path id="Trazado_20724" data-name="Trazado 20724" d="M271.129,830.182,309,868.811a15.27,15.27,0,0,0,21.593.215h0a15.269,15.269,0,0,0,.214-21.593L292.936,808.8a15.269,15.269,0,0,0-21.593-.214h0A15.269,15.269,0,0,0,271.129,830.182Z" fill="#fff"/>
      <path id="Trazado_20725" data-name="Trazado 20725" d="M271.343,808.589h0a15.269,15.269,0,0,0-.214,21.593l19.347,19.734,21.4-21.8L292.936,808.8A15.269,15.269,0,0,0,271.343,808.589Z" fill="#2f86b5"/>
    </g>
    <g id="Grupo_9027" data-name="Grupo 9027">
      <path id="Trazado_20726" data-name="Trazado 20726" d="M385.486,993l-40.7,35.643a15.269,15.269,0,0,0-1.426,21.547h0a15.268,15.268,0,0,0,21.546,1.426l40.7-35.643a15.27,15.27,0,0,0,1.426-21.547h0A15.27,15.27,0,0,0,385.486,993Z" fill="#fff"/>
      <path id="Trazado_20727" data-name="Trazado 20727" d="M407.033,994.422h0A15.27,15.27,0,0,0,385.486,993l-20.79,18.209,20.563,22.585,20.348-17.821A15.27,15.27,0,0,0,407.033,994.422Z" fill="#2f86b5"/>
    </g>
    <g id="Grupo_9028" data-name="Grupo 9028">
      <path id="Trazado_20728" data-name="Trazado 20728" d="M1768.284,226.075l-25.678-47.06a15.131,15.131,0,0,0-20.53-6.035h0a15.133,15.133,0,0,0-6.036,20.531l25.678,47.059a15.133,15.133,0,0,0,20.531,6.036h0A15.133,15.133,0,0,0,1768.284,226.075Z" fill="#fff"/>
      <path id="Trazado_20729" data-name="Trazado 20729" d="M1762.249,246.606h0a15.133,15.133,0,0,0,6.035-20.531l-13.118-24.041-26.287,15.007,12.839,23.529A15.133,15.133,0,0,0,1762.249,246.606Z" fill="#ff4f3b"/>
    </g>
    <g id="Grupo_9029" data-name="Grupo 9029">
      <path id="Trazado_20730" data-name="Trazado 20730" d="M2018.815,469.82l12.985-52.013a15.13,15.13,0,0,0-11.016-18.346h0a15.132,15.132,0,0,0-18.346,11.016l-12.985,52.013a15.132,15.132,0,0,0,11.016,18.346h0A15.132,15.132,0,0,0,2018.815,469.82Z" fill="#fff"/>
      <path id="Trazado_20731" data-name="Trazado 20731" d="M2000.469,480.836h0a15.132,15.132,0,0,0,18.346-11.016l6.634-26.572-29.5-6.765-6.493,26.007A15.132,15.132,0,0,0,2000.469,480.836Z" fill="#2f86b5"/>
    </g>
    <g id="Grupo_9032" data-name="Grupo 9032">
      <g id="Grupo_9031" data-name="Grupo 9031">
        <g id="Grupo_9030" data-name="Grupo 9030">
          <path id="Trazado_20732" data-name="Trazado 20732" d="M1299.1,1202.574l4.607,32.828s-10.558,11.327-9.407,34.748,24,98.676,24,98.676h6.72s-.192-129.776,4.607-172.2-20.349.96-20.349.96Z" fill="#ffd3cf"/>
          <path id="Trazado_20733" data-name="Trazado 20733" d="M1341.149,1202.574l4.608,32.828s-10.559,11.327-9.407,34.748,24,98.676,24,98.676h6.719s-.192-129.776,4.608-172.2-20.35.96-20.35.96Z" fill="#ffd3cf"/>
          <path id="Trazado_20734" data-name="Trazado 20734" d="M1360.274,1368.846a12.625,12.625,0,0,0-3.284,9.637c.3,5.834,3.673,16.9,3.673,16.9h1.6a97.652,97.652,0,0,1,.735-13.612,107.245,107.245,0,0,1,5.488,13.612h17.372s-1.988-5.228-9.593-7.043c0,0-1.124-11.279-9.335-19.49Z" fill="#c73e2d"/>
          <path id="Trazado_20735" data-name="Trazado 20735" d="M1376.264,1388.335s-1.124-11.278-9.334-19.489c-2.834-2.019-5.083-2.119-6.656,0C1360.274,1368.846,1368.744,1388.249,1376.264,1388.335Z" fill="#ffd3cf"/>
          <path id="Trazado_20736" data-name="Trazado 20736" d="M1318.3,1368.846a12.625,12.625,0,0,0-3.284,9.637c.3,5.834,3.673,16.9,3.673,16.9h1.6a97.652,97.652,0,0,1,.735-13.612,107.245,107.245,0,0,1,5.488,13.612h17.372s-1.988-5.228-9.593-7.043c0,0-1.124-11.279-9.335-19.49Z" fill="#c73e2d"/>
          <path id="Trazado_20737" data-name="Trazado 20737" d="M1334.289,1388.335s-1.124-11.278-9.335-19.489c-2.237-2.051-4.456-2.088-6.654,0C1318.3,1368.846,1326.769,1388.249,1334.289,1388.335Z" fill="#ffd3cf"/>
          <path id="Trazado_20738" data-name="Trazado 20738" d="M1334.037,1085.661l-7.055,9.119s-55.865,5.471-35.635,120.657h85.693s7.2-79.286-10.9-118.065l-26.708-13.055Z" fill="#1b6085"/>
          <path id="Trazado_20739" data-name="Trazado 20739" d="M1350.847,1010.7l3.348-1.584,16.99,6.047,18.285,24.909s2.308,14.11-15.332,20.157l-7.993,37.148-39.163-2.592-14.11-47.658-10.511-24.765,21.454-11.518Z" fill="#9bd5f2"/>
          <path id="Trazado_20740" data-name="Trazado 20740" d="M1367.3,1019.19l3.888-4.032s35.851,25.917,46.074,32.828c0,0-14.238,35.793-50.674,47.341l-8.647-4.866,11.693-9.291s15.287-16.8,19.939-25.928l-11.618-7.832s-11.231-12.239-11.375-12.814S1367.3,1019.19,1367.3,1019.19Z" fill="#9bd5f2"/>
          <path id="Trazado_20741" data-name="Trazado 20741" d="M1317.619,1091.723l12.781-6.015,11.879,7.88s4.834,13.132,3.431,14.326-2.118-.6-2.118-.6,1.313,2.626.358,3.462-3.1-2.388-3.1-2.388,1.074,3.343-.239,3.463-1.85-3.821-1.85-3.821-1.254,3.582-2.328,1.91-5.253-3.817-6.029-11.161a19.161,19.161,0,0,1-13.269-.48Z" fill="#ffd3cf"/>
          <path id="Trazado_20742" data-name="Trazado 20742" d="M1351.531,1009.039l2.664.072,8.063,40.171-20.4-36.022-2.419-4.941Z" fill="#fff"/>
          <path id="Trazado_20743" data-name="Trazado 20743" d="M1351.747,983.986l2.448,25.125s1.152,9.647-15.694,2.951-16.174-13.966-16.174-13.966l17.83-17.638Z" fill="#ffd3cf"/>
          <path id="Trazado_20744" data-name="Trazado 20744" d="M1335.591,984.975l2.676,6.21s4.392,5.556,14.984,8.236l-1.5-15.435-11.21-3.412-.535.037Z" fill="#f5b9b5"/>
          <path id="Trazado_20745" data-name="Trazado 20745" d="M1359.954,929.585s11.327,9.407,13.63,36.475l-6.815.96s3.936,15.742-9.31,20.925-32.06-9.022-32.06-9.022l-3.072-29.949,25.629-16.51Z" fill="#ffd3cf"/>
          <path id="Trazado_20746" data-name="Trazado 20746" d="M1278.6,1032.148l-25.772,22.749s12.838,35.282,64.3,43.885l.948-8.173a89.95,89.95,0,0,1-24.717-29.421l35.132-16.845Z" fill="#9bd5f2"/>
          <path id="Trazado_20747" data-name="Trazado 20747" d="M1368.305,942.736s7.967-6.816,5.279-19.486-8.446-17.47-25.052-12.095-26.4-1.536-42.907,14.59-6.911,31.868-8.831,45.882-19.484,17.722-27.669,43.531c-6.143,19.371,5.081,20.37,1.152,31.231-4.056,11.212,2.712,21.706,12.887,22.906s19.174-5.2,24.549-14.988,7.9-20.095,23.061-28.35,14.881-25.83,8.208-39.5,0-24.04,0-24.04l3.31-5.856s16.77-1.966,23.841-18.453Z" fill="#0f3447"/>
          <path id="Trazado_20748" data-name="Trazado 20748" d="M1342.292,956.557s-3.455-7.765-8.255-3.066-1.151,17.753,7.1,16.6,3.647-7.295,3.647-7.295Z" fill="#ffd3cf"/>
          <path id="Trazado_20749" data-name="Trazado 20749" d="M1372.439,1094.682c1.371,5.028,3.9,9.131-3.579,11.745s-1.949-4.194-1.949-4.194-6.01,5.329-7.059,3.231,6.779-7.5,6.779-7.5-8.8,3.631-8.692,1.116,9.559-6.258,9.559-6.258-8.291,2.131-7.8.249S1368.748,1081.144,1372.439,1094.682Z" fill="#ffd3cf"/>
        </g>
        <path id="Trazado_20750" data-name="Trazado 20750" d="M1378.186,1194.955c-14.327,10.007-32.6,16.769-52,8.625-43.59-18.306-13.969-102.394-13.969-102.395-14.928,10.728-34.056,39.193-20.874,114.252h85.693S1377.776,1207.283,1378.186,1194.955Z" fill="#154a66"/>
      </g>
      <path id="Trazado_20751" data-name="Trazado 20751" d="M1300.9,1215.437l.864,6.154c7.7-1.593,18.179-1.88,25.721,5.141.191-4.02.4-7.672.617-11.3Z" fill="#f5b9b5"/>
      <path id="Trazado_20752" data-name="Trazado 20752" d="M1370.144,1215.437h-27.189l.57,4.061c5.826-1,17.366-1.2,25.889,9.943.222-4.933.465-9.627.731-14Z" fill="#f5b9b5"/>
    </g>
  </g>
</svg>
